{
.appVersion = "1131";
classes = (
{
automatic = 1;
code = "A B C D E F G H I J K L M N O P Q R S T U V W X Y Z";
name = Uppercase;
},
{
automatic = 1;
code = "zero one two three four five six seven eight nine";
name = Digit;
}
);
copyright = "Copyright 2018-2019 Mikhail Sharanda";
customParameters = (
{
name = license;
value = "This Font Software is licensed under the SIL Open Font License, Version 1.1. This license is available with a FAQ at: http://scripts.sil.org/OFL";
},
{
name = licenseURL;
value = "http://scripts.sil.org/OFL";
},
{
name = vendorID;
value = SHMI;
},
{
name = fsType;
value = (
);
},
{
name = "Use Typo Metrics";
value = 1;
}
);
date = "2019-04-15 06:35:19 +0000";
designer = "Mikhail Sharanda";
designerURL = "http://gent.media";
familyName = Manrope3;
featurePrefixes = (
{
automatic = 1;
code = "languagesystem DFLT dflt;\012languagesystem latn dflt;\012languagesystem cyrl dflt;\012languagesystem latn ROM;\012languagesystem latn MOL;\012languagesystem latn KAZ;\012languagesystem latn TAT;\012languagesystem latn TRK;\012languagesystem latn CRT;\012languagesystem latn AZE;\012languagesystem cyrl SRB;\012languagesystem cyrl BGR;\012";
name = Languagesystems;
}
);
features = (
{
automatic = 1;
code = "feature locl;\012feature ordn;\012feature calt;\012feature pnum;\012feature tnum;\012feature case;\012";
name = aalt;
},
{
automatic = 1;

glyphs = (
{
glyphname = A;
lastChange = "2019-01-07 04:51:38 +0000";
layers = (
{
components = (
{
name = V;
transform = "{1, 0, 0, -1, 15, 720}";
}
);
layerId = "CAA188E2-8C62-414B-93AE-B576BEB044DB";
paths = (
{
closed = 1;
nodes = (
"120 187 LINE",
"488 187 LINE",
"488 227 LINE",
"120 227 LINE"
);
}
);
width = 609;
},
{
components = (
{
name = V;
transform = "{1, 0, 0, -1, 15, 720}";
}
);
layerId = "0DA27741-1AFD-43F2-A947-40AFBF8D6498";
paths = (
{
closed = 1;
nodes = (
"152 150 LINE",
"532 150 LINE",
"532 277 LINE",
"152 277 LINE"
);
}
);
width = 683;
},
{
associatedMasterId = "0DA27741-1AFD-43F2-A947-40AFBF8D6498";
layerId = "A2873047-0ED6-4C67-9B4D-3870B51BD5C6";
paths = (
{
closed = 1;
nodes = (
"5 0 LINE",
"155 0 LINE",
"183 90 LINE",
"476 90 LINE",
"504 0 LINE",
"654 0 LINE",
"434 720 LINE",
"225 720 LINE"
);
},
{
closed = 1;
nodes = (
"330 570 LINE",
"431 240 LINE",
"229 240 LINE"
);
}
);
width = 659;
},
{
associatedMasterId = "0DA27741-1AFD-43F2-A947-40AFBF8D6498";
layerId = "55314CA7-5524-4D70-B802-98D4FAE25636";
width = 493;
},
{
associatedMasterId = "0DA27741-1AFD-43F2-A947-40AFBF8D6498";
layerId = "13A3DD5D-E91B-4961-8595-F8141D3FA442";
width = 632;
}
);
leftKerningGroup = A;
note = A;
rightKerningGroup = A;
unicode = 0041;
},
{
glyphname = AE;
lastChange = "2019-03-11 10:02:19 +0000";
layers = (
{
components = (
{
name = E;
transform = "{1, 0, 0, 1, 345, 0}";
}
);
layerId = "CAA188E2-8C62-414B-93AE-B576BEB044DB";
paths = (
{
closed = 1;
nodes = (
"110 157 LINE",
"455 157 LINE",
"455 197 LINE",
"110 197 LINE"
);
},
{
closed = 1;
nodes = (
"20 0 LINE",
"65 0 LINE",
"311 678 LINE",
"435 678 LINE",
"435 720 LINE",
"282 720 LINE"
);
}
);
width = 905;
},
{
components = (
{
name = E;
transform = "{1, 0, 0, 1, 355, 0}";
}
);
layerId = "0DA27741-1AFD-43F2-A947-40AFBF8D6498";
paths = (
{
closed = 1;
nodes = (
"165 112 LINE",
"493 112 LINE",
"493 240 LINE",
"165 240 LINE"
);
},
{
closed = 1;
nodes = (
"20 0 LINE",
"160 0 LINE",
"338 584 LINE",
"493 584 LINE",
"493 720 LINE",
"240 720 LINE"
);
}
);
width = 945;
},
{
associatedMasterId = "0DA27741-1AFD-43F2-A947-40AFBF8D6498";
layerId = "A2873047-0ED6-4C67-9B4D-3870B51BD5C6";
width = 600;
},
{
associatedMasterId = "0DA27741-1AFD-43F2-A947-40AFBF8D6498";
layerId = "55314CA7-5524-4D70-B802-98D4FAE25636";
width = 938;
},
{
associatedMasterId = "0DA27741-1AFD-43F2-A947-40AFBF8D6498";
layerId = "13A3DD5D-E91B-4961-8595-F8141D3FA442";
width = 654;
}
);
leftKerningGroup = A;
leftMetricsKey = A;
rightKerningGroup = E;
rightMetricsKey = E;
unicode = 00C6;
},
{
glyphname = B;
lastChange = "2018-11-24 02:16:53 +0000";
layers = (
{
layerId = "CAA188E2-8C62-414B-93AE-B576BEB044DB";
paths = (
{
closed = 1;
nodes = (
"343 400 LINE SMOOTH",
"387 400 OFFCURVE",
"437 422 OFFCURVE",
"464 462 CURVE SMOOTH",
"482 488 OFFCURVE",
"491 519 OFFCURVE",
"491 550 CURVE SMOOTH",
"491 584 OFFCURVE",
"478 613 OFFCURVE",
"455 636 CURVE SMOOTH",
"427 664 OFFCURVE",
"387 679 OFFCURVE",
"343 679 CURVE",
"110 679 LINE",
"110 720 LINE",
"343 720 LINE",
"402 720 OFFCURVE",
"449 699 OFFCURVE",
"488 662 CURVE SMOOTH",
"519 632 OFFCURVE",
"536 582 OFFCURVE",
"536 540 CURVE SMOOTH",
"536 502 OFFCURVE",
"523 467 OFFCURVE",
"501 436 CURVE SMOOTH",
"467 388 OFFCURVE",
"415 359 OFFCURVE",
"348 359 CURVE",
"110 359 LINE",
"110 400 LINE"
);
},
{
closed = 1;
nodes = (
"342 42 LINE",
"403 42 OFFCURVE",
"442 51 OFFCURVE",
"487 94 CURVE SMOOTH",
"514 120 OFFCURVE",
"526 153 OFFCURVE",
"526 190 CURVE SMOOTH",
"526 225 OFFCURVE",
"516 260 OFFCURVE",
"496 288 CURVE SMOOTH",
"468 332 OFFCURVE",
"408 359 OFFCURVE",
"362 359 CURVE",
"110 359 LINE",
"110 399 LINE",
"362 399 LINE",
"434 399 OFFCURVE",
"493 368 OFFCURVE",
"531 315 CURVE SMOOTH",
"559 280 OFFCURVE",
"574 234 OFFCURVE",
"571 190 CURVE SMOOTH",
"568 146 OFFCURVE",
"554 99 OFFCURVE",
"526 68 CURVE SMOOTH",
"477 15 OFFCURVE",
"433 0 OFFCURVE",
"343 0 CURVE",
"90 0 LINE",
"90 42 LINE"
);
},
{
closed = 1;
nodes = (
"112 720 LINE",
"112 0 LINE",
"70 0 LINE",
"70 720 LINE"
);
}
);
width = 601;
},
{
layerId = "0DA27741-1AFD-43F2-A947-40AFBF8D6498";
paths = (
{
closed = 1;
nodes = (
"356 439 LINE SMOOTH",
"386 439 OFFCURVE",
"404 448 OFFCURVE",
"419 463 CURVE SMOOTH",
"433 477 OFFCURVE",
"436 496 OFFCURVE",
"436 515 CURVE SMOOTH",
"436 535 OFFCURVE",
"430 556 OFFCURVE",
"414 572 CURVE SMOOTH",
"399 587 OFFCURVE",
"380 593 OFFCURVE",
"356 593 CURVE SMOOTH",
"195 593 LINE",
"195 720 LINE",
"357 720 LINE SMOOTH",
"420 720 OFFCURVE",
"468 707 OFFCURVE",
"511 667 CURVE SMOOTH",
"555 626 OFFCURVE",
"573 575 OFFCURVE",
"574 515 CURVE SMOOTH",
"575 463 OFFCURVE",
"553 416 OFFCURVE",
"522 391 CURVE SMOOTH",
"488 363 OFFCURVE",
"443 352 OFFCURVE",
"397 352 CURVE SMOOTH",
"175 352 LINE",
"175 439 LINE"
);
},
{
closed = 1;
nodes = (
"375 128 LINE SMOOTH",
"404 128 OFFCURVE",
"425 137 OFFCURVE",
"443 154 CURVE SMOOTH",
"461 171 OFFCURVE",
"470 194 OFFCURVE",
"470 220 CURVE SMOOTH",
"470 244 OFFCURVE",
"463 270 OFFCURVE",
"445 288 CURVE SMOOTH",
"424 309 OFFCURVE",
"396 312 OFFCURVE",
"375 312 CURVE SMOOTH",
"188 312 LINE",
"188 398 LINE",
"394 398 LINE SMOOTH",
"441 398 OFFCURVE",
"507 388 OFFCURVE",
"550 352 CURVE SMOOTH",
"585 322 OFFCURVE",
"607 270 OFFCURVE",
"607 220 CURVE SMOOTH",
"607 155 OFFCURVE",
"590 95 OFFCURVE",
"545 53 CURVE SMOOTH",
"503 14 OFFCURVE",
"460 0 OFFCURVE",
"374 0 CURVE SMOOTH",
"188 0 LINE",
"188 128 LINE"
);
},
{
closed = 1;
nodes = (
"208 720 LINE",
"208 0 LINE",
"70 0 LINE",
"70 720 LINE"
);
}
);
width = 647;
},
{
associatedMasterId = "0DA27741-1AFD-43F2-A947-40AFBF8D6498";
layerId = "A2873047-0ED6-4C67-9B4D-3870B51BD5C6";
width = 600;
},
{
associatedMasterId = "0DA27741-1AFD-43F2-A947-40AFBF8D6498";
layerId = "55314CA7-5524-4D70-B802-98D4FAE25636";
width = 606;
},
{
associatedMasterId = "0DA27741-1AFD-43F2-A947-40AFBF8D6498";
layerId = "13A3DD5D-E91B-4961-8595-F8141D3FA442";
width = 601;
}
);
leftKerningGroup = B;
leftMetricsKey = H;
note = B;
rightKerningGroup = B;
unicode = 0042;
},
{
glyphname = C;
lastChange = "2018-11-28 01:15:36 +0000";
layers = (
{
layerId = "CAA188E2-8C62-414B-93AE-B576BEB044DB";
paths = (
{
closed = 1;
nodes = (
"615 191 OFFCURVE",
"598 156 OFFCURVE",
"576 125 CURVE SMOOTH",
"527 60 OFFCURVE",
"446 26 OFFCURVE",
"363 27 CURVE SMOOTH",
"277 28 OFFCURVE",
"201 57 OFFCURVE",
"151 124 CURVE SMOOTH",
"95 198 OFFCURVE",
"85 276 OFFCURVE",
"85 360 CURVE SMOOTH",
"85 444 OFFCURVE",
"100 529 OFFCURVE",
"151 595 CURVE SMOOTH",
"202 661 OFFCURVE",
"281 693 OFFCURVE",
"363 692 CURVE SMOOTH",
"448 691 OFFCURVE",
"524 663 OFFCURVE",
"576 594 CURVE SMOOTH",
"601 561 OFFCURVE",
"619 521 OFFCURVE",
"628 479 CURVE",
"672 486 LINE",
"661 534 OFFCURVE",
"642 581 OFFCURVE",
"611 621 CURVE SMOOTH",
"554 696 OFFCURVE",
"462 735 OFFCURVE",
"363 735 CURVE SMOOTH",
"264 735 OFFCURVE",
"174 698 OFFCURVE",
"116 621 CURVE SMOOTH",
"58 545 OFFCURVE",
"42 450 OFFCURVE",
"40 360 CURVE SMOOTH",
"38 276 OFFCURVE",
"60 173 OFFCURVE",
"116 98 CURVE SMOOTH",
"175 19 OFFCURVE",
"263 -15 OFFCURVE",
"363 -15 CURVE SMOOTH",
"463 -15 OFFCURVE",
"553 21 OFFCURVE",
"611 98 CURVE SMOOTH",
"638 134 OFFCURVE",
"657 174 OFFCURVE",
"667 216 CURVE",
"625 228 LINE"
);
}
);
width = 712;
},
{
layerId = "0DA27741-1AFD-43F2-A947-40AFBF8D6498";
paths = (
{
closed = 1;
nodes = (
"559.607 223.215 OFFCURVE",
"549.488 202.984 OFFCURVE",
"536 185 CURVE SMOOTH",
"500 137 OFFCURVE",
"451 112 OFFCURVE",
"389 113 CURVE SMOOTH",
"327 114 OFFCURVE",
"267 137 OFFCURVE",
"232 185 CURVE SMOOTH",
"195 233 OFFCURVE",
"184 297 OFFCURVE",
"183 360 CURVE SMOOTH",
"182 423 OFFCURVE",
"195 488 OFFCURVE",
"232 535 CURVE",
"267 583 OFFCURVE",
"327 608 OFFCURVE",
"389 607 CURVE SMOOTH",
"451 606 OFFCURVE",
"500 583 OFFCURVE",
"536 535 CURVE SMOOTH",
"550.889 515.561 OFFCURVE",
"561.673 493.043 OFFCURVE",
"569.201 468.861 CURVE",
"705 488 LINE",
"689 557 OFFCURVE",
"658 618 OFFCURVE",
"593 670 CURVE SMOOTH",
"534 718 OFFCURVE",
"463 735 OFFCURVE",
"380 735 CURVE SMOOTH",
"276 735 OFFCURVE",
"186 697 OFFCURVE",
"122 619 CURVE SMOOTH",
"63 548 OFFCURVE",
"40 459 OFFCURVE",
"40 360 CURVE SMOOTH",
"40 265 OFFCURVE",
"65 178 OFFCURVE",
"123 103 CURVE SMOOTH",
"182 27 OFFCURVE",
"274 -15 OFFCURVE",
"380 -15 CURVE SMOOTH",
"460 -15 OFFCURVE",
"533 1 OFFCURVE",
"594 49 CURVE SMOOTH",
"654 97 OFFCURVE",
"682 152 OFFCURVE",
"700 212 CURVE",
"566.989 244.797 LINE"
);
}
);
width = 735;
},
{
associatedMasterId = "0DA27741-1AFD-43F2-A947-40AFBF8D6498";
layerId = "A2873047-0ED6-4C67-9B4D-3870B51BD5C6";
width = 600;
},
{
associatedMasterId = "0DA27741-1AFD-43F2-A947-40AFBF8D6498";
layerId = "55314CA7-5524-4D70-B802-98D4FAE25636";
width = 718;
},
{
associatedMasterId = "0DA27741-1AFD-43F2-A947-40AFBF8D6498";
layerId = "13A3DD5D-E91B-4961-8595-F8141D3FA442";
width = 619;
}
);
leftKerningGroup = C;
leftMetricsKey = O;
note = C;
rightKerningGroup = C;
unicode = 0043;
},
{
glyphname = D;
lastChange = "2019-03-25 03:38:24 +0000";
layers = (
{
layerId = "CAA188E2-8C62-414B-93AE-B576BEB044DB";
paths = (
{
closed = 1;
nodes = (
"612 175 OFFCURVE",
"536 28 OFFCURVE",
"376 5 CURVE SMOOTH",
"351 1 OFFCURVE",
"315 0 OFFCURVE",
"281 0 CURVE SMOOTH",
"70 0 LINE",
"70 720 LINE",
"281 720 LINE SMOOTH",
"315 720 OFFCURVE",
"351 719 OFFCURVE",
"376 715 CURVE SMOOTH",
"536 692 OFFCURVE",
"612 545 OFFCURVE",
"612 360 CURVE SMOOTH"
);
},
{
closed = 1;
nodes = (
"567 518 OFFCURVE",
"518 645 OFFCURVE",
"370 672 CURVE SMOOTH",
"348 676 OFFCURVE",
"313 678 OFFCURVE",
"281 678 CURVE SMOOTH",
"115 678 LINE",
"115 42 LINE",
"281 42 LINE SMOOTH",
"313 42 OFFCURVE",
"348 44 OFFCURVE",
"370 48 CURVE SMOOTH",
"518 75 OFFCURVE",
"567 202 OFFCURVE",
"567 360 CURVE SMOOTH"
);
}
);
width = 652;
},
{
layerId = "0DA27741-1AFD-43F2-A947-40AFBF8D6498";
paths = (
{
closed = 1;
nodes = (
"660 180 OFFCURVE",
"564 24 OFFCURVE",
"389 4 CURVE SMOOTH",
"363 1 OFFCURVE",
"335 0 OFFCURVE",
"303 0 CURVE SMOOTH",
"70 0 LINE",
"70 720 LINE",
"303 720 LINE SMOOTH",
"335 720 OFFCURVE",
"363 719 OFFCURVE",
"389 716 CURVE SMOOTH",
"564 696 OFFCURVE",
"660 540 OFFCURVE",
"660 360 CURVE SMOOTH"
);
},
{
closed = 1;
nodes = (
"516 468 OFFCURVE",
"475 565 OFFCURVE",
"381 587 CURVE SMOOTH",
"363 591 OFFCURVE",
"332 592 OFFCURVE",
"303 592 CURVE SMOOTH",
"208 592 LINE",
"208 128 LINE",
"303 128 LINE SMOOTH",
"332 128 OFFCURVE",
"363 129 OFFCURVE",
"381 133 CURVE SMOOTH",
"475 155 OFFCURVE",
"516 252 OFFCURVE",
"516 360 CURVE SMOOTH"
);
}
);
width = 710;
},
{
associatedMasterId = "0DA27741-1AFD-43F2-A947-40AFBF8D6498";
layerId = "A2873047-0ED6-4C67-9B4D-3870B51BD5C6";
width = 600;
},
{
associatedMasterId = "0DA27741-1AFD-43F2-A947-40AFBF8D6498";
layerId = "55314CA7-5524-4D70-B802-98D4FAE25636";
width = 663;
},
{
associatedMasterId = "0DA27741-1AFD-43F2-A947-40AFBF8D6498";
layerId = "13A3DD5D-E91B-4961-8595-F8141D3FA442";
width = 610;
}
);
leftMetricsKey = H;
note = D;
rightKerningGroup = D;
unicode = 0044;
},
{
glyphname = Eth;
lastChange = "2019-02-12 06:46:17 +0000";
layers = (
{
components = (
{
name = D;
transform = "{1, 0, 0, 1, -11, 0}";
}
);
layerId = "CAA188E2-8C62-414B-93AE-B576BEB044DB";
paths = (
{
closed = 1;
nodes = (
"310 381 LINE",
"310 339 LINE",
"10 339 LINE",
"10 381 LINE"
);
}
);
width = 641;
},
{
components = (
{
name = D;
transform = "{1, 0, 0, 1, 4, 0}";
}
);
layerId = "0DA27741-1AFD-43F2-A947-40AFBF8D6498";
paths = (
{
closed = 1;
nodes = (
"355 413 LINE",
"355 308 LINE",
"10 308 LINE",
"10 413 LINE"
);
}
);
width = 714;
},
{
associatedMasterId = "0DA27741-1AFD-43F2-A947-40AFBF8D6498";
layerId = "A2873047-0ED6-4C67-9B4D-3870B51BD5C6";
width = 600;
},
{
associatedMasterId = "0DA27741-1AFD-43F2-A947-40AFBF8D6498";
layerId = "55314CA7-5524-4D70-B802-98D4FAE25636";
width = 711;
},
{
associatedMasterId = "0DA27741-1AFD-43F2-A947-40AFBF8D6498";
layerId = "13A3DD5D-E91B-4961-8595-F8141D3FA442";
width = 618;
}
);
leftKerningGroup = D;
leftMetricsKey = t;
rightKerningGroup = D;
rightMetricsKey = D;
unicode = 00D0;
},
{
glyphname = E;
lastChange = "2019-03-11 10:02:16 +0000";
layers = (
{
layerId = "CAA188E2-8C62-414B-93AE-B576BEB044DB";
paths = (
{
closed = 1;
nodes = (
"70 0 LINE",
"112 0 LINE",
"112 720 LINE",
"70 720 LINE"
);
},
{
closed = 1;
nodes = (
"97 678 LINE",
"510 678 LINE",
"510 720 LINE",
"97 720 LINE"
);
},
{
closed = 1;
nodes = (
"97 0 LINE",
"510 0 LINE",
"510 42 LINE",
"97 42 LINE"
);
},
{
closed = 1;
nodes = (
"97 339 LINE",
"450 339 LINE",
"450 381 LINE",
"97 381 LINE"
);
}
);
width = 560;
},
{
layerId = "0DA27741-1AFD-43F2-A947-40AFBF8D6498";
paths = (
{
closed = 1;
nodes = (
"70 0 LINE",
"206 0 LINE",
"206 720 LINE",
"70 720 LINE"
);
},
{
closed = 1;
nodes = (
"157 593 LINE",
"540 593 LINE",
"540 720 LINE",
"157 720 LINE"
);
},
{
closed = 1;
nodes = (
"157 0 LINE",
"540 0 LINE",
"540 127 LINE",
"157 127 LINE"
);
},
{
closed = 1;
nodes = (
"157 312 LINE",
"480 312 LINE",
"480 439 LINE",
"157 439 LINE"
);
}
);
width = 590;
},
{
associatedMasterId = "0DA27741-1AFD-43F2-A947-40AFBF8D6498";
layerId = "A2873047-0ED6-4C67-9B4D-3870B51BD5C6";
width = 600;
},
{
associatedMasterId = "0DA27741-1AFD-43F2-A947-40AFBF8D6498";
layerId = "55314CA7-5524-4D70-B802-98D4FAE25636";
width = 563;
},
{
associatedMasterId = "0DA27741-1AFD-43F2-A947-40AFBF8D6498";
layerId = "13A3DD5D-E91B-4961-8595-F8141D3FA442";
width = 594;
}
);
leftMetricsKey = H;
note = E;
unicode = 0045;
},
{
glyphname = F;
lastChange = "2018-07-25 11:15:38 +0000";
layers = (
{
layerId = "CAA188E2-8C62-414B-93AE-B576BEB044DB";
paths = (
{
closed = 1;
nodes = (
"112 720 LINE",
"112 0 LINE",
"70 0 LINE",
"70 720 LINE"
);
},
{
closed = 1;
nodes = (
"470 720 LINE",
"470 678 LINE",
"97 678 LINE",
"97 720 LINE"
);
},
{
closed = 1;
nodes = (
"410 381 LINE",
"410 339 LINE",
"97 339 LINE",
"97 381 LINE"
);
}
);
width = 490;
},
{
layerId = "0DA27741-1AFD-43F2-A947-40AFBF8D6498";
paths = (
{
closed = 1;
nodes = (
"206 720 LINE",
"206 0 LINE",
"70 0 LINE",
"70 720 LINE"
);
},
{
closed = 1;
nodes = (
"510 720 LINE",
"510 584 LINE",
"157 584 LINE",
"157 720 LINE"
);
},
{
closed = 1;
nodes = (
"450 428 LINE",
"450 292 LINE",
"157 292 LINE",
"157 428 LINE"
);
}
);
width = 530;
},
{
associatedMasterId = "0DA27741-1AFD-43F2-A947-40AFBF8D6498";
layerId = "A2873047-0ED6-4C67-9B4D-3870B51BD5C6";
width = 600;
},
{
associatedMasterId = "0DA27741-1AFD-43F2-A947-40AFBF8D6498";
layerId = "55314CA7-5524-4D70-B802-98D4FAE25636";
width = 500;
},
{
associatedMasterId = "0DA27741-1AFD-43F2-A947-40AFBF8D6498";
layerId = "13A3DD5D-E91B-4961-8595-F8141D3FA442";
width = 584;
}
);
leftMetricsKey = H;
note = F;
unicode = 0046;
},
{
glyphname = G;
lastChange = "2018-11-26 09:14:50 +0000";
layers = (
{
layerId = "CAA188E2-8C62-414B-93AE-B576BEB044DB";
paths = (
{
closed = 1;
nodes = (
"637 261 OFFCURVE",
"624 191 OFFCURVE",
"576 126 CURVE SMOOTH",
"525 56 OFFCURVE",
"445 27 OFFCURVE",
"362 27 CURVE SMOOTH",
"280 27 OFFCURVE",
"200 58 OFFCURVE",
"149 126 CURVE SMOOTH",
"97 195 OFFCURVE",
"85 278 OFFCURVE",
"85 360 CURVE SMOOTH",
"85 442 OFFCURVE",
"101 529 OFFCURVE",
"149 593 CURVE SMOOTH",
"198 659 OFFCURVE",
"280 693 OFFCURVE",
"362 693 CURVE SMOOTH",
"445 693 OFFCURVE",
"525 660 OFFCURVE",
"574 596 CURVE SMOOTH",
"585 582 OFFCURVE",
"597 561 OFFCURVE",
"606 544 CURVE",
"647 561 LINE",
"637 582 OFFCURVE",
"624 604 OFFCURVE",
"611 621 CURVE SMOOTH",
"552 698 OFFCURVE",
"461 735 OFFCURVE",
"362 735 CURVE SMOOTH",
"260 735 OFFCURVE",
"171 694 OFFCURVE",
"115 620 CURVE SMOOTH",
"58 544 OFFCURVE",
"40 449 OFFCURVE",
"40 360 CURVE SMOOTH",
"40 276 OFFCURVE",
"56 185 OFFCURVE",
"112 104 CURVE SMOOTH",
"170 21 OFFCURVE",
"263 -15 OFFCURVE",
"362 -15 CURVE SMOOTH",
"458 -15 OFFCURVE",
"548 16 OFFCURVE",
"611 99 CURVE SMOOTH",
"667 172 OFFCURVE",
"686 268 OFFCURVE",
"686 346 CURVE SMOOTH",
"686 351 OFFCURVE",
"686 356 OFFCURVE",
"686 360 CURVE",
"640 337 LINE"
);
},
{
closed = 1;
nodes = (
"655 318 LINE",
"686 360 LINE",
"445 360 LINE",
"445 318 LINE"
);
}
);
width = 726;
},
{
layerId = "0DA27741-1AFD-43F2-A947-40AFBF8D6498";
paths = (
{
closed = 1;
nodes = (
"562 261 OFFCURVE",
"544 202 OFFCURVE",
"505 168 CURVE SMOOTH",
"474 141 OFFCURVE",
"435 125 OFFCURVE",
"389 126 CURVE SMOOTH",
"330 125 OFFCURVE",
"273 149 OFFCURVE",
"240 194 CURVE SMOOTH",
"205 240 OFFCURVE",
"195 300 OFFCURVE",
"194 360 CURVE",
"195 420 OFFCURVE",
"205 481 OFFCURVE",
"240 526 CURVE SMOOTH",
"273 571 OFFCURVE",
"330 595 OFFCURVE",
"389 594 CURVE SMOOTH",
"436 595 OFFCURVE",
"476 580 OFFCURVE",
"505 553 CURVE SMOOTH",
"535 525 OFFCURVE",
"547 497 OFFCURVE",
"556 467 CURVE",
"705 488 LINE",
"689 557 OFFCURVE",
"658 618 OFFCURVE",
"593 670 CURVE SMOOTH",
"534 718 OFFCURVE",
"463 735 OFFCURVE",
"380 735 CURVE SMOOTH",
"276 735 OFFCURVE",
"186 697 OFFCURVE",
"122 619 CURVE SMOOTH",
"63 548 OFFCURVE",
"40 459 OFFCURVE",
"40 360 CURVE SMOOTH",
"40 265 OFFCURVE",
"65 178 OFFCURVE",
"123 103 CURVE SMOOTH",
"182 27 OFFCURVE",
"274 -15 OFFCURVE",
"380 -15 CURVE SMOOTH",
"478 -15 OFFCURVE",
"570 16 OFFCURVE",
"634 90 CURVE SMOOTH",
"686 151 OFFCURVE",
"721 236 OFFCURVE",
"721 339 CURVE SMOOTH",
"721 342 OFFCURVE",
"720 372 OFFCURVE",
"719 381 CURVE",
"562 298 LINE"
);
},
{
closed = 1;
nodes = (
"673 276 LINE",
"719 381 LINE",
"420 381 LINE",
"420 276 LINE"
);
}
);
width = 761;
},
{
associatedMasterId = "0DA27741-1AFD-43F2-A947-40AFBF8D6498";
layerId = "A2873047-0ED6-4C67-9B4D-3870B51BD5C6";
width = 600;
},
{
associatedMasterId = "0DA27741-1AFD-43F2-A947-40AFBF8D6498";
layerId = "55314CA7-5524-4D70-B802-98D4FAE25636";
width = 733;
},
{
associatedMasterId = "0DA27741-1AFD-43F2-A947-40AFBF8D6498";
layerId = "13A3DD5D-E91B-4961-8595-F8141D3FA442";
width = 621;
}
);
leftKerningGroup = O;
leftMetricsKey = O;
note = G;
rightKerningGroup = G;
rightMetricsKey = O;
unicode = 0047;
},
{
glyphname = H;
lastChange = "2018-11-06 08:34:40 +0000";
layers = (
{
layerId = "CAA188E2-8C62-414B-93AE-B576BEB044DB";
paths = (
{
closed = 1;
nodes = (
"70 0 LINE",
"112 0 LINE",
"112 720 LINE",
"70 720 LINE"
);
},
{
closed = 1;
nodes = (
"548 0 LINE",
"590 0 LINE",
"590 720 LINE",
"548 720 LINE"
);
},
{
closed = 1;
nodes = (
"80 339 LINE",
"576 339 LINE",
"576 381 LINE",
"80 381 LINE"
);
}
);
width = 660;
},
{
layerId = "0DA27741-1AFD-43F2-A947-40AFBF8D6498";
paths = (
{
closed = 1;
nodes = (
"70 0 LINE",
"206 0 LINE",
"206 720 LINE",
"70 720 LINE"
);
},
{
closed = 1;
nodes = (
"528 0 LINE",
"664 0 LINE",
"664 720 LINE",
"528 720 LINE"
);
},
{
closed = 1;
nodes = (
"110 297 LINE",
"620 297 LINE",
"620 424 LINE",
"110 424 LINE"
);
}
);
width = 734;
},
{
associatedMasterId = "0DA27741-1AFD-43F2-A947-40AFBF8D6498";
layerId = "A2873047-0ED6-4C67-9B4D-3870B51BD5C6";
width = 600;
},
{
associatedMasterId = "0DA27741-1AFD-43F2-A947-40AFBF8D6498";
layerId = "55314CA7-5524-4D70-B802-98D4FAE25636";
width = 725;
},
{
associatedMasterId = "0DA27741-1AFD-43F2-A947-40AFBF8D6498";
layerId = "13A3DD5D-E91B-4961-8595-F8141D3FA442";
width = 620;
}
);
note = H;
unicode = 0048;
},
{
glyphname = Hbar;
lastChange = "2019-02-12 06:46:34 +0000";
layers = (
{
components = (
{
name = H;
}
);
layerId = "CAA188E2-8C62-414B-93AE-B576BEB044DB";
paths = (
{
closed = 1;
nodes = (
"10 498 LINE",
"670 498 LINE",
"670 540 LINE",
"10 540 LINE"
);
}
);
width = 680;
},
{
components = (
{
name = H;
}
);
layerId = "0DA27741-1AFD-43F2-A947-40AFBF8D6498";
paths = (
{
closed = 1;
nodes = (
"10 480 LINE",
"744 480 LINE",
"744 616 LINE",
"10 616 LINE"
);
}
);
width = 754;
},
{
associatedMasterId = "0DA27741-1AFD-43F2-A947-40AFBF8D6498";
layerId = "A2873047-0ED6-4C67-9B4D-3870B51BD5C6";
width = 600;
},
{
associatedMasterId = "0DA27741-1AFD-43F2-A947-40AFBF8D6498";
layerId = "55314CA7-5524-4D70-B802-98D4FAE25636";
width = 725;
},
{
associatedMasterId = "0DA27741-1AFD-43F2-A947-40AFBF8D6498";
layerId = "13A3DD5D-E91B-4961-8595-F8141D3FA442";
width = 620;
}
);
leftKerningGroup = H;
rightKerningGroup = H;
unicode = 0126;
},
{
glyphname = I;
lastChange = "2018-07-25 11:13:32 +0000";
layers = (
{
layerId = "CAA188E2-8C62-414B-93AE-B576BEB044DB";
paths = (
{
closed = 1;
nodes = (
"80 0 LINE",
"122 0 LINE",
"122 720 LINE",
"80 720 LINE"
);
}
);
width = 202;
},
{
hints = (
{
horizontal = 1;
origin = "{0, 0}";
target = up;
type = BottomGhost;
},
{
horizontal = 1;
origin = "{0, 3}";
target = down;
type = TopGhost;
},
{
place = "{70, 140}";
type = Stem;
}
);
layerId = "0DA27741-1AFD-43F2-A947-40AFBF8D6498";
paths = (
{
closed = 1;
nodes = (
"80 0 LINE",
"216 0 LINE",
"216 720 LINE",
"80 720 LINE"
);
}
);
width = 296;
},
{
associatedMasterId = "0DA27741-1AFD-43F2-A947-40AFBF8D6498";
layerId = "A2873047-0ED6-4C67-9B4D-3870B51BD5C6";
width = 600;
},
{
associatedMasterId = "0DA27741-1AFD-43F2-A947-40AFBF8D6498";
layerId = "55314CA7-5524-4D70-B802-98D4FAE25636";
width = 213;
},
{
associatedMasterId = "0DA27741-1AFD-43F2-A947-40AFBF8D6498";
layerId = "13A3DD5D-E91B-4961-8595-F8141D3FA442";
width = 538;
}
);
leftKerningGroup = n;
note = I;
rightKerningGroup = u;
unicode = 0049;
},
{
glyphname = J;
lastChange = "2019-01-04 09:23:02 +0000";
layers = (
{
layerId = "CAA188E2-8C62-414B-93AE-B576BEB044DB";
paths = (
{
closed = 1;
nodes = (
"358 212 LINE SMOOTH",
"358 157 OFFCURVE",
"360 115 OFFCURVE",
"335 71 CURVE SMOOTH",
"303 15 OFFCURVE",
"245 -14 OFFCURVE",
"179 -14 CURVE SMOOTH",
"92 -14 OFFCURVE",
"20 41 OFFCURVE",
"0 125 CURVE",
"43 135 LINE",
"56 78 OFFCURVE",
"110 28 OFFCURVE",
"177 28 CURVE SMOOTH",
"227 28 OFFCURVE",
"274 48 OFFCURVE",
"298 93 CURVE SMOOTH",
"316 127 OFFCURVE",
"316 158 OFFCURVE",
"316 212 CURVE SMOOTH",
"316 720 LINE",
"358 720 LINE"
);
}
);
width = 439;
},
{
layerId = "0DA27741-1AFD-43F2-A947-40AFBF8D6498";
paths = (
{
closed = 1;
nodes = (
"433 240 LINE SMOOTH",
"433 168 OFFCURVE",
"437 137 OFFCURVE",
"409 85 CURVE SMOOTH",
"367 16 OFFCURVE",
"305 -15 OFFCURVE",
"215 -15 CURVE SMOOTH",
"109 -15 OFFCURVE",
"29 50 OFFCURVE",
"0 148 CURVE",
"134 180 LINE",
"140 143 OFFCURVE",
"178 112 OFFCURVE",
"215 112 CURVE SMOOTH",
"241 112 OFFCURVE",
"276 127 OFFCURVE",
"287 156 CURVE SMOOTH",
"295 176 OFFCURVE",
"295 202 OFFCURVE",
"295 240 CURVE SMOOTH",
"295 720 LINE",
"433 720 LINE"
);
}
);
width = 513;
},
{
associatedMasterId = "0DA27741-1AFD-43F2-A947-40AFBF8D6498";
layerId = "A2873047-0ED6-4C67-9B4D-3870B51BD5C6";
width = 600;
},
{
associatedMasterId = "0DA27741-1AFD-43F2-A947-40AFBF8D6498";
layerId = "55314CA7-5524-4D70-B802-98D4FAE25636";
width = 415;
},
{
associatedMasterId = "0DA27741-1AFD-43F2-A947-40AFBF8D6498";
layerId = "13A3DD5D-E91B-4961-8595-F8141D3FA442";
width = 570;
}
);
leftKerningGroup = J;
note = J;
rightKerningGroup = J;
unicode = 004A;
},
{
glyphname = K;
lastChange = "2019-01-04 05:46:03 +0000";
layers = (
{
layerId = "CAA188E2-8C62-414B-93AE-B576BEB044DB";
paths = (
{
closed = 1;
nodes = (
"112 0 LINE",
"112 376 LINE",
"500 0 LINE",
"558 0 LINE",
"173 376 LINE",
"526 720 LINE",
"468 720 LINE",
"112 376 LINE",
"112 720 LINE",
"70 720 LINE",
"70 0 LINE"
);
}
);
width = 558;
},
{
layerId = "0DA27741-1AFD-43F2-A947-40AFBF8D6498";
paths = (
{
closed = 1;
nodes = (
"208 0 LINE",
"208 328 LINE",
"495 0 LINE",
"667 0 LINE",
"347 365 LINE",
"648 720 LINE",
"482 720 LINE",
"208 388 LINE",
"208 720 LINE",
"70 720 LINE",
"70 0 LINE"
);
}
);
width = 667;
},
{
associatedMasterId = "0DA27741-1AFD-43F2-A947-40AFBF8D6498";
layerId = "A2873047-0ED6-4C67-9B4D-3870B51BD5C6";
width = 600;
},
{
associatedMasterId = "0DA27741-1AFD-43F2-A947-40AFBF8D6498";
layerId = "55314CA7-5524-4D70-B802-98D4FAE25636";
width = 584;
},
{
associatedMasterId = "0DA27741-1AFD-43F2-A947-40AFBF8D6498";
layerId = "13A3DD5D-E91B-4961-8595-F8141D3FA442";
width = 597;
}
);
leftKerningGroup = H;
leftMetricsKey = H;
note = K;
rightKerningGroup = K;
unicode = 004B;
},
{
glyphname = L;
lastChange = "2018-07-10 05:49:09 +0000";
layers = (
{
layerId = "CAA188E2-8C62-414B-93AE-B576BEB044DB";
paths = (
{
closed = 1;
nodes = (
"122 42 LINE",
"480 42 LINE",
"480 0 LINE",
"80 0 LINE",
"80 720 LINE",
"122 720 LINE"
);
}
);
width = 495;
},
{
layerId = "0DA27741-1AFD-43F2-A947-40AFBF8D6498";
paths = (
{
closed = 1;
nodes = (
"216 127 LINE",
"526 127 LINE",
"526 0 LINE",
"80 0 LINE",
"80 720 LINE",
"216 720 LINE"
);
}
);
width = 541;
},
{
associatedMasterId = "0DA27741-1AFD-43F2-A947-40AFBF8D6498";
layerId = "A2873047-0ED6-4C67-9B4D-3870B51BD5C6";
width = 600;
},
{
associatedMasterId = "0DA27741-1AFD-43F2-A947-40AFBF8D6498";
layerId = "55314CA7-5524-4D70-B802-98D4FAE25636";
width = 431;
},
{
associatedMasterId = "0DA27741-1AFD-43F2-A947-40AFBF8D6498";
layerId = "13A3DD5D-E91B-4961-8595-F8141D3FA442";
width = 573;
}
);
note = L;
rightKerningGroup = L;
unicode = 004C;
},
{
glyphname = M;
lastChange = "2018-11-26 09:19:49 +0000";
layers = (
{
layerId = "CAA188E2-8C62-414B-93AE-B576BEB044DB";
paths = (
{
closed = 1;
nodes = (
"719 720 LINE",
"416 51 LINE",
"110 720 LINE",
"70 720 LINE",
"70 0 LINE",
"112 0 LINE",
"112 619 LINE",
"392 0 LINE",
"439 0 LINE",
"719 619 LINE",
"719 1 LINE",
"761 1 LINE",
"761 720 LINE"
);
}
);
width = 831;
},
{
layerId = "0DA27741-1AFD-43F2-A947-40AFBF8D6498";
paths = (
{
closed = 1;
nodes = (
"668 720 LINE",
"430 242 LINE",
"192 720 LINE",
"70 720 LINE",
"70 0 LINE",
"197 0 LINE",
"197 429 LINE",
"406 0 LINE",
"454 0 LINE",
"663 430 LINE",
"663 0 LINE",
"790 0 LINE",
"790 720 LINE"
);
}
);
width = 860;
},
{
associatedMasterId = "0DA27741-1AFD-43F2-A947-40AFBF8D6498";
layerId = "A2873047-0ED6-4C67-9B4D-3870B51BD5C6";
width = 600;
},
{
associatedMasterId = "0DA27741-1AFD-43F2-A947-40AFBF8D6498";
layerId = "55314CA7-5524-4D70-B802-98D4FAE25636";
width = 914;
},
{
associatedMasterId = "0DA27741-1AFD-43F2-A947-40AFBF8D6498";
layerId = "13A3DD5D-E91B-4961-8595-F8141D3FA442";
width = 650;
}
);
leftKerningGroup = M;
leftMetricsKey = H;
note = M;
rightKerningGroup = M;
rightMetricsKey = H;
unicode = 004D;
},
{
glyphname = N;
lastChange = "2018-08-24 13:51:22 +0000";
layers = (
{
layerId = "CAA188E2-8C62-414B-93AE-B576BEB044DB";
paths = (
{
closed = 1;
nodes = (
"70 720 LINE",
"70 0 LINE",
"112 0 LINE",
"112 646 LINE",
"550 0 LINE",
"592 0 LINE",
"592 720 LINE",
"550 720 LINE",
"550 75 LINE",
"112 720 LINE"
);
}
);
width = 662;
},
{
layerId = "0DA27741-1AFD-43F2-A947-40AFBF8D6498";
paths = (
{
closed = 1;
nodes = (
"70 720 LINE",
"70 0 LINE",
"208 0 LINE",
"208 480 LINE",
"521 0 LINE",
"659 0 LINE",
"659 720 LINE",
"521 720 LINE",
"521 240 LINE",
"208 720 LINE"
);
}
);
width = 729;
},
{
associatedMasterId = "0DA27741-1AFD-43F2-A947-40AFBF8D6498";
layerId = "A2873047-0ED6-4C67-9B4D-3870B51BD5C6";
width = 600;
},
{
associatedMasterId = "0DA27741-1AFD-43F2-A947-40AFBF8D6498";
layerId = "55314CA7-5524-4D70-B802-98D4FAE25636";
width = 725;
},
{
associatedMasterId = "0DA27741-1AFD-43F2-A947-40AFBF8D6498";
layerId = "13A3DD5D-E91B-4961-8595-F8141D3FA442";
width = 620;
}
);
leftKerningGroup = N;
leftMetricsKey = H;
note = N;
rightKerningGroup = N;
rightMetricsKey = H;
unicode = 004E;
},
{
glyphname = Eng;
lastChange = "2019-02-12 06:46:27 +0000";
layers = (
{
components = (
{
name = N;
}
);
layerId = "CAA188E2-8C62-414B-93AE-B576BEB044DB";
paths = (
{
closed = 1;
nodes = (
"495 -179 OFFCURVE",
"512 -181 OFFCURVE",
"540 -178 CURVE",
"570 -172 OFFCURVE",
"592 -152 OFFCURVE",
"592 -95 CURVE SMOOTH",
"592 1 LINE",
"485 96 LINE",
"524 39 LINE SMOOTH",
"542 12 OFFCURVE",
"550 -22 OFFCURVE",
"550 -55 CURVE SMOOTH",
"550 -126 OFFCURVE",
"540 -143 OFFCURVE",
"475 -133 CURVE",
"475 -174 LINE"
);
}
);
width = 662;
},
{
components = (
{
name = N;
}
);
layerId = "0DA27741-1AFD-43F2-A947-40AFBF8D6498";
paths = (
{
closed = 1;
nodes = (
"465 -238 OFFCURVE",
"513 -244 OFFCURVE",
"562 -234 CURVE SMOOTH",
"624 -221 OFFCURVE",
"659 -167 OFFCURVE",
"659 -88 CURVE SMOOTH",
"659 144 LINE",
"424 164 LINE",
"479 85 LINE SMOOTH",
"537 1 OFFCURVE",
"547 -50 OFFCURVE",
"547 -68 CURVE SMOOTH",
"547 -149 OFFCURVE",
"460 -132 OFFCURVE",
"429 -129 CURVE",
"429 -229 LINE"
);
}
);
width = 729;
},
{
associatedMasterId = "0DA27741-1AFD-43F2-A947-40AFBF8D6498";
layerId = "A2873047-0ED6-4C67-9B4D-3870B51BD5C6";
width = 600;
},
{
associatedMasterId = "0DA27741-1AFD-43F2-A947-40AFBF8D6498";
layerId = "55314CA7-5524-4D70-B802-98D4FAE25636";
width = 725;
},
{
associatedMasterId = "0DA27741-1AFD-43F2-A947-40AFBF8D6498";
layerId = "13A3DD5D-E91B-4961-8595-F8141D3FA442";
width = 620;
}
);
leftKerningGroup = N;
leftMetricsKey = N;
rightKerningGroup = N;
rightMetricsKey = N;
unicode = 014A;
},
{
glyphname = O;
lastChange = "2019-01-11 11:31:43 +0000";
layers = (
{
layerId = "CAA188E2-8C62-414B-93AE-B576BEB044DB";
paths = (
{
closed = 1;
nodes = (
"575 -15 OFFCURVE",
"688 143 OFFCURVE",
"686 360 CURVE SMOOTH",
"684 583 OFFCURVE",
"579 730 OFFCURVE",
"363 734 CURVE SMOOTH",
"158 738 OFFCURVE",
"38 579 OFFCURVE",
"40 360 CURVE SMOOTH",
"42 141 OFFCURVE",
"149 -15 OFFCURVE",
"363 -15 CURVE SMOOTH"
);
},
{
closed = 1;
nodes = (
"181 25 OFFCURVE",
"83 164 OFFCURVE",
"85 360 CURVE SMOOTH",
"87 558 OFFCURVE",
"175 690 OFFCURVE",
"363 692 CURVE SMOOTH",
"543 694 OFFCURVE",
"643 555 OFFCURVE",
"641 360 CURVE SMOOTH",
"639 163 OFFCURVE",
"551 29 OFFCURVE",
"363 27 CURVE SMOOTH"
);
}
);
width = 726;
},
{
layerId = "0DA27741-1AFD-43F2-A947-40AFBF8D6498";
paths = (
{
closed = 1;
nodes = (
"601 -15 OFFCURVE",
"734 135 OFFCURVE",
"738 360 CURVE SMOOTH",
"733 584 OFFCURVE",
"604 735 OFFCURVE",
"389 735 CURVE SMOOTH",
"173 735 OFFCURVE",
"40 578 OFFCURVE",
"40 360 CURVE SMOOTH",
"40 142 OFFCURVE",
"176 -15 OFFCURVE",
"389 -15 CURVE SMOOTH"
);
},
{
closed = 1;
nodes = (
"251 115 OFFCURVE",
"185 209 OFFCURVE",
"183 360 CURVE SMOOTH",
"181 504 OFFCURVE",
"254 609 OFFCURVE",
"389 607 CURVE SMOOTH",
"526 605 OFFCURVE",
"594 509 OFFCURVE",
"594 360 CURVE SMOOTH",
"594 215 OFFCURVE",
"526 111 OFFCURVE",
"389 113 CURVE SMOOTH"
);
}
);
width = 778;
},
{
associatedMasterId = "0DA27741-1AFD-43F2-A947-40AFBF8D6498";
layerId = "A2873047-0ED6-4C67-9B4D-3870B51BD5C6";
width = 600;
},
{
associatedMasterId = "0DA27741-1AFD-43F2-A947-40AFBF8D6498";
layerId = "55314CA7-5524-4D70-B802-98D4FAE25636";
width = 734;
},
{
associatedMasterId = "0DA27741-1AFD-43F2-A947-40AFBF8D6498";
layerId = "13A3DD5D-E91B-4961-8595-F8141D3FA442";
width = 621;
}
);
leftKerningGroup = O;
rightKerningGroup = O;
unicode = 004F;
},
{
glyphname = P;
lastChange = "2019-03-25 01:48:11 +0000";
layers = (
{
layerId = "CAA188E2-8C62-414B-93AE-B576BEB044DB";
paths = (
{
closed = 1;
nodes = (
"335 678 LINE SMOOTH",
"346 678 OFFCURVE",
"363 677 OFFCURVE",
"379 674 CURVE SMOOTH",
"462 658 OFFCURVE",
"506 585 OFFCURVE",
"506 504 CURVE SMOOTH",
"506 423 OFFCURVE",
"462 350 OFFCURVE",
"379 334 CURVE SMOOTH",
"363 331 OFFCURVE",
"346 330 OFFCURVE",
"335 330 CURVE SMOOTH",
"112 330 LINE",
"112 288 LINE",
"335 288 LINE SMOOTH",
"349 288 OFFCURVE",
"363 289 OFFCURVE",
"381 292 CURVE SMOOTH",
"485 308 OFFCURVE",
"551 396 OFFCURVE",
"551 504 CURVE SMOOTH",
"551 612 OFFCURVE",
"485 700 OFFCURVE",
"381 716 CURVE SMOOTH",
"363 719 OFFCURVE",
"349 720 OFFCURVE",
"335 720 CURVE SMOOTH",
"112 720 LINE",
"112 678 LINE"
);
},
{
closed = 1;
nodes = (
"112 0 LINE",
"112 720 LINE",
"70 720 LINE",
"70 0 LINE"
);
}
);
width = 581;
},
{
layerId = "0DA27741-1AFD-43F2-A947-40AFBF8D6498";
paths = (
{
closed = 1;
nodes = (
"368 593 LINE SMOOTH",
"382 593 OFFCURVE",
"400 592 OFFCURVE",
"414 588 CURVE SMOOTH",
"469 573 OFFCURVE",
"483 521 OFFCURVE",
"483 482 CURVE SMOOTH",
"483 443 OFFCURVE",
"469 391 OFFCURVE",
"414 376 CURVE SMOOTH",
"400 372 OFFCURVE",
"382 371 OFFCURVE",
"368 371 CURVE SMOOTH",
"186 371 LINE",
"186 244 LINE",
"374 244 LINE SMOOTH",
"387 244 OFFCURVE",
"415 245 OFFCURVE",
"434 248 CURVE SMOOTH",
"562 268 OFFCURVE",
"620 361 OFFCURVE",
"620 482 CURVE SMOOTH",
"620 603 OFFCURVE",
"563 696 OFFCURVE",
"434 716 CURVE SMOOTH",
"415 719 OFFCURVE",
"388 720 OFFCURVE",
"374 720 CURVE SMOOTH",
"186 720 LINE",
"186 593 LINE"
);
},
{
closed = 1;
nodes = (
"206 0 LINE",
"206 720 LINE",
"70 720 LINE",
"70 0 LINE"
);
}
);
width = 650;
},
{
associatedMasterId = "0DA27741-1AFD-43F2-A947-40AFBF8D6498";
layerId = "A2873047-0ED6-4C67-9B4D-3870B51BD5C6";
width = 600;
},
{
associatedMasterId = "0DA27741-1AFD-43F2-A947-40AFBF8D6498";
layerId = "55314CA7-5524-4D70-B802-98D4FAE25636";
width = 564;
},
{
associatedMasterId = "0DA27741-1AFD-43F2-A947-40AFBF8D6498";
layerId = "13A3DD5D-E91B-4961-8595-F8141D3FA442";
width = 594;
}
);
leftMetricsKey = H;
note = P;
unicode = 0050;
},
{
glyphname = Thorn;
lastChange = "2019-02-12 06:46:17 +0000";
layers = (
{
layerId = "CAA188E2-8C62-414B-93AE-B576BEB044DB";
paths = (
{
closed = 1;
nodes = (
"112 576 LINE",
"325 576 LINE SMOOTH",
"351 576 OFFCURVE",
"377 571 OFFCURVE",
"402 561 CURVE SMOOTH",
"428 551 OFFCURVE",
"453 535 OFFCURVE",
"473 516 CURVE SMOOTH",
"516 476 OFFCURVE",
"541 418 OFFCURVE",
"541 360 CURVE SMOOTH",
"541 306 OFFCURVE",
"519 254 OFFCURVE",
"484 215 CURVE",
"445 171 OFFCURVE",
"384 144 OFFCURVE",
"325 144 CURVE",
"112 144 LINE",
"112 186 LINE",
"325 186 LINE SMOOTH",
"374 186 OFFCURVE",
"423 210 OFFCURVE",
"455 248 CURVE",
"481 279 OFFCURVE",
"497 319 OFFCURVE",
"496 360 CURVE SMOOTH",
"495 407 OFFCURVE",
"476 452 OFFCURVE",
"443 485 CURVE SMOOTH",
"413 515 OFFCURVE",
"368 534 OFFCURVE",
"325 534 CURVE SMOOTH",
"112 534 LINE"
);
},
{
closed = 1;
nodes = (
"70 720 LINE",
"112 720 LINE",
"112 0 LINE",
"70 0 LINE"
);
}
);
width = 571;
},
{
layerId = "0DA27741-1AFD-43F2-A947-40AFBF8D6498";
paths = (
{
closed = 1;
nodes = (
"208 598 LINE",
"371 598 LINE SMOOTH",
"396 598 OFFCURVE",
"421 594 OFFCURVE",
"444 587 CURVE",
"492 572 OFFCURVE",
"535 542 OFFCURVE",
"564 501 CURVE",
"594 461 OFFCURVE",
"611 410 OFFCURVE",
"612 360 CURVE SMOOTH",
"613 310 OFFCURVE",
"594 259 OFFCURVE",
"564 219 CURVE",
"522 161 OFFCURVE",
"450 123 OFFCURVE",
"371 123 CURVE SMOOTH",
"208 123 LINE",
"208 250 LINE",
"370 250 LINE SMOOTH",
"397 250 OFFCURVE",
"431 266 OFFCURVE",
"452 294 CURVE SMOOTH",
"466 313 OFFCURVE",
"475 336 OFFCURVE",
"474 360 CURVE SMOOTH",
"473 386 OFFCURVE",
"465 412 OFFCURVE",
"448 431 CURVE SMOOTH",
"429 453 OFFCURVE",
"398 470 OFFCURVE",
"370 470 CURVE SMOOTH",
"208 470 LINE"
);
},
{
closed = 1;
nodes = (
"70 720 LINE",
"208 720 LINE",
"208 0 LINE",
"70 0 LINE"
);
}
);
width = 642;
},
{
associatedMasterId = "0DA27741-1AFD-43F2-A947-40AFBF8D6498";
layerId = "A2873047-0ED6-4C67-9B4D-3870B51BD5C6";
width = 600;
},
{
associatedMasterId = "0DA27741-1AFD-43F2-A947-40AFBF8D6498";
layerId = "55314CA7-5524-4D70-B802-98D4FAE25636";
width = 601;
},
{
associatedMasterId = "0DA27741-1AFD-43F2-A947-40AFBF8D6498";
layerId = "13A3DD5D-E91B-4961-8595-F8141D3FA442";
width = 600;
}
);
leftKerningGroup = P;
leftMetricsKey = P;
rightKerningGroup = P;
rightMetricsKey = P;
unicode = 00DE;
},
{
glyphname = Q;
lastChange = "2018-11-23 05:51:18 +0000";
layers = (
{
components = (
{
name = O;
}
);
layerId = "CAA188E2-8C62-414B-93AE-B576BEB044DB";
paths = (
{
closed = 1;
nodes = (
"487 201 LINE",
"454 168 LINE",
"637 -14 LINE",
"669 19 LINE"
);
}
);
width = 726;
},
{
components = (
{
name = O;
}
);
layerId = "0DA27741-1AFD-43F2-A947-40AFBF8D6498";
paths = (
{
closed = 1;
nodes = (
"507 278 LINE",
"423 194 LINE",
"633 -15 LINE",
"716 69 LINE"
);
}
);
width = 778;
},
{
associatedMasterId = "0DA27741-1AFD-43F2-A947-40AFBF8D6498";
layerId = "A2873047-0ED6-4C67-9B4D-3870B51BD5C6";
width = 600;
},
{
associatedMasterId = "0DA27741-1AFD-43F2-A947-40AFBF8D6498";
layerId = "55314CA7-5524-4D70-B802-98D4FAE25636";
width = 734;
},
{
associatedMasterId = "0DA27741-1AFD-43F2-A947-40AFBF8D6498";
layerId = "13A3DD5D-E91B-4961-8595-F8141D3FA442";
width = 621;
}
);
leftMetricsKey = O;
note = Q;
rightMetricsKey = O;
unicode = 0051;
},
{
glyphname = R;
lastChange = "2018-11-21 06:04:24 +0000";
layers = (
{
components = (
{
name = P;
}
);
layerId = "CAA188E2-8C62-414B-93AE-B576BEB044DB";
paths = (
{
closed = 1;
nodes = (
"415 320 LINE",
"379 293 LINE",
"521 0 LINE",
"571 0 LINE"
);
}
);
width = 591;
},
{
components = (
{
name = P;
}
);
layerId = "0DA27741-1AFD-43F2-A947-40AFBF8D6498";
paths = (
{
closed = 1;
nodes = (
"474 320 LINE",
"334 293 LINE",
"476 0 LINE",
"630 0 LINE"
);
}
);
width = 650;
},
{
associatedMasterId = "0DA27741-1AFD-43F2-A947-40AFBF8D6498";
layerId = "A2873047-0ED6-4C67-9B4D-3870B51BD5C6";
width = 600;
},
{
associatedMasterId = "0DA27741-1AFD-43F2-A947-40AFBF8D6498";
layerId = "55314CA7-5524-4D70-B802-98D4FAE25636";
width = 551;
},
{
associatedMasterId = "0DA27741-1AFD-43F2-A947-40AFBF8D6498";
layerId = "13A3DD5D-E91B-4961-8595-F8141D3FA442";
width = 592;
}
);
leftKerningGroup = P;
leftMetricsKey = H;
note = R;
rightKerningGroup = R;
unicode = 0052;
},
{
glyphname = S;
lastChange = "2019-02-20 05:47:45 +0000";
layers = (
{
layerId = "CAA188E2-8C62-414B-93AE-B576BEB044DB";
paths = (
{
closed = 1;
nodes = (
"543 613 OFFCURVE",
"497 663 OFFCURVE",
"445 696 CURVE SMOOTH",
"404 722 OFFCURVE",
"340 735 OFFCURVE",
"288 735 CURVE SMOOTH",
"243 735 OFFCURVE",
"192 725 OFFCURVE",
"151 701 CURVE SMOOTH",
"95 668 OFFCURVE",
"58 611 OFFCURVE",
"58 542 CURVE SMOOTH",
"58 501 OFFCURVE",
"73 463 OFFCURVE",
"106 433 CURVE SMOOTH",
"145 397 OFFCURVE",
"191 386 OFFCURVE",
"235 373 CURVE SMOOTH",
"366 334 LINE SMOOTH",
"412 320 OFFCURVE",
"455 308 OFFCURVE",
"485 277 CURVE SMOOTH",
"508 254 OFFCURVE",
"518 221 OFFCURVE",
"518 191 CURVE SMOOTH",
"518 134 OFFCURVE",
"494 95 OFFCURVE",
"455 67 CURVE SMOOTH",
"417 39 OFFCURVE",
"360 27 OFFCURVE",
"306 27 CURVE SMOOTH",
"232 27 OFFCURVE",
"176 49 OFFCURVE",
"131 89 CURVE SMOOTH",
"97 119 OFFCURVE",
"81 153 OFFCURVE",
"72 187 CURVE",
"30 179 LINE",
"38 141 OFFCURVE",
"57 101 OFFCURVE",
"88 68 CURVE SMOOTH",
"148 6 OFFCURVE",
"232 -15 OFFCURVE",
"305 -15 CURVE SMOOTH",
"378 -15 OFFCURVE",
"433 -1 OFFCURVE",
"482 33 CURVE SMOOTH",
"531 67 OFFCURVE",
"559 124 OFFCURVE",
"559 191 CURVE SMOOTH",
"559 238 OFFCURVE",
"547 275 OFFCURVE",
"513 309 CURVE SMOOTH",
"477 344 OFFCURVE",
"425 362 OFFCURVE",
"378 376 CURVE SMOOTH",
"247 415 LINE SMOOTH",
"201 429 OFFCURVE",
"165 442 OFFCURVE",
"135 468 CURVE SMOOTH",
"111 489 OFFCURVE",
"103 523 OFFCURVE",
"103 545 CURVE SMOOTH",
"103 604 OFFCURVE",
"139 641 OFFCURVE",
"173 663 CURVE SMOOTH",
"206 684 OFFCURVE",
"248 693 OFFCURVE",
"289 693 CURVE SMOOTH",
"332 693 OFFCURVE",
"382 681 OFFCURVE",
"416 662 CURVE SMOOTH",
"466 634 OFFCURVE",
"503 590 OFFCURVE",
"514 517 CURVE",
"556 525 LINE"
);
}
);
width = 589;
},
{
layerId = "0DA27741-1AFD-43F2-A947-40AFBF8D6498";
paths = (
{
closed = 1;
nodes = (
"593 612 OFFCURVE",
"539 667 OFFCURVE",
"478 700 CURVE SMOOTH",
"430 726 OFFCURVE",
"376 734 OFFCURVE",
"327 735 CURVE SMOOTH",
"260 735 OFFCURVE",
"192 721 OFFCURVE",
"140 683 CURVE SMOOTH",
"91 647 OFFCURVE",
"58 590 OFFCURVE",
"58 524 CURVE SMOOTH",
"58 471 OFFCURVE",
"70 425 OFFCURVE",
"110 387 CURVE SMOOTH",
"145 353 OFFCURVE",
"195 338 OFFCURVE",
"258 320 CURVE SMOOTH",
"392 281 LINE SMOOTH",
"420 273 OFFCURVE",
"440 266 OFFCURVE",
"456 252 CURVE SMOOTH",
"471 239 OFFCURVE",
"478 221 OFFCURVE",
"478 202 CURVE SMOOTH",
"478 182 OFFCURVE",
"468 160 OFFCURVE",
"445 142 CURVE SMOOTH",
"419 122 OFFCURVE",
"375 112 OFFCURVE",
"337 112 CURVE SMOOTH",
"289 112 OFFCURVE",
"243 133 OFFCURVE",
"212 165 CURVE SMOOTH",
"190 187 OFFCURVE",
"177 220 OFFCURVE",
"172 241 CURVE",
"30 220 LINE",
"37 174 OFFCURVE",
"54 126 OFFCURVE",
"93 82 CURVE SMOOTH",
"155 13 OFFCURVE",
"236 -15 OFFCURVE",
"332 -15 CURVE SMOOTH",
"414 -15 OFFCURVE",
"488 2 OFFCURVE",
"547 54 CURVE SMOOTH",
"591 93 OFFCURVE",
"621 143 OFFCURVE",
"621 198 CURVE SMOOTH",
"621 261 OFFCURVE",
"612 301 OFFCURVE",
"573 342 CURVE SMOOTH",
"546 371 OFFCURVE",
"487 397 OFFCURVE",
"422 415 CURVE SMOOTH",
"297 449 LINE SMOOTH",
"258 460 OFFCURVE",
"228 473 OFFCURVE",
"215 488 CURVE SMOOTH",
"204 500 OFFCURVE",
"201 514 OFFCURVE",
"201 528 CURVE SMOOTH",
"201 552 OFFCURVE",
"218 574 OFFCURVE",
"240 587 CURVE SMOOTH",
"262 600 OFFCURVE",
"291 608 OFFCURVE",
"325 607 CURVE SMOOTH",
"358 607 OFFCURVE",
"387 596 OFFCURVE",
"410 581 CURVE SMOOTH",
"438 562 OFFCURVE",
"461 531 OFFCURVE",
"468 498 CURVE",
"615 523 LINE"
);
}
);
width = 651;
},
{
associatedMasterId = "0DA27741-1AFD-43F2-A947-40AFBF8D6498";
layerId = "A2873047-0ED6-4C67-9B4D-3870B51BD5C6";
width = 600;
},
{
associatedMasterId = "0DA27741-1AFD-43F2-A947-40AFBF8D6498";
layerId = "55314CA7-5524-4D70-B802-98D4FAE25636";
width = 616;
},
{
associatedMasterId = "0DA27741-1AFD-43F2-A947-40AFBF8D6498";
layerId = "13A3DD5D-E91B-4961-8595-F8141D3FA442";
width = 603;
}
);
leftKerningGroup = S;
note = S;
rightKerningGroup = S;
unicode = 0053;
},
{
glyphname = Germandbls;
lastChange = "2019-03-25 06:39:40 +0000";
layers = (
{
layerId = "0DA27741-1AFD-43F2-A947-40AFBF8D6498";
paths = (
{
closed = 1;
nodes = (
"207 0 LINE",
"207 463 LINE SMOOTH",
"207 502 OFFCURVE",
"209 531 OFFCURVE",
"224 557 CURVE SMOOTH",
"243 590 OFFCURVE",
"275 608 OFFCURVE",
"309 608 CURVE SMOOTH",
"360 608 OFFCURVE",
"392 584 OFFCURVE",
"403 545 CURVE",
"283 411 LINE",
"325 307 LINE",
"396 320 OFFCURVE",
"448 276 OFFCURVE",
"448 219 CURVE SMOOTH",
"448 152 OFFCURVE",
"403 118 OFFCURVE",
"336 118 CURVE SMOOTH",
"305 118 OFFCURVE",
"280 126 OFFCURVE",
"263 133 CURVE",
"263 0 LINE",
"286 -10 OFFCURVE",
"312 -15 OFFCURVE",
"356 -15 CURVE SMOOTH",
"504 -15 OFFCURVE",
"587 76 OFFCURVE",
"587 214 CURVE SMOOTH",
"587 338 OFFCURVE",
"527 398 OFFCURVE",
"437 425 CURVE",
"545 545 LINE",
"524 657 OFFCURVE",
"438 735 OFFCURVE",
"309 735 CURVE SMOOTH",
"192 735 OFFCURVE",
"116 682 OFFCURVE",
"85 586 CURVE SMOOTH",
"73 549 OFFCURVE",
"70 505 OFFCURVE",
"70 460 CURVE SMOOTH",
"70 0 LINE"
);
}
);
width = 647;
},
{
layerId = "CAA188E2-8C62-414B-93AE-B576BEB044DB";
paths = (
{
closed = 1;
nodes = (
"116 0 LINE",
"116 491 LINE SMOOTH",
"116 535 OFFCURVE",
"118 577 OFFCURVE",
"131 608 CURVE SMOOTH",
"155 666 OFFCURVE",
"204 693 OFFCURVE",
"254 693 CURVE SMOOTH",
"315 693 OFFCURVE",
"369 656 OFFCURVE",
"385 592 CURVE",
"213 413 LINE",
"224 364 LINE",
"388 410 OFFCURVE",
"470 309 OFFCURVE",
"470 209 CURVE SMOOTH",
"470 95 OFFCURVE",
"411 29 OFFCURVE",
"299 29 CURVE SMOOTH",
"265 29 OFFCURVE",
"235 33 OFFCURVE",
"200 42 CURVE",
"200 0 LINE",
"229 -9 OFFCURVE",
"258 -15 OFFCURVE",
"297 -15 CURVE SMOOTH",
"443 -15 OFFCURVE",
"515 74 OFFCURVE",
"515 209 CURVE SMOOTH",
"515 341 OFFCURVE",
"402 447 OFFCURVE",
"275 418 CURVE",
"432 576 LINE",
"421 669 OFFCURVE",
"352 735 OFFCURVE",
"254 735 CURVE SMOOTH",
"177 735 OFFCURVE",
"122 700 OFFCURVE",
"90 631 CURVE SMOOTH",
"75 599 OFFCURVE",
"70 556 OFFCURVE",
"70 512 CURVE SMOOTH",
"70 0 LINE"
);
}
);
width = 575;
}
);
leftKerningGroup = b;
leftMetricsKey = b;
rightKerningGroup = b;
rightMetricsKey = n;
unicode = 1E9E;
},
{
glyphname = T;
lastChange = "2018-07-29 15:14:04 +0000";
layers = (
{
layerId = "CAA188E2-8C62-414B-93AE-B576BEB044DB";
paths = (
{
closed = 1;
nodes = (
"274 0 LINE",
"316 0 LINE",
"316 700 LINE",
"274 700 LINE"
);
},
{
closed = 1;
nodes = (
"10 678 LINE",
"580 678 LINE",
"580 720 LINE",
"10 720 LINE"
);
}
);
width = 590;
},
{
layerId = "0DA27741-1AFD-43F2-A947-40AFBF8D6498";
paths = (
{
closed = 1;
nodes = (
"237 0 LINE",
"373 0 LINE",
"373 660 LINE",
"237 660 LINE"
);
},
{
closed = 1;
nodes = (
"10 593 LINE",
"600 593 LINE",
"600 720 LINE",
"10 720 LINE"
);
}
);
width = 610;
},
{
associatedMasterId = "0DA27741-1AFD-43F2-A947-40AFBF8D6498";
layerId = "A2873047-0ED6-4C67-9B4D-3870B51BD5C6";
width = 600;
},
{
associatedMasterId = "0DA27741-1AFD-43F2-A947-40AFBF8D6498";
layerId = "55314CA7-5524-4D70-B802-98D4FAE25636";
width = 513;
},
{
associatedMasterId = "0DA27741-1AFD-43F2-A947-40AFBF8D6498";
layerId = "13A3DD5D-E91B-4961-8595-F8141D3FA442";
width = 586;
}
);
leftKerningGroup = T;
note = T;
rightKerningGroup = T;
unicode = 0054;
},
{
glyphname = Tbar;
lastChange = "2019-02-12 06:46:27 +0000";
layers = (
{
components = (
{
name = T;
}
);
layerId = "CAA188E2-8C62-414B-93AE-B576BEB044DB";
paths = (
{
closed = 1;
nodes = (
"85 339 LINE",
"505 339 LINE",
"505 381 LINE",
"85 381 LINE"
);
}
);
width = 590;
},
{
components = (
{
name = T;
}
);
layerId = "0DA27741-1AFD-43F2-A947-40AFBF8D6498";
paths = (
{
closed = 1;
nodes = (
"65 292 LINE",
"545 292 LINE",
"545 428 LINE",
"65 428 LINE"
);
}
);
width = 610;
},
{
associatedMasterId = "0DA27741-1AFD-43F2-A947-40AFBF8D6498";
layerId = "A2873047-0ED6-4C67-9B4D-3870B51BD5C6";
width = 600;
},
{
associatedMasterId = "0DA27741-1AFD-43F2-A947-40AFBF8D6498";
layerId = "55314CA7-5524-4D70-B802-98D4FAE25636";
width = 513;
},
{
associatedMasterId = "0DA27741-1AFD-43F2-A947-40AFBF8D6498";
layerId = "13A3DD5D-E91B-4961-8595-F8141D3FA442";
width = 586;
}
);
leftKerningGroup = X;
leftMetricsKey = T;
rightKerningGroup = X;
rightMetricsKey = T;
unicode = 0166;
},
{
glyphname = Tcedilla;
lastChange = "2019-02-12 06:46:27 +0000";
layers = (
{
components = (
{
name = T;
}
);
layerId = "CAA188E2-8C62-414B-93AE-B576BEB044DB";
paths = (
{
closed = 1;
nodes = (
"325 -94 OFFCURVE",
"307 -79 OFFCURVE",
"288 -71 CURVE",
"316 0 LINE",
"274 0 LINE",
"237 -96 LINE",
"269 -107 OFFCURVE",
"289 -112 OFFCURVE",
"299 -133 CURVE",
"307 -148 OFFCURVE",
"305 -164 OFFCURVE",
"296 -178 CURVE",
"288 -192 OFFCURVE",
"273 -199 OFFCURVE",
"254 -198 CURVE",
"242 -197 OFFCURVE",
"228 -193 OFFCURVE",
"214 -188 CURVE",
"200 -225 LINE",
"216 -232 OFFCURVE",
"233 -238 OFFCURVE",
"252 -239 CURVE",
"281 -242 OFFCURVE",
"315 -228 OFFCURVE",
"331 -202 CURVE",
"349 -177 OFFCURVE",
"351 -140 OFFCURVE",
"336 -114 CURVE"
);
}
);
width = 590;
},
{
components = (
{
name = T;
}
);
layerId = "0DA27741-1AFD-43F2-A947-40AFBF8D6498";
paths = (
{
closed = 1;
nodes = (
"370 -59 OFFCURVE",
"352 -45 OFFCURVE",
"334 -36 CURVE",
"352 18 LINE",
"273 17 LINE",
"238 -85 LINE",
"270 -94 OFFCURVE",
"297 -101 OFFCURVE",
"302 -122 CURVE SMOOTH",
"304 -130 OFFCURVE",
"302 -135 OFFCURVE",
"298 -141 CURVE SMOOTH",
"294 -147 OFFCURVE",
"285 -151 OFFCURVE",
"275 -151 CURVE SMOOTH",
"267 -151 OFFCURVE",
"258 -149 OFFCURVE",
"245 -145 CURVE",
"216 -223 LINE",
"233 -232 OFFCURVE",
"252 -239 OFFCURVE",
"274 -241 CURVE",
"316 -246 OFFCURVE",
"353 -228 OFFCURVE",
"377 -194 CURVE",
"399 -162 OFFCURVE",
"402 -113 OFFCURVE",
"382 -79 CURVE"
);
}
);
width = 610;
},
{
associatedMasterId = "0DA27741-1AFD-43F2-A947-40AFBF8D6498";
layerId = "A2873047-0ED6-4C67-9B4D-3870B51BD5C6";
width = 600;
},
{
associatedMasterId = "0DA27741-1AFD-43F2-A947-40AFBF8D6498";
layerId = "55314CA7-5524-4D70-B802-98D4FAE25636";
width = 513;
},
{
associatedMasterId = "0DA27741-1AFD-43F2-A947-40AFBF8D6498";
layerId = "13A3DD5D-E91B-4961-8595-F8141D3FA442";
width = 586;
}
);
leftKerningGroup = T;
leftMetricsKey = T;
rightKerningGroup = T;
rightMetricsKey = T;
unicode = 0162;
},
{
glyphname = U;
lastChange = "2019-03-15 07:56:25 +0000";
layers = (
{
layerId = "CAA188E2-8C62-414B-93AE-B576BEB044DB";
paths = (
{
closed = 1;
nodes = (
"578 720 LINE",
"578 305 LINE SMOOTH",
"578 262 OFFCURVE",
"576 226 OFFCURVE",
"568 193 CURVE SMOOTH",
"545 97 OFFCURVE",
"451 24 OFFCURVE",
"345 24 CURVE SMOOTH",
"239 24 OFFCURVE",
"141 93 OFFCURVE",
"118 194 CURVE SMOOTH",
"111 225 OFFCURVE",
"112 263 OFFCURVE",
"112 305 CURVE SMOOTH",
"112 720 LINE",
"70 720 LINE",
"70 253 LINE SMOOTH",
"70 229 OFFCURVE",
"74 198 OFFCURVE",
"82 170 CURVE SMOOTH",
"113 60 OFFCURVE",
"217 -17 OFFCURVE",
"345 -15 CURVE SMOOTH",
"468 -13 OFFCURVE",
"563 47 OFFCURVE",
"604 163 CURVE SMOOTH",
"614 191 OFFCURVE",
"620 227 OFFCURVE",
"620 253 CURVE SMOOTH",
"620 720 LINE"
);
}
);
width = 690;
},
{
layerId = "0DA27741-1AFD-43F2-A947-40AFBF8D6498";
paths = (
{
closed = 1;
nodes = (
"518 720 LINE",
"518 272 LINE SMOOTH",
"518 257 OFFCURVE",
"517 244 OFFCURVE",
"514 230 CURVE SMOOTH",
"498 165 OFFCURVE",
"438 113 OFFCURVE",
"364 113 CURVE SMOOTH",
"293 113 OFFCURVE",
"232 158 OFFCURVE",
"214 222 CURVE SMOOTH",
"209 240 OFFCURVE",
"208 256 OFFCURVE",
"208 272 CURVE SMOOTH",
"208 720 LINE",
"70 719 LINE",
"70 270 LINE SMOOTH",
"70 251 OFFCURVE",
"72 221 OFFCURVE",
"77 198 CURVE SMOOTH",
"105 60 OFFCURVE",
"218 -15 OFFCURVE",
"364 -15 CURVE SMOOTH",
"508 -15 OFFCURVE",
"620 64 OFFCURVE",
"649 200 CURVE SMOOTH",
"654 223 OFFCURVE",
"656 246 OFFCURVE",
"656 270 CURVE SMOOTH",
"656 720 LINE"
);
}
);
width = 726;
},
{
associatedMasterId = "0DA27741-1AFD-43F2-A947-40AFBF8D6498";
layerId = "A2873047-0ED6-4C67-9B4D-3870B51BD5C6";
width = 600;
},
{
associatedMasterId = "0DA27741-1AFD-43F2-A947-40AFBF8D6498";
layerId = "55314CA7-5524-4D70-B802-98D4FAE25636";
width = 725;
},
{
associatedMasterId = "0DA27741-1AFD-43F2-A947-40AFBF8D6498";
layerId = "13A3DD5D-E91B-4961-8595-F8141D3FA442";
width = 620;
}
);
leftKerningGroup = U;
leftMetricsKey = H;
note = U;
rightKerningGroup = U;
rightMetricsKey = H;
unicode = 0055;
},
{
glyphname = Uogonek;
lastChange = "2019-02-12 06:46:27 +0000";
layers = (
{
components = (
{
name = U;
}
);
layerId = "CAA188E2-8C62-414B-93AE-B576BEB044DB";
paths = (
{
closed = 1;
nodes = (
"464 33 LINE",
"443 9 OFFCURVE",
"426 -10 OFFCURVE",
"407 -37 CURVE SMOOTH",
"388 -64 OFFCURVE",
"372 -94 OFFCURVE",
"363 -123 CURVE",
"353 -159 OFFCURVE",
"358 -191 OFFCURVE",
"382 -215 CURVE",
"403 -239 OFFCURVE",
"442 -247 OFFCURVE",
"478 -232 CURVE",
"496 -224 OFFCURVE",
"511 -213 OFFCURVE",
"523 -201 CURVE",
"497 -172 LINE",
"473 -194 OFFCURVE",
"438 -212 OFFCURVE",
"411 -185 CURVE SMOOTH",
"398 -172 OFFCURVE",
"397 -153 OFFCURVE",
"403 -134 CURVE",
"410 -108 OFFCURVE",
"427 -78 OFFCURVE",
"446 -49 CURVE SMOOTH",
"465 -20 OFFCURVE",
"493 6 OFFCURVE",
"546 69 CURVE"
);
}
);
width = 690;
},
{
components = (
{
name = U;
}
);
layerId = "0DA27741-1AFD-43F2-A947-40AFBF8D6498";
paths = (
{
closed = 1;
nodes = (
"464 66 LINE",
"427 53 OFFCURVE",
"393 32 OFFCURVE",
"366 5 CURVE SMOOTH",
"346 -15 OFFCURVE",
"330 -37 OFFCURVE",
"319 -62 CURVE",
"300 -109 OFFCURVE",
"306 -163 OFFCURVE",
"334 -195 CURVE",
"366 -236 OFFCURVE",
"424 -253 OFFCURVE",
"470 -230 CURVE",
"492 -220 OFFCURVE",
"508 -205 OFFCURVE",
"518 -187 CURVE",
"471 -125 LINE",
"455 -138 OFFCURVE",
"427 -146 OFFCURVE",
"417 -131 CURVE",
"407 -121 OFFCURVE",
"413 -103 OFFCURVE",
"415 -98 CURVE",
"423 -80 OFFCURVE",
"436 -63 OFFCURVE",
"450 -45 CURVE SMOOTH",
"464 -27 OFFCURVE",
"502 5 OFFCURVE",
"555 50 CURVE"
);
}
);
width = 726;
},
{
associatedMasterId = "0DA27741-1AFD-43F2-A947-40AFBF8D6498";
layerId = "A2873047-0ED6-4C67-9B4D-3870B51BD5C6";
width = 600;
},
{
associatedMasterId = "0DA27741-1AFD-43F2-A947-40AFBF8D6498";
layerId = "55314CA7-5524-4D70-B802-98D4FAE25636";
width = 725;
},
{
associatedMasterId = "0DA27741-1AFD-43F2-A947-40AFBF8D6498";
layerId = "13A3DD5D-E91B-4961-8595-F8141D3FA442";
width = 620;
}
);
leftKerningGroup = U;
leftMetricsKey = U;
rightKerningGroup = U;
rightMetricsKey = U;
unicode = 0172;
},
{
glyphname = V;
lastChange = "2018-03-21 05:39:08 +0000";
layers = (
{
layerId = "CAA188E2-8C62-414B-93AE-B576BEB044DB";
paths = (
{
closed = 1;
nodes = (
"312 0 LINE",
"574 720 LINE",
"529 720 LINE",
"289 61 LINE",
"50 720 LINE",
"5 720 LINE",
"267 0 LINE"
);
}
);
width = 579;
},
{
layerId = "0DA27741-1AFD-43F2-A947-40AFBF8D6498";
paths = (
{
closed = 1;
nodes = (
"428 0 LINE",
"648 720 LINE",
"508 720 LINE",
"325 128 LINE",
"145 720 LINE",
"5 720 LINE",
"225 0 LINE"
);
}
);
width = 653;
},
{
associatedMasterId = "0DA27741-1AFD-43F2-A947-40AFBF8D6498";
layerId = "A2873047-0ED6-4C67-9B4D-3870B51BD5C6";
width = 600;
},
{
associatedMasterId = "0DA27741-1AFD-43F2-A947-40AFBF8D6498";
layerId = "55314CA7-5524-4D70-B802-98D4FAE25636";
width = 623;
},
{
associatedMasterId = "0DA27741-1AFD-43F2-A947-40AFBF8D6498";
layerId = "13A3DD5D-E91B-4961-8595-F8141D3FA442";
width = 604;
}
);
leftKerningGroup = V;
note = V;
rightKerningGroup = V;
unicode = 0056;
},
{
glyphname = W;
lastChange = "2018-07-13 06:53:09 +0000";
layers = (
{
layerId = "CAA188E2-8C62-414B-93AE-B576BEB044DB";
paths = (
{
closed = 1;
nodes = (
"661 76 LINE",
"476 720 LINE",
"432 720 LINE",
"248 76 LINE",
"63 720 LINE",
"20 720 LINE",
"226 0 LINE",
"270 0 LINE",
"454 643 LINE",
"639 0 LINE",
"683 0 LINE",
"889 720 LINE",
"845 720 LINE"
);
}
);
width = 909;
},
{
layerId = "0DA27741-1AFD-43F2-A947-40AFBF8D6498";
paths = (
{
closed = 1;
nodes = (
"700 225 LINE",
"565 720 LINE",
"422 719 LINE",
"288 225 LINE",
"153 720 LINE",
"10 720 LINE",
"221 0 LINE",
"355 0 LINE",
"494 486 LINE",
"634 0 LINE",
"768 0 LINE",
"979 720 LINE",
"836 720 LINE"
);
}
);
width = 989;
},
{
associatedMasterId = "0DA27741-1AFD-43F2-A947-40AFBF8D6498";
layerId = "A2873047-0ED6-4C67-9B4D-3870B51BD5C6";
width = 600;
},
{
associatedMasterId = "0DA27741-1AFD-43F2-A947-40AFBF8D6498";
layerId = "55314CA7-5524-4D70-B802-98D4FAE25636";
width = 906;
},
{
associatedMasterId = "0DA27741-1AFD-43F2-A947-40AFBF8D6498";
layerId = "13A3DD5D-E91B-4961-8595-F8141D3FA442";
width = 649;
}
);
leftKerningGroup = W;
note = W;
rightKerningGroup = W;
unicode = 0057;
},
{
glyphname = X;
lastChange = "2018-11-28 01:15:08 +0000";
layers = (
{
layerId = "CAA188E2-8C62-414B-93AE-B576BEB044DB";
paths = (
{
closed = 1;
nodes = (
"557 720 LINE",
"507 720 LINE",
"286 399 LINE",
"66 720 LINE",
"16 720 LINE",
"263 365 LINE",
"10 0 LINE",
"60 0 LINE",
"286 330 LINE",
"513 0 LINE",
"563 0 LINE",
"310 365 LINE"
);
}
);
width = 573;
},
{
layerId = "0DA27741-1AFD-43F2-A947-40AFBF8D6498";
paths = (
{
closed = 1;
nodes = (
"656 720 LINE",
"488 720 LINE",
"337 480 LINE",
"184 720 LINE",
"17 720 LINE",
"252 364 LINE",
"10 0 LINE",
"178 0 LINE",
"337 248 LINE",
"495 0 LINE",
"662 0 LINE",
"421 364 LINE"
);
}
);
width = 672;
},
{
associatedMasterId = "0DA27741-1AFD-43F2-A947-40AFBF8D6498";
layerId = "A2873047-0ED6-4C67-9B4D-3870B51BD5C6";
width = 600;
},
{
associatedMasterId = "0DA27741-1AFD-43F2-A947-40AFBF8D6498";
layerId = "55314CA7-5524-4D70-B802-98D4FAE25636";
width = 766;
},
{
associatedMasterId = "0DA27741-1AFD-43F2-A947-40AFBF8D6498";
layerId = "13A3DD5D-E91B-4961-8595-F8141D3FA442";
width = 627;
}
);
leftKerningGroup = X;
note = X;
rightKerningGroup = X;
unicode = 0058;
},
{
glyphname = Y;
lastChange = "2018-07-29 15:13:39 +0000";
layers = (
{
layerId = "CAA188E2-8C62-414B-93AE-B576BEB044DB";
paths = (
{
closed = 1;
nodes = (
"260 354 LINE",
"48 720 LINE",
"0 720 LINE",
"239 306 LINE",
"239 0 LINE",
"281 0 LINE",
"281 306 LINE",
"519 720 LINE",
"471 720 LINE"
);
}
);
width = 519;
},
{
layerId = "0DA27741-1AFD-43F2-A947-40AFBF8D6498";
paths = (
{
closed = 1;
nodes = (
"315 449 LINE",
"159 720 LINE",
"0 720 LINE",
"246 293 LINE",
"246 0 LINE",
"384 0 LINE",
"384 293 LINE",
"630 720 LINE",
"471 720 LINE"
);
}
);
width = 630;
},
{
associatedMasterId = "0DA27741-1AFD-43F2-A947-40AFBF8D6498";
layerId = "A2873047-0ED6-4C67-9B4D-3870B51BD5C6";
width = 600;
},
{
associatedMasterId = "0DA27741-1AFD-43F2-A947-40AFBF8D6498";
layerId = "55314CA7-5524-4D70-B802-98D4FAE25636";
width = 569;
},
{
associatedMasterId = "0DA27741-1AFD-43F2-A947-40AFBF8D6498";
layerId = "13A3DD5D-E91B-4961-8595-F8141D3FA442";
width = 595;
}
);
leftKerningGroup = Y;
note = Y;
rightKerningGroup = Y;
unicode = 0059;
},
{
glyphname = Z;
lastChange = "2019-03-25 03:14:42 +0000";
layers = (
{
layerId = "CAA188E2-8C62-414B-93AE-B576BEB044DB";
paths = (
{
closed = 1;
nodes = (
"531 703 LINE",
"531 720 LINE",
"50 720 LINE",
"50 678 LINE",
"469 678 LINE",
"50 15 LINE",
"50 0 LINE",
"531 0 LINE",
"531 41 LINE",
"114 41 LINE"
);
}
);
width = 581;
},
{
layerId = "0DA27741-1AFD-43F2-A947-40AFBF8D6498";
paths = (
{
closed = 1;
nodes = (
"630 703 LINE",
"630 720 LINE",
"80 720 LINE",
"80 593 LINE",
"392 593 LINE",
"50 17 LINE",
"50 0 LINE",
"620 0 LINE",
"620 128 LINE",
"290 128 LINE"
);
}
);
width = 680;
},
{
associatedMasterId = "0DA27741-1AFD-43F2-A947-40AFBF8D6498";
layerId = "A2873047-0ED6-4C67-9B4D-3870B51BD5C6";
width = 600;
},
{
associatedMasterId = "0DA27741-1AFD-43F2-A947-40AFBF8D6498";
layerId = "55314CA7-5524-4D70-B802-98D4FAE25636";
width = 600;
},
{
associatedMasterId = "0DA27741-1AFD-43F2-A947-40AFBF8D6498";
layerId = "13A3DD5D-E91B-4961-8595-F8141D3FA442";
width = 600;
}
);
leftKerningGroup = Z;
note = Z;
rightKerningGroup = Z;
unicode = 005A;
},
{
glyphname = a;
lastChange = "2019-03-04 02:23:06 +0000";
layers = (
{
layerId = "CAA188E2-8C62-414B-93AE-B576BEB044DB";
paths = (
{
closed = 1;
nodes = (
"482 338 LINE",
"482 366 OFFCURVE",
"480 391 OFFCURVE",
"473 417 CURVE SMOOTH",
"449 504 OFFCURVE",
"383 555 OFFCURVE",
"283 555 CURVE SMOOTH",
"168 555 OFFCURVE",
"83 510 OFFCURVE",
"61 411 CURVE",
"105 397 LINE",
"127 482 OFFCURVE",
"191 513 OFFCURVE",
"280 513 CURVE SMOOTH",
"386 513 OFFCURVE",
"440 448 OFFCURVE",
"440 332 CURVE",
"338 319 OFFCURVE",
"254 312 OFFCURVE",
"176 294 CURVE SMOOTH",
"78 271 OFFCURVE",
"40 213 OFFCURVE",
"40 146 CURVE SMOOTH",
"40 46 OFFCURVE",
"117 -15 OFFCURVE",
"217 -15 CURVE SMOOTH",
"314 -15 OFFCURVE",
"398 18 OFFCURVE",
"443 98 CURVE",
"443 0 LINE",
"482 0 LINE"
);
},
{
closed = 1;
nodes = (
"380 61 OFFCURVE",
"309 27 OFFCURVE",
"218 27 CURVE SMOOTH",
"140 27 OFFCURVE",
"84 70 OFFCURVE",
"84 146 CURVE SMOOTH",
"84 202 OFFCURVE",
"125 238 OFFCURVE",
"190 256 CURVE SMOOTH",
"264 277 OFFCURVE",
"344 281 OFFCURVE",
"440 291 CURVE",
"440 251 OFFCURVE",
"439 181 OFFCURVE",
"416 134 CURVE"
);
}
);
width = 542;
},
{
layerId = "0DA27741-1AFD-43F2-A947-40AFBF8D6498";
paths = (
{
closed = 1;
nodes = (
"523 322 LINE",
"523 359 OFFCURVE",
"520 392 OFFCURVE",
"511 420 CURVE SMOOTH",
"482 509 OFFCURVE",
"407 555 OFFCURVE",
"294 555 CURVE SMOOTH",
"174 555 OFFCURVE",
"95 484 OFFCURVE",
"59 402 CURVE",
"181 365 LINE",
"200 410 OFFCURVE",
"243 431 OFFCURVE",
"290 431 CURVE SMOOTH",
"337 431 OFFCURVE",
"381 412 OFFCURVE",
"388 357 CURVE",
"300 344 OFFCURVE",
"207 334 OFFCURVE",
"137 303 CURVE SMOOTH",
"81 278 OFFCURVE",
"40 233 OFFCURVE",
"40 154 CURVE SMOOTH",
"40 53 OFFCURVE",
"109 -15 OFFCURVE",
"218 -15 CURVE SMOOTH",
"310 -15 OFFCURVE",
"357 12 OFFCURVE",
"404 66 CURVE",
"404 0 LINE",
"523 0 LINE"
);
},
{
closed = 1;
nodes = (
"348 120 OFFCURVE",
"300 91 OFFCURVE",
"250 91 CURVE SMOOTH",
"197 91 OFFCURVE",
"173 122 OFFCURVE",
"173 151 CURVE SMOOTH",
"173 187 OFFCURVE",
"202 206 OFFCURVE",
"242 217 CURVE SMOOTH",
"284 229 OFFCURVE",
"316 235 OFFCURVE",
"388 247 CURVE",
"388 222 OFFCURVE",
"386 183 OFFCURVE",
"370 156 CURVE SMOOTH"
);
}
);
width = 583;
},
{
associatedMasterId = "0DA27741-1AFD-43F2-A947-40AFBF8D6498";
layerId = "A2873047-0ED6-4C67-9B4D-3870B51BD5C6";
width = 600;
},
{
associatedMasterId = "0DA27741-1AFD-43F2-A947-40AFBF8D6498";
layerId = "55314CA7-5524-4D70-B802-98D4FAE25636";
width = 535;
},
{
associatedMasterId = "0DA27741-1AFD-43F2-A947-40AFBF8D6498";
layerId = "13A3DD5D-E91B-4961-8595-F8141D3FA442";
width = 590;
}
);
leftKerningGroup = a;
note = a;
rightKerningGroup = a;
rightMetricsKey = n;
unicode = 0061;
},
{
glyphname = ae;
lastChange = "2019-02-21 10:39:10 +0000";
layers = (
{
components = (
{
alignment = -1;
name = e;
transform = "{0.945, 0, 0, 1, 420, 0}";
}
);
layerId = "CAA188E2-8C62-414B-93AE-B576BEB044DB";
paths = (
{
closed = 1;
nodes = (
"106 427 OFFCURVE",
"111 436 OFFCURVE",
"117 443 CURVE",
"155 490 OFFCURVE",
"211 513 OFFCURVE",
"271 512 CURVE SMOOTH",
"321 512 OFFCURVE",
"372 498 OFFCURVE",
"405 468 CURVE",
"443 433 OFFCURVE",
"458 390 OFFCURVE",
"459 300 CURVE",
"348 300 LINE SMOOTH",
"284 300 OFFCURVE",
"231 300 OFFCURVE",
"182 294 CURVE",
"122 286 OFFCURVE",
"74 258 OFFCURVE",
"54 209 CURVE",
"33 159 OFFCURVE",
"34 108 OFFCURVE",
"66 62 CURVE",
"93 15 OFFCURVE",
"147 -6 OFFCURVE",
"204 -13 CURVE",
"255 -16 OFFCURVE",
"309 -9 OFFCURVE",
"356 14 CURVE",
"403 37 OFFCURVE",
"441 74 OFFCURVE",
"466 123 CURVE",
"489 169 OFFCURVE",
"500 214 OFFCURVE",
"500 264 CURVE",
"501 338 LINE",
"501 397 OFFCURVE",
"482 457 OFFCURVE",
"434 501 CURVE",
"387 542 OFFCURVE",
"326 554 OFFCURVE",
"270 554 CURVE SMOOTH",
"197 554 OFFCURVE",
"126 526 OFFCURVE",
"82 469 CURVE",
"75 460 OFFCURVE",
"68 449 OFFCURVE",
"62 439 CURVE",
"102 420 LINE"
);
},
{
closed = 1;
nodes = (
"457 217 OFFCURVE",
"447 177 OFFCURVE",
"429 142 CURVE",
"411 107 OFFCURVE",
"375 68 OFFCURVE",
"338 49 CURVE",
"300 30 OFFCURVE",
"254 22 OFFCURVE",
"209 26 CURVE",
"173 29 OFFCURVE",
"126 50 OFFCURVE",
"103 85 CURVE",
"81 118 OFFCURVE",
"80 161 OFFCURVE",
"96 194 CURVE",
"112 227 OFFCURVE",
"142 249 OFFCURVE",
"188 255 CURVE",
"219 259 OFFCURVE",
"290 260 OFFCURVE",
"367 260 CURVE SMOOTH",
"458 260 LINE"
);
}
);
width = 964;
},
{
components = (
{
alignment = -1;
name = e;
transform = "{0.945, 0, 0, 1, 357, 0}";
}
);
layerId = "0DA27741-1AFD-43F2-A947-40AFBF8D6498";
paths = (
{
closed = 1;
nodes = (
"187 392 OFFCURVE",
"196 403 OFFCURVE",
"209 411 CURVE",
"227 424 OFFCURVE",
"249 428 OFFCURVE",
"274 428 CURVE SMOOTH",
"303 428 OFFCURVE",
"331 424 OFFCURVE",
"354 411 CURVE",
"381 397 OFFCURVE",
"397 370 OFFCURVE",
"397 339 CURVE",
"308 339 LINE SMOOTH",
"224 339 OFFCURVE",
"186 334 OFFCURVE",
"135 309 CURVE",
"106 295 OFFCURVE",
"72 263 OFFCURVE",
"53 221 CURVE",
"29 166 OFFCURVE",
"40 105 OFFCURVE",
"72 60 CURVE",
"91 33 OFFCURVE",
"120 12 OFFCURVE",
"153 -1 CURVE",
"200 -19 OFFCURVE",
"286 -19 OFFCURVE",
"345 7 CURVE",
"381 23 OFFCURVE",
"412 48 OFFCURVE",
"440 84 CURVE",
"473 127 OFFCURVE",
"520 179 OFFCURVE",
"533 277 CURVE",
"533 339 LINE",
"533 420 OFFCURVE",
"487 489 OFFCURVE",
"419 525 CURVE",
"365 550 OFFCURVE",
"319 554 OFFCURVE",
"278 554 CURVE SMOOTH",
"191 554 OFFCURVE",
"113 523 OFFCURVE",
"67 456 CURVE",
"63 451 OFFCURVE",
"59 445 OFFCURVE",
"56 440 CURVE",
"180 381 LINE"
);
},
{
closed = 1;
nodes = (
"388 201 OFFCURVE",
"384 182 OFFCURVE",
"367 162 CURVE",
"352 144 OFFCURVE",
"332 132 OFFCURVE",
"309 123 CURVE",
"284 113 OFFCURVE",
"249 107 OFFCURVE",
"232 110 CURVE",
"218 111 OFFCURVE",
"198 118 OFFCURVE",
"185 134 CURVE",
"170 153 OFFCURVE",
"173 178 OFFCURVE",
"182 190 CURVE",
"195 207 OFFCURVE",
"225 219 OFFCURVE",
"251 221 CURVE",
"278 223 OFFCURVE",
"304 222 OFFCURVE",
"333 222 CURVE SMOOTH",
"395 222 LINE"
);
}
);
width = 933;
},
{
associatedMasterId = "0DA27741-1AFD-43F2-A947-40AFBF8D6498";
layerId = "A2873047-0ED6-4C67-9B4D-3870B51BD5C6";
width = 600;
},
{
associatedMasterId = "0DA27741-1AFD-43F2-A947-40AFBF8D6498";
layerId = "55314CA7-5524-4D70-B802-98D4FAE25636";
width = 1029;
},
{
associatedMasterId = "0DA27741-1AFD-43F2-A947-40AFBF8D6498";
layerId = "13A3DD5D-E91B-4961-8595-F8141D3FA442";
width = 669;
}
);
leftKerningGroup = a;
leftMetricsKey = a;
rightKerningGroup = e;
rightMetricsKey = e;
unicode = 00E6;
},
{
glyphname = c;
lastChange = "2019-01-07 09:51:28 +0000";
layers = (
{
layerId = "CAA188E2-8C62-414B-93AE-B576BEB044DB";
paths = (
{
closed = 1;
nodes = (
"471 504 OFFCURVE",
"387 555 OFFCURVE",
"287 555 CURVE SMOOTH",
"127 555 OFFCURVE",
"43 443 OFFCURVE",
"40 270 CURVE SMOOTH",
"43 101 OFFCURVE",
"126 -15 OFFCURVE",
"287 -15 CURVE SMOOTH",
"385 -15 OFFCURVE",
"459 30 OFFCURVE",
"504 117 CURVE",
"463 135 LINE",
"430 64 OFFCURVE",
"366 27 OFFCURVE",
"287 27 CURVE SMOOTH",
"154 27 OFFCURVE",
"87 123 OFFCURVE",
"85 270 CURVE SMOOTH",
"87 414 OFFCURVE",
"151 513 OFFCURVE",
"287 513 CURVE SMOOTH",
"368 513 OFFCURVE",
"434 473 OFFCURVE",
"464 404 CURVE",
"504 421 LINE"
);
}
);
width = 539;
},
{
layerId = "0DA27741-1AFD-43F2-A947-40AFBF8D6498";
paths = (
{
closed = 1;
nodes = (
"529 486 OFFCURVE",
"437 555 OFFCURVE",
"310 555 CURVE SMOOTH",
"145 555 OFFCURVE",
"40 434 OFFCURVE",
"40 270 CURVE SMOOTH",
"40 108 OFFCURVE",
"140 -15 OFFCURVE",
"308 -15 CURVE SMOOTH",
"433 -15 OFFCURVE",
"522 49 OFFCURVE",
"553 164 CURVE",
"414 193 LINE",
"398 141 OFFCURVE",
"369 112 OFFCURVE",
"308 112 CURVE SMOOTH",
"226 112 OFFCURVE",
"184 176 OFFCURVE",
"184 270 CURVE SMOOTH",
"184 360 OFFCURVE",
"222 428 OFFCURVE",
"308 428 CURVE SMOOTH",
"358 428 OFFCURVE",
"401 395 OFFCURVE",
"417 339 CURVE",
"553 375 LINE"
);
}
);
width = 583;
},
{
associatedMasterId = "0DA27741-1AFD-43F2-A947-40AFBF8D6498";
layerId = "A2873047-0ED6-4C67-9B4D-3870B51BD5C6";
width = 600;
},
{
associatedMasterId = "0DA27741-1AFD-43F2-A947-40AFBF8D6498";
layerId = "55314CA7-5524-4D70-B802-98D4FAE25636";
width = 566;
},
{
associatedMasterId = "0DA27741-1AFD-43F2-A947-40AFBF8D6498";
layerId = "13A3DD5D-E91B-4961-8595-F8141D3FA442";
width = 595;
}
);
leftKerningGroup = o;
leftMetricsKey = o;
note = c;
rightKerningGroup = c;
unicode = 0063;
},
{
glyphname = eth;
lastChange = "2019-02-12 06:46:17 +0000";
layers = (
{
layerId = "CAA188E2-8C62-414B-93AE-B576BEB044DB";
paths = (
{
closed = 1;
nodes = (
"533 421 OFFCURVE",
"527 497 OFFCURVE",
"488 572 CURVE",
"440 670 OFFCURVE",
"352 726 OFFCURVE",
"235 733 CURVE",
"230 692 LINE",
"329 685 OFFCURVE",
"407 640 OFFCURVE",
"450 553 CURVE",
"469 514 OFFCURVE",
"480 470 OFFCURVE",
"485 425 CURVE",
"481 431 OFFCURVE",
"477 437 OFFCURVE",
"472 442 CURVE",
"426 497 OFFCURVE",
"353 520 OFFCURVE",
"287 519 CURVE SMOOTH",
"220 520 OFFCURVE",
"148 497 OFFCURVE",
"101 442 CURVE",
"55 389 OFFCURVE",
"41 318 OFFCURVE",
"40 252 CURVE SMOOTH",
"41 187 OFFCURVE",
"55 116 OFFCURVE",
"101 62 CURVE",
"148 8 OFFCURVE",
"220 -16 OFFCURVE",
"287 -15 CURVE SMOOTH",
"353 -16 OFFCURVE",
"426 8 OFFCURVE",
"472 62 CURVE",
"514 111 OFFCURVE",
"533 181 OFFCURVE",
"533 253 CURVE"
);
},
{
closed = 1;
nodes = (
"488 193 OFFCURVE",
"475 133 OFFCURVE",
"439 90 CURVE",
"403 47 OFFCURVE",
"345 27 OFFCURVE",
"287 27 CURVE SMOOTH",
"228 27 OFFCURVE",
"170 47 OFFCURVE",
"134 90 CURVE",
"98 133 OFFCURVE",
"85 193 OFFCURVE",
"85 252 CURVE SMOOTH",
"85 311 OFFCURVE",
"98 372 OFFCURVE",
"134 414 CURVE",
"170 457 OFFCURVE",
"228 478 OFFCURVE",
"287 477 CURVE SMOOTH",
"345 478 OFFCURVE",
"403 457 OFFCURVE",
"439 414 CURVE",
"475 372 OFFCURVE",
"488 312 OFFCURVE",
"488 253 CURVE SMOOTH"
);
},
{
closed = 1;
nodes = (
"442 756 LINE",
"409 782 LINE",
"270 605 LINE",
"303 579 LINE"
);
}
);
width = 573;
},
{
layerId = "0DA27741-1AFD-43F2-A947-40AFBF8D6498";
paths = (
{
closed = 1;
nodes = (
"561 408 OFFCURVE",
"547 545 OFFCURVE",
"460 652 CURVE SMOOTH",
"399 727 OFFCURVE",
"314 757 OFFCURVE",
"222 760 CURVE",
"201 657 LINE",
"279 652 OFFCURVE",
"336 617 OFFCURVE",
"384 572 CURVE SMOOTH",
"419 539 OFFCURVE",
"429 510 OFFCURVE",
"433 483 CURVE",
"429 485 OFFCURVE",
"410 496 OFFCURVE",
"400 501 CURVE SMOOTH",
"366 518 OFFCURVE",
"331 518 OFFCURVE",
"301 518 CURVE SMOOTH",
"226 518 OFFCURVE",
"154 491 OFFCURVE",
"107 437 CURVE SMOOTH",
"61 388 OFFCURVE",
"40 322 OFFCURVE",
"40 251 CURVE SMOOTH",
"40 181 OFFCURVE",
"62 114 OFFCURVE",
"107 65 CURVE SMOOTH",
"153 14 OFFCURVE",
"223 -15 OFFCURVE",
"301 -15 CURVE SMOOTH",
"378 -15 OFFCURVE",
"453 2 OFFCURVE",
"494 65 CURVE SMOOTH",
"540 115 OFFCURVE",
"561 182 OFFCURVE",
"561 255 CURVE SMOOTH"
);
},
{
closed = 1;
nodes = (
"425 212 OFFCURVE",
"417 173 OFFCURVE",
"394 146 CURVE SMOOTH",
"373 119 OFFCURVE",
"338 105 OFFCURVE",
"301 105 CURVE SMOOTH",
"263 105 OFFCURVE",
"228 119 OFFCURVE",
"206 146 CURVE SMOOTH",
"183 173 OFFCURVE",
"176 212 OFFCURVE",
"176 252 CURVE SMOOTH",
"176 292 OFFCURVE",
"183 330 OFFCURVE",
"206 358 CURVE SMOOTH",
"228 384 OFFCURVE",
"263 398 OFFCURVE",
"301 398 CURVE SMOOTH",
"338 398 OFFCURVE",
"373 384 OFFCURVE",
"394 358 CURVE SMOOTH",
"417 330 OFFCURVE",
"425 292 OFFCURVE",
"425 252 CURVE SMOOTH"
);
},
{
closed = 1;
nodes = (
"488 742 LINE",
"405 807 LINE",
"239 596 LINE",
"322 531 LINE"
);
}
);
width = 601;
},
{
associatedMasterId = "0DA27741-1AFD-43F2-A947-40AFBF8D6498";
layerId = "A2873047-0ED6-4C67-9B4D-3870B51BD5C6";
width = 600;
},
{
associatedMasterId = "0DA27741-1AFD-43F2-A947-40AFBF8D6498";
layerId = "55314CA7-5524-4D70-B802-98D4FAE25636";
width = 585;
},
{
associatedMasterId = "0DA27741-1AFD-43F2-A947-40AFBF8D6498";
layerId = "13A3DD5D-E91B-4961-8595-F8141D3FA442";
width = 598;
}
);
leftKerningGroup = d;
leftMetricsKey = d;
rightKerningGroup = b;
rightMetricsKey = b;
unicode = 00F0;
},
{
glyphname = e;
lastChange = "2019-03-04 02:22:09 +0000";
layers = (
{
layerId = "CAA188E2-8C62-414B-93AE-B576BEB044DB";
paths = (
{
closed = 1;
nodes = (
"445 68 OFFCURVE",
"377 27 OFFCURVE",
"287 27 CURVE SMOOTH",
"154 27 OFFCURVE",
"85 123 OFFCURVE",
"85 270 CURVE SMOOTH",
"85 413 OFFCURVE",
"152 515 OFFCURVE",
"287 513 CURVE SMOOTH",
"419 515 OFFCURVE",
"484 420 OFFCURVE",
"488 272 CURVE",
"488 258 LINE",
"533 258 LINE",
"533 435 OFFCURVE",
"454 555 OFFCURVE",
"287 555 CURVE SMOOTH",
"129 555 OFFCURVE",
"40 440 OFFCURVE",
"40 270 CURVE SMOOTH",
"40 103 OFFCURVE",
"128 -15 OFFCURVE",
"287 -15 CURVE SMOOTH",
"393 -15 OFFCURVE",
"476 35 OFFCURVE",
"520 129 CURVE",
"485 149 LINE"
);
},
{
closed = 1;
nodes = (
"67 258 LINE",
"507 258 LINE",
"507 300 LINE",
"67 300 LINE"
);
}
);
width = 573;
},
{
layerId = "0DA27741-1AFD-43F2-A947-40AFBF8D6498";
paths = (
{
closed = 1;
nodes = (
"404 135 OFFCURVE",
"363 112 OFFCURVE",
"313 112 CURVE SMOOTH",
"228 112 OFFCURVE",
"184 173 OFFCURVE",
"184 270 CURVE SMOOTH",
"184 366 OFFCURVE",
"216 437 OFFCURVE",
"313 437 CURVE SMOOTH",
"410 437 OFFCURVE",
"431 380 OFFCURVE",
"431 282 CURVE SMOOTH",
"431 232 LINE",
"565.535 232 LINE",
"581 420 OFFCURVE",
"490 555 OFFCURVE",
"313 555 CURVE SMOOTH",
"149 555 OFFCURVE",
"40 438 OFFCURVE",
"40 263 CURVE SMOOTH",
"40 102 OFFCURVE",
"152 -15 OFFCURVE",
"321 -15 CURVE SMOOTH",
"422 -15 OFFCURVE",
"521 43 OFFCURVE",
"561 141 CURVE",
"425 180 LINE"
);
},
{
closed = 1;
nodes = (
"142 232 LINE",
"500 232 LINE",
"500 337 LINE",
"142 337 LINE"
);
}
);
width = 608;
},
{
associatedMasterId = "0DA27741-1AFD-43F2-A947-40AFBF8D6498";
layerId = "A2873047-0ED6-4C67-9B4D-3870B51BD5C6";
width = 600;
},
{
associatedMasterId = "0DA27741-1AFD-43F2-A947-40AFBF8D6498";
layerId = "55314CA7-5524-4D70-B802-98D4FAE25636";
width = 584;
},
{
associatedMasterId = "0DA27741-1AFD-43F2-A947-40AFBF8D6498";
layerId = "13A3DD5D-E91B-4961-8595-F8141D3FA442";
width = 597;
}
);
leftKerningGroup = o;
leftMetricsKey = o;
note = e;
rightKerningGroup = e;
unicode = 0065;
},
{
glyphname = eogonek;
lastChange = "2019-02-12 06:46:27 +0000";
layers = (
{
components = (
{
name = e;
}
);
layerId = "CAA188E2-8C62-414B-93AE-B576BEB044DB";
paths = (
{
closed = 1;
nodes = (
"474 118 LINE",
"445 52 OFFCURVE",
"375 -13 OFFCURVE",
"355 -40 CURVE",
"335 -66 OFFCURVE",
"319 -94 OFFCURVE",
"311 -123 CURVE SMOOTH",
"301 -159 OFFCURVE",
"306 -191 OFFCURVE",
"330 -215 CURVE SMOOTH",
"353 -238 OFFCURVE",
"390 -247 OFFCURVE",
"426 -232 CURVE SMOOTH",
"444 -224 OFFCURVE",
"459 -213 OFFCURVE",
"471 -201 CURVE",
"445 -172 LINE",
"421 -194 OFFCURVE",
"386 -212 OFFCURVE",
"359 -185 CURVE SMOOTH",
"345 -171 OFFCURVE",
"346 -153 OFFCURVE",
"351 -134 CURVE SMOOTH",
"358 -108 OFFCURVE",
"375 -81 OFFCURVE",
"392 -56 CURVE",
"408 -33 OFFCURVE",
"488 59 OFFCURVE",
"516 121 CURVE"
);
}
);
width = 573;
},
{
components = (
{
name = e;
}
);
layerId = "0DA27741-1AFD-43F2-A947-40AFBF8D6498";
paths = (
{
closed = 1;
nodes = (
"461 116 LINE",
"436 89 OFFCURVE",
"408 46 OFFCURVE",
"394 24 CURVE SMOOTH",
"380 2 OFFCURVE",
"357 -32 OFFCURVE",
"344 -62 CURVE SMOOTH",
"324 -108 OFFCURVE",
"333 -162 OFFCURVE",
"359 -195 CURVE SMOOTH",
"390 -235 OFFCURVE",
"448 -251 OFFCURVE",
"495 -230 CURVE SMOOTH",
"517 -220 OFFCURVE",
"533 -205 OFFCURVE",
"543 -187 CURVE",
"496 -125 LINE",
"480 -138 OFFCURVE",
"454 -145 OFFCURVE",
"442 -131 CURVE SMOOTH",
"433 -121 OFFCURVE",
"436 -103 OFFCURVE",
"438 -97 CURVE SMOOTH",
"444 -78 OFFCURVE",
"456 -50 OFFCURVE",
"474 -18 CURVE SMOOTH",
"492 14 OFFCURVE",
"515 53 OFFCURVE",
"546 102 CURVE"
);
}
);
width = 608;
},
{
associatedMasterId = "0DA27741-1AFD-43F2-A947-40AFBF8D6498";
layerId = "A2873047-0ED6-4C67-9B4D-3870B51BD5C6";
width = 600;
},
{
associatedMasterId = "0DA27741-1AFD-43F2-A947-40AFBF8D6498";
layerId = "55314CA7-5524-4D70-B802-98D4FAE25636";
width = 584;
},
{
associatedMasterId = "0DA27741-1AFD-43F2-A947-40AFBF8D6498";
layerId = "13A3DD5D-E91B-4961-8595-F8141D3FA442";
width = 597;
}
);
leftKerningGroup = e;
leftMetricsKey = e;
rightKerningGroup = e;
rightMetricsKey = e;
unicode = 0119;
},
{
glyphname = f;
lastChange = "2019-01-10 10:59:25 +0000";
layers = (
{
layerId = "CAA188E2-8C62-414B-93AE-B576BEB044DB";
paths = (
{
closed = 1;
nodes = (
"128 0 LINE",
"128 601 LINE",
"127 643 OFFCURVE",
"135 674 OFFCURVE",
"160 701 CURVE SMOOTH",
"184 726 OFFCURVE",
"216 735 OFFCURVE",
"259 735 CURVE",
"329 735 LINE",
"329 697 LINE",
"264 697 LINE",
"201 697 OFFCURVE",
"170 670 OFFCURVE",
"170 597 CURVE",
"170 0 LINE"
);
},
{
closed = 1;
nodes = (
"329 540 LINE",
"329 498 LINE",
"30 498 LINE",
"30 540 LINE"
);
}
);
width = 339;
},
{
layerId = "0DA27741-1AFD-43F2-A947-40AFBF8D6498";
paths = (
{
closed = 1;
nodes = (
"115 0 LINE",
"115 538 LINE SMOOTH",
"115 579 OFFCURVE",
"112 642 OFFCURVE",
"151 685 CURVE SMOOTH",
"201 741 OFFCURVE",
"270 735 OFFCURVE",
"309 735 CURVE",
"376 735 LINE",
"376 625 LINE",
"314 625 LINE",
"271 625 OFFCURVE",
"251 600 OFFCURVE",
"251 570 CURVE SMOOTH",
"251 0 LINE"
);
},
{
closed = 1;
nodes = (
"376 540 LINE",
"376 435 LINE",
"30 435 LINE",
"30 540 LINE"
);
}
);
width = 386;
},
{
associatedMasterId = "0DA27741-1AFD-43F2-A947-40AFBF8D6498";
layerId = "A2873047-0ED6-4C67-9B4D-3870B51BD5C6";
width = 600;
},
{
associatedMasterId = "0DA27741-1AFD-43F2-A947-40AFBF8D6498";
layerId = "55314CA7-5524-4D70-B802-98D4FAE25636";
width = 298;
},
{
associatedMasterId = "0DA27741-1AFD-43F2-A947-40AFBF8D6498";
layerId = "13A3DD5D-E91B-4961-8595-F8141D3FA442";
width = 552;
}
);
leftKerningGroup = f;
note = f;
rightKerningGroup = f;
unicode = 0066;
},
{
glyphname = g;
lastChange = "2019-01-07 09:53:40 +0000";
layers = (
{
components = (
{
name = "oval-inner";
transform = "{1, 0, 0, 1, -20, 0}";
}
);
layerId = "CAA188E2-8C62-414B-93AE-B576BEB044DB";
paths = (
{
closed = 1;
nodes = (
"467 540 LINE",
"467 168 LINE",
"463 168 LINE",
"463 30 LINE SMOOTH",
"463 -130 OFFCURVE",
"421 -212 OFFCURVE",
"276 -212 CURVE SMOOTH",
"209 -212 OFFCURVE",
"137 -184 OFFCURVE",
"101 -110 CURVE",
"64 -135 LINE",
"113 -226 OFFCURVE",
"198 -255 OFFCURVE",
"276 -255 CURVE SMOOTH",
"415 -255 OFFCURVE",
"485 -194 OFFCURVE",
"501 -63 CURVE SMOOTH",
"505 -33 OFFCURVE",
"506 -3 OFFCURVE",
"506 30 CURVE SMOOTH",
"506 540 LINE"
);
}
);
width = 576;
},
{
components = (
{
name = "oval-inner";
transform = "{1, 0, 0, 1, -10, 0}";
}
);
layerId = "0DA27741-1AFD-43F2-A947-40AFBF8D6498";
paths = (
{
closed = 1;
nodes = (
"435 540 LINE",
"435 122 LINE",
"418 122 LINE",
"418 -35 LINE SMOOTH",
"420 -95 OFFCURVE",
"363 -126 OFFCURVE",
"302 -126 CURVE SMOOTH",
"264 -126 OFFCURVE",
"229 -109 OFFCURVE",
"212 -77 CURVE",
"86 -138 LINE",
"127 -208 OFFCURVE",
"209 -254 OFFCURVE",
"301 -254 CURVE SMOOTH",
"420 -254 OFFCURVE",
"520 -209 OFFCURVE",
"546 -110 CURVE SMOOTH",
"552 -87 OFFCURVE",
"554 -64 OFFCURVE",
"554 -37 CURVE SMOOTH",
"554 540 LINE"
);
}
);
width = 624;
},
{
associatedMasterId = "0DA27741-1AFD-43F2-A947-40AFBF8D6498";
layerId = "A2873047-0ED6-4C67-9B4D-3870B51BD5C6";
width = 600;
},
{
associatedMasterId = "0DA27741-1AFD-43F2-A947-40AFBF8D6498";
layerId = "55314CA7-5524-4D70-B802-98D4FAE25636";
width = 575;
},
{
associatedMasterId = "0DA27741-1AFD-43F2-A947-40AFBF8D6498";
layerId = "13A3DD5D-E91B-4961-8595-F8141D3FA442";
width = 596;
}
);
leftKerningGroup = g;
leftMetricsKey = o;
note = g;
rightKerningGroup = g;
rightMetricsKey = u;
unicode = 0067;
},
{
glyphname = i;
lastChange = "2019-01-10 10:58:33 +0000";
layers = (
{
components = (
{
name = idotless;
}
);
layerId = "CAA188E2-8C62-414B-93AE-B576BEB044DB";
paths = (
{
closed = 1;
nodes = (
"80 666 LINE",
"122 666 LINE",
"122 730 LINE",
"80 730 LINE"
);
}
);
width = 202;
},
{
components = (
{
name = idotless;
}
);
layerId = "0DA27741-1AFD-43F2-A947-40AFBF8D6498";
paths = (
{
closed = 1;
nodes = (
"80 615 LINE",
"216 615 LINE",
"216 735 LINE",
"80 735 LINE"
);
}
);
width = 296;
},
{
associatedMasterId = "0DA27741-1AFD-43F2-A947-40AFBF8D6498";
layerId = "A2873047-0ED6-4C67-9B4D-3870B51BD5C6";
width = 600;
},
{
associatedMasterId = "0DA27741-1AFD-43F2-A947-40AFBF8D6498";
layerId = "55314CA7-5524-4D70-B802-98D4FAE25636";
width = 163;
},
{
associatedMasterId = "0DA27741-1AFD-43F2-A947-40AFBF8D6498";
layerId = "13A3DD5D-E91B-4961-8595-F8141D3FA442";
width = 530;
}
);
leftKerningGroup = i;
leftMetricsKey = l;
note = i;
rightMetricsKey = l;
unicode = 0069;
},
{
glyphname = idotless;
lastChange = "2019-04-10 00:35:57 +0000";
layers = (
{
layerId = "CAA188E2-8C62-414B-93AE-B576BEB044DB";
paths = (
{
closed = 1;
nodes = (
"80 0 LINE",
"122 0 LINE",
"122 540 LINE",
"80 540 LINE"
);
}
);
width = 202;
},
{
layerId = "0DA27741-1AFD-43F2-A947-40AFBF8D6498";
paths = (
{
closed = 1;
nodes = (
"80 0 LINE",
"216 0 LINE",
"216 540 LINE",
"80 540 LINE"
);
}
);
width = 296;
},
{
associatedMasterId = "0DA27741-1AFD-43F2-A947-40AFBF8D6498";
layerId = "A2873047-0ED6-4C67-9B4D-3870B51BD5C6";
width = 600;
},
{
associatedMasterId = "0DA27741-1AFD-43F2-A947-40AFBF8D6498";
layerId = "55314CA7-5524-4D70-B802-98D4FAE25636";
width = 163;
},
{
associatedMasterId = "0DA27741-1AFD-43F2-A947-40AFBF8D6498";
layerId = "13A3DD5D-E91B-4961-8595-F8141D3FA442";
width = 530;
}
);
leftKerningGroup = i;
rightKerningGroup = i;
unicode = 0131;
},
{
glyphname = j;
lastChange = "2019-01-04 08:31:54 +0000";
layers = (
{
layerId = "CAA188E2-8C62-414B-93AE-B576BEB044DB";
paths = (
{
closed = 1;
nodes = (
"47 -197 OFFCURVE",
"68 -192 OFFCURVE",
"86 -172 CURVE SMOOTH",
"104 -152 OFFCURVE",
"103 -126 OFFCURVE",
"103 -60 CURVE SMOOTH",
"103 540 LINE",
"145 540 LINE",
"145 -60 LINE SMOOTH",
"145 -128 OFFCURVE",
"149 -176 OFFCURVE",
"116 -210 CURVE SMOOTH",
"90 -236 OFFCURVE",
"50 -240 OFFCURVE",
"23 -240 CURVE",
"-10 -240 LINE",
"-10 -197 LINE",
"24 -197 LINE"
);
},
{
closed = 1;
nodes = (
"103 646 LINE",
"145 646 LINE",
"145 710 LINE",
"103 710 LINE"
);
}
);
width = 225;
},
{
layerId = "0DA27741-1AFD-43F2-A947-40AFBF8D6498";
paths = (
{
closed = 1;
nodes = (
"39 -113 OFFCURVE",
"59 -109 OFFCURVE",
"75 -94 CURVE SMOOTH",
"90 -80 OFFCURVE",
"95 -63 OFFCURVE",
"95 -30 CURVE SMOOTH",
"95 540 LINE",
"231 540 LINE",
"231 -66 LINE SMOOTH",
"231 -119 OFFCURVE",
"232 -159 OFFCURVE",
"194 -198 CURVE SMOOTH",
"154 -240 OFFCURVE",
"103 -240 OFFCURVE",
"62 -240 CURVE",
"-10 -240 LINE",
"-10 -113 LINE",
"14 -113 LINE"
);
},
{
closed = 1;
nodes = (
"95 600 LINE",
"231 600 LINE",
"231 720 LINE",
"95 720 LINE"
);
}
);
width = 301;
},
{
associatedMasterId = "0DA27741-1AFD-43F2-A947-40AFBF8D6498";
layerId = "A2873047-0ED6-4C67-9B4D-3870B51BD5C6";
width = 600;
},
{
associatedMasterId = "0DA27741-1AFD-43F2-A947-40AFBF8D6498";
layerId = "55314CA7-5524-4D70-B802-98D4FAE25636";
width = 189;
},
{
associatedMasterId = "0DA27741-1AFD-43F2-A947-40AFBF8D6498";
layerId = "13A3DD5D-E91B-4961-8595-F8141D3FA442";
width = 534;
}
);
note = j;
unicode = 006A;
},
{
glyphname = k;
lastChange = "2019-01-10 10:57:16 +0000";
layers = (
{
layerId = "CAA188E2-8C62-414B-93AE-B576BEB044DB";
paths = (
{
closed = 1;
nodes = (
"112 0 LINE",
"112 260 LINE",
"416 0 LINE",
"488 0 LINE",
"163 270 LINE",
"445 540 LINE",
"382 540 LINE",
"112 280 LINE",
"112 720 LINE",
"70 720 LINE",
"70 0 LINE"
);
}
);
width = 468;
},
{
layerId = "0DA27741-1AFD-43F2-A947-40AFBF8D6498";
paths = (
{
closed = 1;
nodes = (
"209 0 LINE",
"209 260 LINE",
"396 0 LINE",
"573 0 LINE",
"365 270 LINE",
"560 540 LINE",
"392 540 LINE",
"209 280 LINE",
"209 720 LINE",
"71 720 LINE",
"70 0 LINE"
);
}
);
width = 553;
},
{
associatedMasterId = "0DA27741-1AFD-43F2-A947-40AFBF8D6498";
layerId = "A2873047-0ED6-4C67-9B4D-3870B51BD5C6";
width = 600;
},
{
associatedMasterId = "0DA27741-1AFD-43F2-A947-40AFBF8D6498";
layerId = "55314CA7-5524-4D70-B802-98D4FAE25636";
width = 500;
},
{
associatedMasterId = "0DA27741-1AFD-43F2-A947-40AFBF8D6498";
layerId = "13A3DD5D-E91B-4961-8595-F8141D3FA442";
width = 584;
}
);
leftKerningGroup = k;
leftMetricsKey = n;
note = k;
rightKerningGroup = k;
unicode = 006B;
},
{
glyphname = l;
lastChange = "2019-01-10 10:58:25 +0000";
layers = (
{
layerId = "CAA188E2-8C62-414B-93AE-B576BEB044DB";
paths = (
{
closed = 1;
nodes = (
"80 735 LINE",
"122 735 LINE",
"122 0 LINE",
"80 0 LINE"
);
}
);
width = 202;
},
{
layerId = "0DA27741-1AFD-43F2-A947-40AFBF8D6498";
paths = (
{
closed = 1;
nodes = (
"80 735 LINE",
"216 735 LINE",
"216 0 LINE",
"80 0 LINE"
);
}
);
width = 296;
},
{
associatedMasterId = "0DA27741-1AFD-43F2-A947-40AFBF8D6498";
layerId = "A2873047-0ED6-4C67-9B4D-3870B51BD5C6";
width = 600;
},
{
associatedMasterId = "0DA27741-1AFD-43F2-A947-40AFBF8D6498";
layerId = "55314CA7-5524-4D70-B802-98D4FAE25636";
width = 163;
},
{
associatedMasterId = "0DA27741-1AFD-43F2-A947-40AFBF8D6498";
layerId = "13A3DD5D-E91B-4961-8595-F8141D3FA442";
width = 530;
}
);
leftKerningGroup = n;
note = l;
rightKerningGroup = u;
unicode = 006C;
},
{
glyphname = eng;
lastChange = "2019-02-12 06:46:27 +0000";
layers = (
{
components = (
{
name = n;
}
);
layerId = "CAA188E2-8C62-414B-93AE-B576BEB044DB";
paths = (
{
closed = 1;
nodes = (
"416 -179 OFFCURVE",
"433 -181 OFFCURVE",
"461 -178 CURVE",
"491 -172 OFFCURVE",
"513 -152 OFFCURVE",
"513 -95 CURVE SMOOTH",
"513 1 LINE",
"471 1 LINE",
"471 -55 LINE",
"471 -126 OFFCURVE",
"461 -143 OFFCURVE",
"396 -133 CURVE",
"396 -174 LINE"
);
}
);
width = 573;
},
{
components = (
{
name = n;
}
);
layerId = "0DA27741-1AFD-43F2-A947-40AFBF8D6498";
paths = (
{
closed = 1;
nodes = (
"382 -238 OFFCURVE",
"422 -244 OFFCURVE",
"471 -234 CURVE SMOOTH",
"537 -221 OFFCURVE",
"576 -167 OFFCURVE",
"576 -88 CURVE SMOOTH",
"576 2 LINE",
"438 2 LINE",
"438 -66 LINE",
"438 -147 OFFCURVE",
"377 -136 OFFCURVE",
"346 -134 CURVE",
"346 -229 LINE"
);
}
);
width = 636;
},
{
associatedMasterId = "0DA27741-1AFD-43F2-A947-40AFBF8D6498";
layerId = "A2873047-0ED6-4C67-9B4D-3870B51BD5C6";
width = 600;
},
{
associatedMasterId = "0DA27741-1AFD-43F2-A947-40AFBF8D6498";
layerId = "55314CA7-5524-4D70-B802-98D4FAE25636";
width = 564;
},
{
associatedMasterId = "0DA27741-1AFD-43F2-A947-40AFBF8D6498";
layerId = "13A3DD5D-E91B-4961-8595-F8141D3FA442";
width = 594;
}
);
leftKerningGroup = n;
leftMetricsKey = n;
rightKerningGroup = n;
rightMetricsKey = n;
unicode = 014B;
},
{
glyphname = o;
lastChange = "2019-03-04 02:22:53 +0000";
layers = (
{
layerId = "CAA188E2-8C62-414B-93AE-B576BEB044DB";
paths = (
{
closed = 1;
nodes = (
"446 -15 OFFCURVE",
"534 100 OFFCURVE",
"534 271 CURVE SMOOTH",
"534 438 OFFCURVE",
"448 555 OFFCURVE",
"287 555 CURVE SMOOTH",
"130 555 OFFCURVE",
"40 441 OFFCURVE",
"40 271 CURVE SMOOTH",
"40 103 OFFCURVE",
"127 -15 OFFCURVE",
"287 -15 CURVE SMOOTH"
);
},
{
closed = 1;
nodes = (
"489 126 OFFCURVE",
"423 27 OFFCURVE",
"287 27 CURVE SMOOTH",
"154 27 OFFCURVE",
"85 124 OFFCURVE",
"85 271 CURVE SMOOTH",
"85 413 OFFCURVE",
"150 513 OFFCURVE",
"287 513 CURVE SMOOTH",
"422 513 OFFCURVE",
"489 418 OFFCURVE",
"489 271 CURVE SMOOTH"
);
}
);
width = 574;
},
{
layerId = "0DA27741-1AFD-43F2-A947-40AFBF8D6498";
paths = (
{
closed = 1;
nodes = (
"475 -15 OFFCURVE",
"587 102 OFFCURVE",
"587 270 CURVE SMOOTH",
"587 437 OFFCURVE",
"476 555 OFFCURVE",
"313 555 CURVE SMOOTH",
"153 555 OFFCURVE",
"40 439 OFFCURVE",
"40 270 CURVE SMOOTH",
"40 103 OFFCURVE",
"150 -15 OFFCURVE",
"313 -15 CURVE SMOOTH"
);
},
{
closed = 1;
nodes = (
"443 177 OFFCURVE",
"400 112 OFFCURVE",
"313 112 CURVE SMOOTH",
"228 112 OFFCURVE",
"184 173 OFFCURVE",
"184 270 CURVE SMOOTH",
"184 364 OFFCURVE",
"224 428 OFFCURVE",
"313 428 CURVE SMOOTH",
"399 428 OFFCURVE",
"443 366 OFFCURVE",
"443 270 CURVE"
);
}
);
width = 627;
},
{
associatedMasterId = "0DA27741-1AFD-43F2-A947-40AFBF8D6498";
layerId = "A2873047-0ED6-4C67-9B4D-3870B51BD5C6";
width = 600;
},
{
associatedMasterId = "0DA27741-1AFD-43F2-A947-40AFBF8D6498";
layerId = "55314CA7-5524-4D70-B802-98D4FAE25636";
width = 589;
},
{
associatedMasterId = "0DA27741-1AFD-43F2-A947-40AFBF8D6498";
layerId = "13A3DD5D-E91B-4961-8595-F8141D3FA442";
width = 598;
}
);
leftKerningGroup = o;
note = o;
rightKerningGroup = o;
unicode = 006F;
},
{
glyphname = oslash;
lastChange = "2019-02-12 06:46:17 +0000";
layers = (
{
components = (
{
name = o;
}
);
layerId = "CAA188E2-8C62-414B-93AE-B576BEB044DB";
paths = (
{
closed = 1;
nodes = (
"558 511 LINE",
"528 540 LINE",
"16 30 LINE",
"46 0 LINE"
);
}
);
width = 574;
},
{
components = (
{
name = o;
}
);
layerId = "0DA27741-1AFD-43F2-A947-40AFBF8D6498";
paths = (
{
closed = 1;
nodes = (
"599 464 LINE",
"509 555 LINE",
"28 75 LINE",
"118 -15 LINE"
);
}
);
width = 627;
},
{
associatedMasterId = "0DA27741-1AFD-43F2-A947-40AFBF8D6498";
layerId = "A2873047-0ED6-4C67-9B4D-3870B51BD5C6";
width = 600;
},
{
associatedMasterId = "0DA27741-1AFD-43F2-A947-40AFBF8D6498";
layerId = "55314CA7-5524-4D70-B802-98D4FAE25636";
width = 588;
},
{
associatedMasterId = "0DA27741-1AFD-43F2-A947-40AFBF8D6498";
layerId = "13A3DD5D-E91B-4961-8595-F8141D3FA442";
width = 598;
}
);
leftKerningGroup = o;
rightKerningGroup = o;
unicode = 00F8;
},
{
glyphname = thorn;
lastChange = "2019-02-21 10:39:16 +0000";
layers = (
{
components = (
{
name = p;
}
);
layerId = "CAA188E2-8C62-414B-93AE-B576BEB044DB";
paths = (
{
closed = 1;
nodes = (
"70 391 LINE",
"112 391 LINE",
"112 720 LINE",
"70 720 LINE"
);
}
);
width = 576;
},
{
components = (
{
name = p;
}
);
layerId = "0DA27741-1AFD-43F2-A947-40AFBF8D6498";
paths = (
{
closed = 1;
nodes = (
"70 432 LINE",
"207 432 LINE",
"207 720 LINE",
"70 720 LINE"
);
}
);
width = 625;
},
{
associatedMasterId = "0DA27741-1AFD-43F2-A947-40AFBF8D6498";
layerId = "A2873047-0ED6-4C67-9B4D-3870B51BD5C6";
width = 600;
},
{
associatedMasterId = "0DA27741-1AFD-43F2-A947-40AFBF8D6498";
layerId = "55314CA7-5524-4D70-B802-98D4FAE25636";
width = 573;
},
{
associatedMasterId = "0DA27741-1AFD-43F2-A947-40AFBF8D6498";
layerId = "13A3DD5D-E91B-4961-8595-F8141D3FA442";
width = 596;
}
);
leftKerningGroup = p;
leftMetricsKey = p;
rightKerningGroup = p;
rightMetricsKey = p;
unicode = 00FE;
},
{
glyphname = r;
lastChange = "2019-02-20 05:10:12 +0000";
layers = (
{
components = (
{
alignment = -1;
name = "line-vertical-short";
transform = "{1, 0, 0, -1, 70, 540}";
}
);
layerId = "CAA188E2-8C62-414B-93AE-B576BEB044DB";
paths = (
{
closed = 1;
nodes = (
"263 555 OFFCURVE",
"187 543 OFFCURVE",
"143 500 CURVE SMOOTH",
"86 444 OFFCURVE",
"79 379 OFFCURVE",
"72 292 CURVE",
"72 227 LINE",
"112 227 LINE",
"112 325 OFFCURVE",
"109 413 OFFCURVE",
"169 468 CURVE SMOOTH",
"212 508 OFFCURVE",
"265 510 OFFCURVE",
"310 500 CURVE",
"310 540 LINE"
);
}
);
width = 335;
},
{
components = (
{
alignment = -1;
name = "line-vertical-short";
transform = "{1, 0, 0, -1, 70, 540}";
}
);
layerId = "0DA27741-1AFD-43F2-A947-40AFBF8D6498";
paths = (
{
closed = 1;
nodes = (
"338 546 OFFCURVE",
"287 538 OFFCURVE",
"248 514 CURVE SMOOTH",
"194 480 OFFCURVE",
"167 422 OFFCURVE",
"162 354 CURVE",
"170 276 LINE",
"207 276 LINE",
"207 340 OFFCURVE",
"234 382 OFFCURVE",
"281 404 CURVE SMOOTH",
"313 419 OFFCURVE",
"357 422 OFFCURVE",
"387 413 CURVE",
"387 540 LINE"
);
}
);
width = 412;
},
{
associatedMasterId = "0DA27741-1AFD-43F2-A947-40AFBF8D6498";
layerId = "A2873047-0ED6-4C67-9B4D-3870B51BD5C6";
width = 600;
},
{
associatedMasterId = "0DA27741-1AFD-43F2-A947-40AFBF8D6498";
layerId = "55314CA7-5524-4D70-B802-98D4FAE25636";
width = 324;
},
{
associatedMasterId = "0DA27741-1AFD-43F2-A947-40AFBF8D6498";
layerId = "13A3DD5D-E91B-4961-8595-F8141D3FA442";
width = 556;
}
);
leftKerningGroup = r;
note = r;
rightKerningGroup = r;
unicode = 0072;
},
{
glyphname = s;
lastChange = "2019-02-20 04:50:59 +0000";
layers = (
{
layerId = "CAA188E2-8C62-414B-93AE-B576BEB044DB";
paths = (
{
closed = 1;
nodes = (
"465 488 OFFCURVE",
"379 555 OFFCURVE",
"254 555 CURVE SMOOTH",
"153 555 OFFCURVE",
"56 506 OFFCURVE",
"56 410 CURVE SMOOTH",
"56 330 OFFCURVE",
"124 299 OFFCURVE",
"202 277 CURVE SMOOTH",
"244 265 OFFCURVE",
"276 256 OFFCURVE",
"301 249 CURVE SMOOTH",
"371 230 OFFCURVE",
"428 213 OFFCURVE",
"428 142 CURVE SMOOTH",
"428 69 OFFCURVE",
"358 28 OFFCURVE",
"272 28 CURVE SMOOTH",
"189 28 OFFCURVE",
"104 58 OFFCURVE",
"83 138 CURVE",
"40 130 LINE",
"62 28 OFFCURVE",
"161 -14 OFFCURVE",
"268 -14 CURVE SMOOTH",
"388 -14 OFFCURVE",
"473 39 OFFCURVE",
"473 146 CURVE SMOOTH",
"473 230 OFFCURVE",
"406 266 OFFCURVE",
"318 289 CURVE SMOOTH",
"265 303 OFFCURVE",
"228 312 OFFCURVE",
"202 320 CURVE SMOOTH",
"136 338 OFFCURVE",
"100 366 OFFCURVE",
"100 410 CURVE SMOOTH",
"100 471 OFFCURVE",
"163 515 OFFCURVE",
"253 513 CURVE SMOOTH",
"336 511 OFFCURVE",
"415 482 OFFCURVE",
"431 391 CURVE",
"474 399 LINE"
);
}
);
width = 514;
},
{
layerId = "0DA27741-1AFD-43F2-A947-40AFBF8D6498";
paths = (
{
closed = 1;
nodes = (
"487 502 OFFCURVE",
"388 555 OFFCURVE",
"272 555 CURVE SMOOTH",
"160 555 OFFCURVE",
"58 500 OFFCURVE",
"58 390 CURVE SMOOTH",
"58 314 OFFCURVE",
"102 264 OFFCURVE",
"173 244 CURVE SMOOTH",
"211 233 OFFCURVE",
"256 221 OFFCURVE",
"307 207 CURVE SMOOTH",
"346 196 OFFCURVE",
"368 182 OFFCURVE",
"368 154 CURVE SMOOTH",
"368 119 OFFCURVE",
"334 102 OFFCURVE",
"291 102 CURVE SMOOTH",
"233 102 OFFCURVE",
"190 130 OFFCURVE",
"179 183 CURVE",
"40 162 LINE",
"61 39 OFFCURVE",
"152 -15 OFFCURVE",
"288 -15 CURVE SMOOTH",
"411 -15 OFFCURVE",
"507 48 OFFCURVE",
"507 160 CURVE SMOOTH",
"507 252 OFFCURVE",
"452 294 OFFCURVE",
"337 323 CURVE SMOOTH",
"298 333 OFFCURVE",
"272 340 OFFCURVE",
"245 348 CURVE SMOOTH",
"212 358 OFFCURVE",
"193 370 OFFCURVE",
"193 397 CURVE SMOOTH",
"193 424 OFFCURVE",
"230 440 OFFCURVE",
"276 438 CURVE SMOOTH",
"325 436 OFFCURVE",
"358 408 OFFCURVE",
"363 370 CURVE",
"502 395 LINE"
);
}
);
width = 547;
},
{
associatedMasterId = "0DA27741-1AFD-43F2-A947-40AFBF8D6498";
layerId = "A2873047-0ED6-4C67-9B4D-3870B51BD5C6";
width = 600;
},
{
associatedMasterId = "0DA27741-1AFD-43F2-A947-40AFBF8D6498";
layerId = "55314CA7-5524-4D70-B802-98D4FAE25636";
width = 516;
},
{
associatedMasterId = "0DA27741-1AFD-43F2-A947-40AFBF8D6498";
layerId = "13A3DD5D-E91B-4961-8595-F8141D3FA442";
width = 587;
}
);
leftKerningGroup = s;
note = s;
rightKerningGroup = s;
unicode = 0073;
},
{
glyphname = germandbls;
lastChange = "2019-03-25 05:54:30 +0000";
layers = (
{
layerId = "CAA188E2-8C62-414B-93AE-B576BEB044DB";
paths = (
{
closed = 1;
nodes = (
"116 0 LINE",
"116 521 LINE SMOOTH",
"116 550 OFFCURVE",
"118 580 OFFCURVE",
"126 606 CURVE SMOOTH",
"144 665 OFFCURVE",
"199 693 OFFCURVE",
"261 693 CURVE SMOOTH",
"350 693 OFFCURVE",
"404 640 OFFCURVE",
"404 550 CURVE SMOOTH",
"404 457 OFFCURVE",
"333 415 OFFCURVE",
"260 406 CURVE",
"260 364 LINE",
"386 361 OFFCURVE",
"470 298 OFFCURVE",
"470 201 CURVE SMOOTH",
"470 92 OFFCURVE",
"397 29 OFFCURVE",
"291 29 CURVE SMOOTH",
"257 29 OFFCURVE",
"232 31 OFFCURVE",
"200 42 CURVE",
"200 0 LINE",
"229 -12 OFFCURVE",
"261 -14 OFFCURVE",
"291 -14 CURVE SMOOTH",
"437 -14 OFFCURVE",
"515 72 OFFCURVE",
"515 201 CURVE SMOOTH",
"515 327 OFFCURVE",
"405 389 OFFCURVE",
"345 392 CURVE",
"412 409 OFFCURVE",
"449 472 OFFCURVE",
"449 549 CURVE SMOOTH",
"449 671 OFFCURVE",
"374 735 OFFCURVE",
"260 735 CURVE SMOOTH",
"170 735 OFFCURVE",
"113 697 OFFCURVE",
"85 628 CURVE SMOOTH",
"75 603 OFFCURVE",
"70 569 OFFCURVE",
"70 532 CURVE SMOOTH",
"70 0 LINE"
);
}
);
width = 575;
},
{
layerId = "0DA27741-1AFD-43F2-A947-40AFBF8D6498";
paths = (
{
closed = 1;
nodes = (
"207 0 LINE",
"207 493 LINE SMOOTH",
"207 522 OFFCURVE",
"211 550 OFFCURVE",
"220 566 CURVE SMOOTH",
"238 598 OFFCURVE",
"267 608 OFFCURVE",
"299 608 CURVE SMOOTH",
"347 608 OFFCURVE",
"393 578 OFFCURVE",
"393 526 CURVE SMOOTH",
"393 475 OFFCURVE",
"361 444 OFFCURVE",
"300 440 CURVE",
"300 322 LINE",
"389 322 OFFCURVE",
"451 292 OFFCURVE",
"451 216 CURVE SMOOTH",
"451 149 OFFCURVE",
"406 118 OFFCURVE",
"336 118 CURVE SMOOTH",
"305 118 OFFCURVE",
"280 126 OFFCURVE",
"263 133 CURVE",
"263 0 LINE",
"286 -10 OFFCURVE",
"312 -15 OFFCURVE",
"356 -15 CURVE SMOOTH",
"505 -15 OFFCURVE",
"587 71 OFFCURVE",
"587 214 CURVE SMOOTH",
"587 298 OFFCURVE",
"548 370 OFFCURVE",
"478 399 CURVE",
"514 433 OFFCURVE",
"530 478 OFFCURVE",
"530 529 CURVE SMOOTH",
"530 646 OFFCURVE",
"427 735 OFFCURVE",
"299 735 CURVE SMOOTH",
"202 735 OFFCURVE",
"109 695 OFFCURVE",
"78 594 CURVE SMOOTH",
"72 574 OFFCURVE",
"70 555 OFFCURVE",
"70 530 CURVE SMOOTH",
"70 0 LINE"
);
}
);
width = 647;
},
{
associatedMasterId = "0DA27741-1AFD-43F2-A947-40AFBF8D6498";
layerId = "A2873047-0ED6-4C67-9B4D-3870B51BD5C6";
width = 600;
},
{
associatedMasterId = "0DA27741-1AFD-43F2-A947-40AFBF8D6498";
layerId = "55314CA7-5524-4D70-B802-98D4FAE25636";
width = 628;
},
{
associatedMasterId = "0DA27741-1AFD-43F2-A947-40AFBF8D6498";
layerId = "13A3DD5D-E91B-4961-8595-F8141D3FA442";
width = 604;
}
);
leftKerningGroup = b;
leftMetricsKey = b;
rightKerningGroup = b;
rightMetricsKey = n;
unicode = 00DF;
},
{
glyphname = t;
lastChange = "2018-12-28 08:46:18 +0000";
layers = (
{
layerId = "CAA188E2-8C62-414B-93AE-B576BEB044DB";
paths = (
{
closed = 1;
nodes = (
"322 34 OFFCURVE",
"289 33 OFFCURVE",
"259 36 CURVE",
"228 39 OFFCURVE",
"201 55 OFFCURVE",
"190 82 CURVE",
"176 107 OFFCURVE",
"179 132 OFFCURVE",
"179 179 CURVE SMOOTH",
"179 690 LINE",
"137 690 LINE",
"137 179 LINE SMOOTH",
"137 132 OFFCURVE",
"136 98 OFFCURVE",
"152 63 CURVE",
"171 22 OFFCURVE",
"207 1 OFFCURVE",
"254 -5 CURVE",
"286 -9 OFFCURVE",
"317 -7 OFFCURVE",
"349 0 CURVE",
"349 40 LINE"
);
},
{
closed = 1;
nodes = (
"10 498 LINE",
"349 498 LINE",
"349 540 LINE",
"10 540 LINE"
);
}
);
width = 379;
},
{
layerId = "0DA27741-1AFD-43F2-A947-40AFBF8D6498";
paths = (
{
closed = 1;
nodes = (
"365 109 OFFCURVE",
"332 107 OFFCURVE",
"306 109 CURVE SMOOTH",
"285 111 OFFCURVE",
"262 119 OFFCURVE",
"249 140 CURVE SMOOTH",
"236 160 OFFCURVE",
"238 195 OFFCURVE",
"238 237 CURVE SMOOTH",
"238 690 LINE",
"102 690 LINE",
"102 229 LINE SMOOTH",
"102 164 OFFCURVE",
"96 108 OFFCURVE",
"126 64 CURVE SMOOTH",
"155 21 OFFCURVE",
"186 5 OFFCURVE",
"236 -4 CURVE SMOOTH",
"276 -11 OFFCURVE",
"352 -12 OFFCURVE",
"394 0 CURVE",
"394 113 LINE"
);
},
{
closed = 1;
nodes = (
"10 435 LINE",
"394 435 LINE",
"394 540 LINE",
"10 540 LINE"
);
}
);
width = 444;
},
{
associatedMasterId = "0DA27741-1AFD-43F2-A947-40AFBF8D6498";
layerId = "A2873047-0ED6-4C67-9B4D-3870B51BD5C6";
width = 600;
},
{
associatedMasterId = "0DA27741-1AFD-43F2-A947-40AFBF8D6498";
layerId = "55314CA7-5524-4D70-B802-98D4FAE25636";
width = 316;
},
{
associatedMasterId = "0DA27741-1AFD-43F2-A947-40AFBF8D6498";
layerId = "13A3DD5D-E91B-4961-8595-F8141D3FA442";
width = 555;
}
);
leftKerningGroup = t;
note = t;
rightKerningGroup = t;
unicode = 0074;
},
{
glyphname = tbar;
lastChange = "2019-02-12 06:46:27 +0000";
layers = (
{
components = (
{
name = t;
}
);
layerId = "CAA188E2-8C62-414B-93AE-B576BEB044DB";
paths = (
{
closed = 1;
nodes = (
"10 249 LINE",
"349 249 LINE",
"349 291 LINE",
"10 291 LINE"
);
}
);
width = 399;
},
{
components = (
{
name = t;
}
);
layerId = "0DA27741-1AFD-43F2-A947-40AFBF8D6498";
paths = (
{
closed = 1;
nodes = (
"10 228 LINE",
"414 228 LINE",
"414 333 LINE",
"10 333 LINE"
);
}
);
width = 464;
},
{
associatedMasterId = "0DA27741-1AFD-43F2-A947-40AFBF8D6498";
layerId = "A2873047-0ED6-4C67-9B4D-3870B51BD5C6";
width = 600;
},
{
associatedMasterId = "0DA27741-1AFD-43F2-A947-40AFBF8D6498";
layerId = "55314CA7-5524-4D70-B802-98D4FAE25636";
width = 316;
},
{
associatedMasterId = "0DA27741-1AFD-43F2-A947-40AFBF8D6498";
layerId = "13A3DD5D-E91B-4961-8595-F8141D3FA442";
width = 555;
}
);
leftKerningGroup = t;
leftMetricsKey = t;
rightKerningGroup = t;
unicode = 0167;
},
{
glyphname = tcedilla;
lastChange = "2019-02-12 06:46:27 +0000";
layers = (
{
components = (
{
name = t;
}
);
layerId = "CAA188E2-8C62-414B-93AE-B576BEB044DB";
paths = (
{
closed = 1;
nodes = (
"247 -95 OFFCURVE",
"229 -80 OFFCURVE",
"210 -72 CURVE",
"239 6 LINE",
"203 22 LINE",
"159 -97 LINE",
"191 -108 OFFCURVE",
"211 -113 OFFCURVE",
"221 -134 CURVE",
"229 -149 OFFCURVE",
"227 -165 OFFCURVE",
"218 -179 CURVE",
"210 -193 OFFCURVE",
"195 -200 OFFCURVE",
"176 -199 CURVE",
"164 -198 OFFCURVE",
"150 -194 OFFCURVE",
"136 -189 CURVE",
"122 -226 LINE",
"138 -233 OFFCURVE",
"155 -239 OFFCURVE",
"174 -240 CURVE",
"203 -243 OFFCURVE",
"237 -229 OFFCURVE",
"253 -203 CURVE",
"271 -178 OFFCURVE",
"273 -141 OFFCURVE",
"258 -115 CURVE"
);
}
);
width = 399;
},
{
components = (
{
name = t;
}
);
layerId = "0DA27741-1AFD-43F2-A947-40AFBF8D6498";
paths = (
{
closed = 1;
nodes = (
"282 -60 OFFCURVE",
"264 -46 OFFCURVE",
"246 -37 CURVE",
"264 17 LINE",
"197 51 LINE",
"150 -86 LINE",
"182 -95 OFFCURVE",
"209 -102 OFFCURVE",
"214 -123 CURVE SMOOTH",
"216 -131 OFFCURVE",
"214 -136 OFFCURVE",
"210 -142 CURVE SMOOTH",
"206 -148 OFFCURVE",
"197 -152 OFFCURVE",
"187 -152 CURVE SMOOTH",
"179 -152 OFFCURVE",
"170 -150 OFFCURVE",
"157 -146 CURVE",
"128 -224 LINE",
"145 -233 OFFCURVE",
"164 -240 OFFCURVE",
"186 -242 CURVE",
"228 -247 OFFCURVE",
"265 -229 OFFCURVE",
"289 -195 CURVE",
"311 -163 OFFCURVE",
"314 -114 OFFCURVE",
"294 -80 CURVE"
);
}
);
width = 464;
},
{
associatedMasterId = "0DA27741-1AFD-43F2-A947-40AFBF8D6498";
layerId = "A2873047-0ED6-4C67-9B4D-3870B51BD5C6";
width = 600;
},
{
associatedMasterId = "0DA27741-1AFD-43F2-A947-40AFBF8D6498";
layerId = "55314CA7-5524-4D70-B802-98D4FAE25636";
width = 316;
},
{
associatedMasterId = "0DA27741-1AFD-43F2-A947-40AFBF8D6498";
layerId = "13A3DD5D-E91B-4961-8595-F8141D3FA442";
width = 555;
}
);
leftKerningGroup = t;
leftMetricsKey = t;
rightKerningGroup = t;
unicode = 0163;
},
{
glyphname = v;
lastChange = "2019-03-25 02:37:53 +0000";
layers = (
{
layerId = "CAA188E2-8C62-414B-93AE-B576BEB044DB";
paths = (
{
closed = 1;
nodes = (
"239 61 LINE",
"64 540 LINE",
"20 540 LINE",
"216 0 LINE",
"262 0 LINE",
"458 540 LINE",
"413 540 LINE"
);
}
);
width = 478;
},
{
layerId = "0DA27741-1AFD-43F2-A947-40AFBF8D6498";
paths = (
{
closed = 1;
nodes = (
"284 166 LINE",
"156 540 LINE",
"20 540 LINE",
"216 0 LINE",
"352 0 LINE",
"548 540 LINE",
"412 540 LINE"
);
}
);
width = 568;
},
{
associatedMasterId = "0DA27741-1AFD-43F2-A947-40AFBF8D6498";
layerId = "A2873047-0ED6-4C67-9B4D-3870B51BD5C6";
width = 600;
},
{
associatedMasterId = "0DA27741-1AFD-43F2-A947-40AFBF8D6498";
layerId = "55314CA7-5524-4D70-B802-98D4FAE25636";
width = 476;
},
{
associatedMasterId = "0DA27741-1AFD-43F2-A947-40AFBF8D6498";
layerId = "13A3DD5D-E91B-4961-8595-F8141D3FA442";
width = 580;
}
);
leftKerningGroup = v;
rightKerningGroup = v;
unicode = 0076;
},
{
glyphname = w;
lastChange = "2018-08-24 13:58:22 +0000";
layers = (
{
layerId = "CAA188E2-8C62-414B-93AE-B576BEB044DB";
paths = (
{
closed = 1;
nodes = (
"537 72 LINE",
"394 540 LINE",
"350 540 LINE",
"207 72 LINE",
"64 540 LINE",
"20 540 LINE",
"185 0 LINE",
"229 0 LINE",
"372 469 LINE",
"515 0 LINE",
"559 0 LINE",
"724 540 LINE",
"681 540 LINE"
);
}
);
width = 744;
},
{
layerId = "0DA27741-1AFD-43F2-A947-40AFBF8D6498";
paths = (
{
closed = 1;
nodes = (
"563 218 LINE",
"464 540 LINE",
"351 540 LINE",
"252 218 LINE",
"154 540 LINE",
"20 541 LINE",
"185 0 LINE",
"289 0 LINE",
"407 352 LINE",
"516 0 LINE",
"629 0 LINE",
"794 540 LINE",
"661 540 LINE"
);
}
);
width = 814;
},
{
associatedMasterId = "0DA27741-1AFD-43F2-A947-40AFBF8D6498";
layerId = "A2873047-0ED6-4C67-9B4D-3870B51BD5C6";
width = 600;
},
{
associatedMasterId = "0DA27741-1AFD-43F2-A947-40AFBF8D6498";
layerId = "55314CA7-5524-4D70-B802-98D4FAE25636";
width = 809;
},
{
associatedMasterId = "0DA27741-1AFD-43F2-A947-40AFBF8D6498";
layerId = "13A3DD5D-E91B-4961-8595-F8141D3FA442";
width = 633;
}
);
leftKerningGroup = w;
note = w;
rightKerningGroup = w;
unicode = 0077;
},
{
glyphname = x;
lastChange = "2019-03-04 02:26:24 +0000";
layers = (
{
layerId = "CAA188E2-8C62-414B-93AE-B576BEB044DB";
paths = (
{
closed = 1;
nodes = (
"442 540 LINE",
"255 304 LINE",
"67 540 LINE",
"15 540 LINE",
"230 273 LINE",
"10 0 LINE",
"63 0 LINE",
"255 242 LINE",
"446 0 LINE",
"499 0 LINE",
"279 273 LINE",
"494 540 LINE"
);
}
);
width = 509;
},
{
layerId = "0DA27741-1AFD-43F2-A947-40AFBF8D6498";
paths = (
{
closed = 1;
nodes = (
"388 540 LINE",
"282 380 LINE",
"174 540 LINE",
"14 540 LINE",
"203 273 LINE",
"10 0 LINE",
"170 0 LINE",
"282 166 LINE",
"393 0 LINE",
"553 0 LINE",
"359 273 LINE",
"548 540 LINE"
);
}
);
width = 563;
},
{
associatedMasterId = "0DA27741-1AFD-43F2-A947-40AFBF8D6498";
layerId = "A2873047-0ED6-4C67-9B4D-3870B51BD5C6";
width = 600;
},
{
associatedMasterId = "0DA27741-1AFD-43F2-A947-40AFBF8D6498";
layerId = "55314CA7-5524-4D70-B802-98D4FAE25636";
width = 484;
},
{
associatedMasterId = "0DA27741-1AFD-43F2-A947-40AFBF8D6498";
layerId = "13A3DD5D-E91B-4961-8595-F8141D3FA442";
width = 581;
}
);
leftKerningGroup = x;
note = x;
rightKerningGroup = x;
unicode = 0078;
},
{
glyphname = y;
lastChange = "2019-01-07 09:50:30 +0000";
layers = (
{
layerId = "CAA188E2-8C62-414B-93AE-B576BEB044DB";
paths = (
{
closed = 1;
nodes = (
"20 540 LINE",
"240 0 LINE",
"263 54 LINE",
"66 540 LINE"
);
},
{
closed = 1;
nodes = (
"240 0 LINE",
"151 -240 LINE",
"198 -240 LINE",
"481 540 LINE",
"436 540 LINE"
);
}
);
width = 506;
},
{
layerId = "0DA27741-1AFD-43F2-A947-40AFBF8D6498";
paths = (
{
closed = 1;
nodes = (
"10 540 LINE",
"230 0 LINE",
"295 169 LINE",
"151 540 LINE"
);
},
{
closed = 1;
nodes = (
"227 0 LINE",
"139 -239 LINE",
"265 -240 LINE",
"570 540 LINE",
"434 540 LINE"
);
}
);
width = 570;
},
{
associatedMasterId = "0DA27741-1AFD-43F2-A947-40AFBF8D6498";
layerId = "A2873047-0ED6-4C67-9B4D-3870B51BD5C6";
width = 600;
},
{
associatedMasterId = "0DA27741-1AFD-43F2-A947-40AFBF8D6498";
layerId = "55314CA7-5524-4D70-B802-98D4FAE25636";
width = 456;
},
{
associatedMasterId = "0DA27741-1AFD-43F2-A947-40AFBF8D6498";
layerId = "13A3DD5D-E91B-4961-8595-F8141D3FA442";
width = 577;
},
{
associatedMasterId = "0DA27741-1AFD-43F2-A947-40AFBF8D6498";
components = (
{
name = y2.alt;
transform = "{1, 0, 0, 1, 13, 0}";
}
);
layerId = "0945A77F-B33F-4B17-8B55-225B30755A13";
name = "Dec 28 18, 16:43";
paths = (
{
closed = 1;
nodes = (
"303 157 LINE",
"169 540 LINE",
"33 540 LINE",
"240 -15 LINE",
"143 -240 LINE",
"279 -240 LINE",
"576 540 LINE",
"440 540 LINE"
);
}
);
width = 586;
}
);
leftKerningGroup = y;
note = y;
rightKerningGroup = y;
unicode = 0079;
},
{
glyphname = z;
lastChange = "2019-01-04 08:32:47 +0000";
layers = (
{
layerId = "CAA188E2-8C62-414B-93AE-B576BEB044DB";
paths = (
{
closed = 1;
nodes = (
"97 44 LINE",
"487 523 LINE",
"487 540 LINE",
"44 540 LINE",
"44 496 LINE",
"410 496 LINE",
"20 15 LINE",
"20 0 LINE",
"463 0 LINE",
"463 44 LINE"
);
}
);
width = 527;
},
{
layerId = "0DA27741-1AFD-43F2-A947-40AFBF8D6498";
paths = (
{
closed = 1;
nodes = (
"231 118 LINE",
"495 523 LINE",
"495 540 LINE",
"50 540 LINE",
"50 422 LINE",
"285 422 LINE",
"20 17 LINE",
"20 0 LINE",
"485 0 LINE",
"485 118 LINE"
);
}
);
width = 535;
},
{
associatedMasterId = "0DA27741-1AFD-43F2-A947-40AFBF8D6498";
layerId = "A2873047-0ED6-4C67-9B4D-3870B51BD5C6";
width = 600;
},
{
associatedMasterId = "0DA27741-1AFD-43F2-A947-40AFBF8D6498";
layerId = "55314CA7-5524-4D70-B802-98D4FAE25636";
width = 535;
},
{
associatedMasterId = "0DA27741-1AFD-43F2-A947-40AFBF8D6498";
layerId = "13A3DD5D-E91B-4961-8595-F8141D3FA442";
width = 590;
}
);
leftKerningGroup = z;
note = z;
rightKerningGroup = z;
unicode = 007A;
},
{
glyphname = fl;
lastChange = "2019-01-17 03:57:22 +0000";
layers = (
{
components = (
{
name = f;
},
{
name = l;
transform = "{1, 0, 0, 1, 379, 0}";
}
);
layerId = "CAA188E2-8C62-414B-93AE-B576BEB044DB";
paths = (
{
closed = 1;
nodes = (
"459 540 LINE",
"459 498 LINE",
"329 498 LINE",
"329 540 LINE"
);
}
);
width = 581;
},
{
components = (
{
name = f;
},
{
name = l;
transform = "{1, 0, 0, 1, 415, 0}";
}
);
layerId = "0DA27741-1AFD-43F2-A947-40AFBF8D6498";
paths = (
{
closed = 1;
nodes = (
"500 540 LINE",
"500 435 LINE",
"370 435 LINE",
"370 540 LINE"
);
}
);
width = 711;
},
{
associatedMasterId = "0DA27741-1AFD-43F2-A947-40AFBF8D6498";
layerId = "A2873047-0ED6-4C67-9B4D-3870B51BD5C6";
width = 600;
},
{
associatedMasterId = "0DA27741-1AFD-43F2-A947-40AFBF8D6498";
layerId = "55314CA7-5524-4D70-B802-98D4FAE25636";
width = 660;
},
{
associatedMasterId = "0DA27741-1AFD-43F2-A947-40AFBF8D6498";
layerId = "13A3DD5D-E91B-4961-8595-F8141D3FA442";
width = 610;
}
);
leftKerningGroup = f;
leftMetricsKey = f;
rightKerningGroup = l;
rightMetricsKey = l;
unicode = FB02;
},
{
glyphname = "Be-cy";
lastChange = "2019-03-25 01:50:06 +0000";
layers = (
{
layerId = "CAA188E2-8C62-414B-93AE-B576BEB044DB";
paths = (
{
closed = 1;
nodes = (
"100 678 LINE",
"490 678 LINE",
"490 720 LINE",
"100 720 LINE"
);
},
{
closed = 1;
nodes = (
"70 0 LINE",
"112 0 LINE",
"112 720 LINE",
"70 720 LINE"
);
},
{
closed = 1;
nodes = (
"112 0 LINE",
"335 0 LINE SMOOTH",
"349 0 OFFCURVE",
"363 1 OFFCURVE",
"381 4 CURVE SMOOTH",
"485 20 OFFCURVE",
"551 108 OFFCURVE",
"551 216 CURVE SMOOTH",
"551 324 OFFCURVE",
"485 412 OFFCURVE",
"381 428 CURVE SMOOTH",
"363 431 OFFCURVE",
"349 432 OFFCURVE",
"335 432 CURVE SMOOTH",
"112 432 LINE",
"112 390 LINE",
"335 390 LINE SMOOTH",
"346 390 OFFCURVE",
"363 389 OFFCURVE",
"379 386 CURVE SMOOTH",
"462 370 OFFCURVE",
"506 297 OFFCURVE",
"506 216 CURVE SMOOTH",
"506 135 OFFCURVE",
"462 62 OFFCURVE",
"379 46 CURVE SMOOTH",
"363 43 OFFCURVE",
"346 42 OFFCURVE",
"335 42 CURVE SMOOTH",
"112 42 LINE"
);
}
);
width = 581;
},
{
layerId = "0DA27741-1AFD-43F2-A947-40AFBF8D6498";
paths = (
{
closed = 1;
nodes = (
"160 593 LINE",
"564 593 LINE",
"564 720 LINE",
"160 720 LINE"
);
},
{
closed = 1;
nodes = (
"70 0 LINE",
"206 0 LINE",
"206 720 LINE",
"70 720 LINE"
);
},
{
closed = 1;
nodes = (
"186 0 LINE",
"374 0 LINE SMOOTH",
"388 0 OFFCURVE",
"415 1 OFFCURVE",
"434 3 CURVE SMOOTH",
"559 16 OFFCURVE",
"620 113 OFFCURVE",
"620 228 CURVE SMOOTH",
"620 343 OFFCURVE",
"558 440 OFFCURVE",
"434 453 CURVE SMOOTH",
"415 455 OFFCURVE",
"387 456 OFFCURVE",
"374 456 CURVE SMOOTH",
"186 456 LINE",
"186 329 LINE",
"368 329 LINE SMOOTH",
"382 329 OFFCURVE",
"400 328 OFFCURVE",
"414 325 CURVE SMOOTH",
"469 313 OFFCURVE",
"483 267 OFFCURVE",
"483 228 CURVE SMOOTH",
"483 189 OFFCURVE",
"469 143 OFFCURVE",
"414 131 CURVE SMOOTH",
"400 128 OFFCURVE",
"382 127 OFFCURVE",
"368 127 CURVE SMOOTH",
"186 127 LINE"
);
}
);
width = 650;
},
{
associatedMasterId = "0DA27741-1AFD-43F2-A947-40AFBF8D6498";
layerId = "A2873047-0ED6-4C67-9B4D-3870B51BD5C6";
width = 600;
},
{
associatedMasterId = "0DA27741-1AFD-43F2-A947-40AFBF8D6498";
layerId = "55314CA7-5524-4D70-B802-98D4FAE25636";
width = 600;
},
{
associatedMasterId = "0DA27741-1AFD-43F2-A947-40AFBF8D6498";
layerId = "13A3DD5D-E91B-4961-8595-F8141D3FA442";
width = 600;
}
);
leftKerningGroup = N;
leftMetricsKey = B;
rightKerningGroup = P;
rightMetricsKey = P;
unicode = 0411;
},
{
glyphname = "Ge-cy";
lastChange = "2019-02-12 06:46:48 +0000";
layers = (
{
layerId = "CAA188E2-8C62-414B-93AE-B576BEB044DB";
paths = (
{
closed = 1;
nodes = (
"70 0 LINE",
"112 0 LINE",
"112 700 LINE",
"70 700 LINE"
);
},
{
closed = 1;
nodes = (
"70 678 LINE",
"510 678 LINE",
"510 720 LINE",
"70 720 LINE"
);
}
);
width = 520;
},
{
layerId = "0DA27741-1AFD-43F2-A947-40AFBF8D6498";
paths = (
{
closed = 1;
nodes = (
"70 0 LINE",
"206 0 LINE",
"206 700 LINE",
"70 700 LINE"
);
},
{
closed = 1;
nodes = (
"70 593 LINE",
"540 593 LINE",
"540 720 LINE",
"70 720 LINE"
);
}
);
width = 550;
},
{
associatedMasterId = "0DA27741-1AFD-43F2-A947-40AFBF8D6498";
layerId = "A2873047-0ED6-4C67-9B4D-3870B51BD5C6";
width = 600;
},
{
associatedMasterId = "0DA27741-1AFD-43F2-A947-40AFBF8D6498";
layerId = "55314CA7-5524-4D70-B802-98D4FAE25636";
width = 488;
},
{
associatedMasterId = "0DA27741-1AFD-43F2-A947-40AFBF8D6498";
layerId = "13A3DD5D-E91B-4961-8595-F8141D3FA442";
width = 582;
}
);
leftKerningGroup = B;
leftMetricsKey = B;
rightKerningGroup = T;
rightMetricsKey = T;
unicode = 0413;
},
{
glyphname = "De-cy";
lastChange = "2019-03-25 01:15:20 +0000";
layers = (
{
layerId = "CAA188E2-8C62-414B-93AE-B576BEB044DB";
paths = (
{
closed = 1;
nodes = (
"638 720 LINE",
"193 720 LINE",
"186 556 OFFCURVE",
"179 443 OFFCURVE",
"151 304 CURVE SMOOTH",
"127 185 OFFCURVE",
"94 111 OFFCURVE",
"40 42 CURVE",
"40 -80 LINE",
"82 -80 LINE",
"82 0 LINE",
"646 0 LINE",
"646 -80 LINE",
"688 -80 LINE",
"688 42 LINE",
"638 42 LINE"
);
},
{
closed = 1;
nodes = (
"97 42 LINE",
"132 103 OFFCURVE",
"166 160 OFFCURVE",
"190 279 CURVE SMOOTH",
"217 415 OFFCURVE",
"229 545 OFFCURVE",
"235 678 CURVE",
"596 678 LINE",
"596 42 LINE"
);
}
);
width = 728;
},
{
layerId = "0DA27741-1AFD-43F2-A947-40AFBF8D6498";
paths = (
{
closed = 1;
nodes = (
"672 720 LINE",
"194 721 LINE",
"184 575 OFFCURVE",
"179 466 OFFCURVE",
"152 346 CURVE SMOOTH",
"124 222 OFFCURVE",
"87 133 OFFCURVE",
"40 105 CURVE",
"40 -90 LINE",
"176 -90 LINE",
"176 0 LINE",
"591 0 LINE",
"591 -90 LINE",
"727 -90 LINE",
"727 105 LINE",
"672 105 LINE"
);
},
{
closed = 1;
nodes = (
"203 105 LINE",
"237 157 OFFCURVE",
"256 221 OFFCURVE",
"279 324 CURVE SMOOTH",
"302 429 OFFCURVE",
"311 517 OFFCURVE",
"318 616 CURVE",
"536 615 LINE",
"536 105 LINE"
);
}
);
width = 767;
},
{
associatedMasterId = "0DA27741-1AFD-43F2-A947-40AFBF8D6498";
layerId = "A2873047-0ED6-4C67-9B4D-3870B51BD5C6";
width = 600;
},
{
associatedMasterId = "0DA27741-1AFD-43F2-A947-40AFBF8D6498";
layerId = "55314CA7-5524-4D70-B802-98D4FAE25636";
width = 771;
},
{
associatedMasterId = "0DA27741-1AFD-43F2-A947-40AFBF8D6498";
layerId = "13A3DD5D-E91B-4961-8595-F8141D3FA442";
width = 627;
}
);
leftKerningGroup = A;
rightKerningGroup = N;
unicode = 0414;
},
{
glyphname = "Zhe-cy";
lastChange = "2019-02-12 06:46:48 +0000";
layers = (
{
layerId = "CAA188E2-8C62-414B-93AE-B576BEB044DB";
paths = (
{
closed = 1;
nodes = (
"61 0 LINE",
"291 354 LINE",
"425 354 LINE",
"425 0 LINE",
"467 0 LINE",
"467 354 LINE",
"601 354 LINE",
"831 0 LINE",
"882 0 LINE",
"638 375 LINE",
"771 630 LINE SMOOTH",
"782 650 OFFCURVE",
"797 665 OFFCURVE",
"812 671 CURVE SMOOTH",
"827 677 OFFCURVE",
"841 680 OFFCURVE",
"860 678 CURVE",
"863 720 LINE",
"837 723 OFFCURVE",
"810 724 OFFCURVE",
"781 708 CURVE SMOOTH",
"759 696 OFFCURVE",
"745 673 OFFCURVE",
"733 650 CURVE SMOOTH",
"602 396 LINE",
"467 396 LINE",
"467 720 LINE",
"425 720 LINE",
"425 396 LINE",
"290 396 LINE",
"159 650 LINE SMOOTH",
"146 673 OFFCURVE",
"133 696 OFFCURVE",
"111 708 CURVE SMOOTH",
"82 723 OFFCURVE",
"55 723 OFFCURVE",
"29 720 CURVE",
"32 678 LINE",
"51 680 OFFCURVE",
"65 677 OFFCURVE",
"80 671 CURVE SMOOTH",
"95 665 OFFCURVE",
"110 650 OFFCURVE",
"121 630 CURVE SMOOTH",
"254 375 LINE",
"10 0 LINE"
);
}
);
width = 892;
},
{
layerId = "0DA27741-1AFD-43F2-A947-40AFBF8D6498";
paths = (
{
closed = 1;
nodes = (
"175 0 LINE",
"375 322 LINE",
"454 322 LINE",
"454 0 LINE",
"593 0 LINE",
"593 322 LINE",
"672 322 LINE",
"872 0 LINE",
"1037 0 LINE",
"793 375 LINE",
"880 540 LINE SMOOTH",
"893 564 OFFCURVE",
"912 580 OFFCURVE",
"932 587 CURVE SMOOTH",
"951 594 OFFCURVE",
"967 596 OFFCURVE",
"1000 594 CURVE",
"1011 720 LINE",
"977 735 OFFCURVE",
"922 737 OFFCURVE",
"872 715 CURVE SMOOTH",
"824 694 OFFCURVE",
"794 653 OFFCURVE",
"770 606 CURVE SMOOTH",
"677 427 LINE",
"593 427 LINE",
"593 720 LINE",
"454 720 LINE",
"454 427 LINE",
"370 427 LINE",
"277 606 LINE SMOOTH",
"253 653 OFFCURVE",
"223 694 OFFCURVE",
"175 715 CURVE SMOOTH",
"125 737 OFFCURVE",
"70 735 OFFCURVE",
"36 720 CURVE",
"47 594 LINE",
"80 596 OFFCURVE",
"96 594 OFFCURVE",
"115 587 CURVE SMOOTH",
"135 580 OFFCURVE",
"154 564 OFFCURVE",
"167 540 CURVE SMOOTH",
"254 375 LINE",
"10 0 LINE"
);
}
);
width = 1047;
},
{
associatedMasterId = "0DA27741-1AFD-43F2-A947-40AFBF8D6498";
layerId = "A2873047-0ED6-4C67-9B4D-3870B51BD5C6";
width = 600;
},
{
associatedMasterId = "0DA27741-1AFD-43F2-A947-40AFBF8D6498";
layerId = "55314CA7-5524-4D70-B802-98D4FAE25636";
width = 968;
},
{
associatedMasterId = "0DA27741-1AFD-43F2-A947-40AFBF8D6498";
layerId = "13A3DD5D-E91B-4961-8595-F8141D3FA442";
width = 659;
}
);
leftKerningGroup = X;
leftMetricsKey = X;
rightKerningGroup = K;
rightMetricsKey = X;
unicode = 0416;
},
{
glyphname = "Ze-cy";
lastChange = "2019-03-25 07:05:47 +0000";
layers = (
{
layerId = "CAA188E2-8C62-414B-93AE-B576BEB044DB";
paths = (
{
closed = 1;
nodes = (
"113 616 LINE",
"132 634 OFFCURVE",
"153 652 OFFCURVE",
"187 668 CURVE SMOOTH",
"230 688 OFFCURVE",
"280 693 OFFCURVE",
"327 693 CURVE SMOOTH",
"372 693 OFFCURVE",
"421 683 OFFCURVE",
"457 659 CURVE SMOOTH",
"493 635 OFFCURVE",
"514 594 OFFCURVE",
"513 549 CURVE SMOOTH",
"514 505 OFFCURVE",
"494 464 OFFCURVE",
"457 440 CURVE SMOOTH",
"421 416 OFFCURVE",
"374 410 OFFCURVE",
"327 408 CURVE SMOOTH",
"289 406 OFFCURVE",
"252 406 OFFCURVE",
"214 406 CURVE",
"214 364 LINE",
"252 364 OFFCURVE",
"289 363 OFFCURVE",
"327 360 CURVE SMOOTH",
"379 356 OFFCURVE",
"432 346 OFFCURVE",
"473 317 CURVE SMOOTH",
"513 288 OFFCURVE",
"528 248 OFFCURVE",
"529 196 CURVE SMOOTH",
"530 147 OFFCURVE",
"511 98 OFFCURVE",
"472 69 CURVE SMOOTH",
"434 40 OFFCURVE",
"381 27 OFFCURVE",
"327 27 CURVE SMOOTH",
"278 27 OFFCURVE",
"232 30 OFFCURVE",
"174 60 CURVE SMOOTH",
"136 80 OFFCURVE",
"97 120 OFFCURVE",
"78 162 CURVE",
"40 144 LINE",
"67 86 OFFCURVE",
"104 52 OFFCURVE",
"150 25 CURVE SMOOTH",
"203 -6 OFFCURVE",
"269 -15 OFFCURVE",
"327 -15 CURVE SMOOTH",
"385 -15 OFFCURVE",
"445 -4 OFFCURVE",
"496 33 CURVE SMOOTH",
"548 71 OFFCURVE",
"574 129 OFFCURVE",
"574 195 CURVE SMOOTH",
"574 271 OFFCURVE",
"550 319 OFFCURVE",
"500 355 CURVE SMOOTH",
"480 369 OFFCURVE",
"462 379 OFFCURVE",
"445 385 CURVE",
"458 390 OFFCURVE",
"470 396 OFFCURVE",
"482 404 CURVE SMOOTH",
"531 436 OFFCURVE",
"558 489 OFFCURVE",
"558 549 CURVE SMOOTH",
"558 608 OFFCURVE",
"538 660 OFFCURVE",
"482 695 CURVE SMOOTH",
"436 724 OFFCURVE",
"381 735 OFFCURVE",
"327 735 CURVE SMOOTH",
"273 735 OFFCURVE",
"222 730 OFFCURVE",
"166 706 CURVE SMOOTH",
"126 689 OFFCURVE",
"100 665 OFFCURVE",
"82 647 CURVE"
);
}
);
width = 614;
},
{
layerId = "0DA27741-1AFD-43F2-A947-40AFBF8D6498";
paths = (
{
closed = 1;
nodes = (
"148 524 LINE",
"168 544 OFFCURVE",
"194 563 OFFCURVE",
"224 579 CURVE SMOOTH",
"260 597 OFFCURVE",
"288 608 OFFCURVE",
"331 608 CURVE SMOOTH",
"364 608 OFFCURVE",
"406 601 OFFCURVE",
"434 578 CURVE SMOOTH",
"454 561 OFFCURVE",
"463 542 OFFCURVE",
"464 516 CURVE SMOOTH",
"465 497 OFFCURVE",
"458 473 OFFCURVE",
"439 458 CURVE SMOOTH",
"419 441 OFFCURVE",
"393 438 OFFCURVE",
"358 436 CURVE SMOOTH",
"322 434 OFFCURVE",
"286 433 OFFCURVE",
"250 433 CURVE",
"250 305 LINE",
"286 305 OFFCURVE",
"322 305 OFFCURVE",
"358 303 CURVE SMOOTH",
"397 301 OFFCURVE",
"432 295 OFFCURVE",
"456 275 CURVE SMOOTH",
"477 258 OFFCURVE",
"485 238 OFFCURVE",
"485 211 CURVE SMOOTH",
"485 177 OFFCURVE",
"467 152 OFFCURVE",
"434 133 CURVE SMOOTH",
"404 116 OFFCURVE",
"370 112 OFFCURVE",
"335 112 CURVE SMOOTH",
"296 112 OFFCURVE",
"253 121 OFFCURVE",
"218 142 CURVE SMOOTH",
"186 161 OFFCURVE",
"159 187 OFFCURVE",
"140 217 CURVE",
"40 138 LINE",
"69 89 OFFCURVE",
"109 51 OFFCURVE",
"159 23 CURVE SMOOTH",
"210 -5 OFFCURVE",
"276 -15 OFFCURVE",
"336 -15 CURVE SMOOTH",
"399 -15 OFFCURVE",
"474 -5 OFFCURVE",
"532 36 CURVE SMOOTH",
"587 75 OFFCURVE",
"629 143 OFFCURVE",
"629 211 CURVE SMOOTH",
"629 253 OFFCURVE",
"623 286 OFFCURVE",
"606 315 CURVE SMOOTH",
"591 340 OFFCURVE",
"573 357 OFFCURVE",
"551 373 CURVE",
"569 393 OFFCURVE",
"586 417 OFFCURVE",
"595 441 CURVE SMOOTH",
"603 462 OFFCURVE",
"609 497 OFFCURVE",
"609 518 CURVE SMOOTH",
"609 582 OFFCURVE",
"579 642 OFFCURVE",
"527 679 CURVE SMOOTH",
"476 719 OFFCURVE",
"400 735 OFFCURVE",
"333 735 CURVE SMOOTH",
"278 735 OFFCURVE",
"220 722 OFFCURVE",
"171 697 CURVE SMOOTH",
"134 678 OFFCURVE",
"93 651 OFFCURVE",
"64 622 CURVE"
);
}
);
width = 669;
},
{
associatedMasterId = "0DA27741-1AFD-43F2-A947-40AFBF8D6498";
layerId = "A2873047-0ED6-4C67-9B4D-3870B51BD5C6";
width = 600;
},
{
associatedMasterId = "0DA27741-1AFD-43F2-A947-40AFBF8D6498";
layerId = "55314CA7-5524-4D70-B802-98D4FAE25636";
width = 594;
},
{
associatedMasterId = "0DA27741-1AFD-43F2-A947-40AFBF8D6498";
layerId = "13A3DD5D-E91B-4961-8595-F8141D3FA442";
width = 599;
}
);
leftKerningGroup = O;
leftMetricsKey = O;
rightKerningGroup = B;
rightMetricsKey = O;
unicode = 0417;
},
{
glyphname = "El-cy";
lastChange = "2019-03-25 02:01:56 +0000";
layers = (
{
layerId = "CAA188E2-8C62-414B-93AE-B576BEB044DB";
paths = (
{
closed = 1;
nodes = (
"178 720 LINE",
"171 553 OFFCURVE",
"159 367 OFFCURVE",
"136 221 CURVE SMOOTH",
"113 78 OFFCURVE",
"112 29 OFFCURVE",
"20 42 CURVE",
"20 0 LINE",
"145 -35 OFFCURVE",
"163 70 OFFCURVE",
"181 194 CURVE SMOOTH",
"205 361 OFFCURVE",
"213 538 OFFCURVE",
"222 678 CURVE",
"572 678 LINE",
"572 0 LINE",
"614 0 LINE",
"614 720 LINE"
);
}
);
width = 684;
},
{
layerId = "0DA27741-1AFD-43F2-A947-40AFBF8D6498";
paths = (
{
closed = 1;
nodes = (
"169 720 LINE",
"161 552 OFFCURVE",
"152 413 OFFCURVE",
"122 244 CURVE SMOOTH",
"104 141 OFFCURVE",
"79 108 OFFCURVE",
"20 113 CURVE",
"20 0 LINE",
"177 -31 OFFCURVE",
"219 51 OFFCURVE",
"247 194 CURVE SMOOTH",
"275 337 OFFCURVE",
"286 474 OFFCURVE",
"294 593 CURVE",
"524 593 LINE",
"524 0 LINE",
"660 0 LINE",
"660 720 LINE"
);
}
);
width = 730;
},
{
associatedMasterId = "0DA27741-1AFD-43F2-A947-40AFBF8D6498";
layerId = "A2873047-0ED6-4C67-9B4D-3870B51BD5C6";
width = 600;
},
{
associatedMasterId = "0DA27741-1AFD-43F2-A947-40AFBF8D6498";
layerId = "55314CA7-5524-4D70-B802-98D4FAE25636";
width = 666;
},
{
associatedMasterId = "0DA27741-1AFD-43F2-A947-40AFBF8D6498";
layerId = "13A3DD5D-E91B-4961-8595-F8141D3FA442";
width = 611;
}
);
leftKerningGroup = A;
rightKerningGroup = H;
rightMetricsKey = H;
unicode = 041B;
},
{
glyphname = "U-cy";
lastChange = "2019-03-25 02:34:30 +0000";
layers = (
{
layerId = "CAA188E2-8C62-414B-93AE-B576BEB044DB";
paths = (
{
closed = 1;
nodes = (
"303 202 LINE",
"65 720 LINE",
"20 720 LINE",
"281 155 LINE",
"209 0 LINE",
"257 0 LINE",
"589 720 LINE",
"544 720 LINE"
);
}
);
width = 614;
},
{
layerId = "0DA27741-1AFD-43F2-A947-40AFBF8D6498";
paths = (
{
closed = 1;
nodes = (
"322 331 LINE",
"148 720 LINE",
"10 720 LINE",
"257 191 LINE",
"159 0 LINE",
"301 0 LINE",
"641 720 LINE",
"501 720 LINE"
);
}
);
width = 641;
},
{
associatedMasterId = "0DA27741-1AFD-43F2-A947-40AFBF8D6498";
layerId = "A2873047-0ED6-4C67-9B4D-3870B51BD5C6";
width = 600;
},
{
associatedMasterId = "0DA27741-1AFD-43F2-A947-40AFBF8D6498";
layerId = "55314CA7-5524-4D70-B802-98D4FAE25636";
width = 536;
},
{
associatedMasterId = "0DA27741-1AFD-43F2-A947-40AFBF8D6498";
layerId = "13A3DD5D-E91B-4961-8595-F8141D3FA442";
width = 590;
}
);
leftKerningGroup = X;
leftMetricsKey = y;
rightKerningGroup = Y;
rightMetricsKey = y;
unicode = 0423;
},
{
glyphname = "Ef-cy";
lastChange = "2019-02-12 06:46:48 +0000";
layers = (
{
layerId = "CAA188E2-8C62-414B-93AE-B576BEB044DB";
paths = (
{
closed = 1;
nodes = (
"288 92 OFFCURVE",
"205 110 OFFCURVE",
"137 164 CURVE",
"69 217 OFFCURVE",
"37 302 OFFCURVE",
"40 383 CURVE SMOOTH",
"37 464 OFFCURVE",
"69 549 OFFCURVE",
"137 602 CURVE",
"204 653 OFFCURVE",
"283 672 OFFCURVE",
"376 676 CURVE SMOOTH",
"465 672 OFFCURVE",
"546 655 OFFCURVE",
"615 602 CURVE",
"683 549 OFFCURVE",
"715 464 OFFCURVE",
"712 383 CURVE SMOOTH",
"715 302 OFFCURVE",
"683 217 OFFCURVE",
"615 164 CURVE",
"547 112 OFFCURVE",
"467 92 OFFCURVE",
"376 90 CURVE SMOOTH"
);
},
{
closed = 1;
nodes = (
"455 135 OFFCURVE",
"527 151 OFFCURVE",
"590 200 CURVE",
"646 246 OFFCURVE",
"667 312 OFFCURVE",
"667 383 CURVE SMOOTH",
"667 454 OFFCURVE",
"647 520 OFFCURVE",
"590 566 CURVE",
"534 612 OFFCURVE",
"455 632 OFFCURVE",
"376 634 CURVE SMOOTH",
"300 632 OFFCURVE",
"220 614 OFFCURVE",
"162 566 CURVE",
"105 520 OFFCURVE",
"85 454 OFFCURVE",
"85 383 CURVE SMOOTH",
"85 312 OFFCURVE",
"106 246 OFFCURVE",
"162 200 CURVE",
"223 152 OFFCURVE",
"294 135 OFFCURVE",
"376 133 CURVE SMOOTH"
);
},
{
closed = 1;
nodes = (
"355 0 LINE",
"355 720 LINE",
"397 720 LINE",
"397 0 LINE"
);
}
);
width = 752;
},
{
layerId = "0DA27741-1AFD-43F2-A947-40AFBF8D6498";
paths = (
{
closed = 1;
nodes = (
"315 90 OFFCURVE",
"233 101 OFFCURVE",
"159 150 CURVE",
"84 201 OFFCURVE",
"40 283 OFFCURVE",
"40 380 CURVE SMOOTH",
"40 475 OFFCURVE",
"80 558 OFFCURVE",
"157 612 CURVE",
"232 662 OFFCURVE",
"314 674 OFFCURVE",
"390 675 CURVE SMOOTH",
"465 676 OFFCURVE",
"547 662 OFFCURVE",
"622 612 CURVE",
"700 559 OFFCURVE",
"740 475 OFFCURVE",
"740 380 CURVE SMOOTH",
"740 283 OFFCURVE",
"700 203 OFFCURVE",
"621 150 CURVE",
"546 101 OFFCURVE",
"465 90 OFFCURVE",
"390 90 CURVE SMOOTH"
);
},
{
closed = 1;
nodes = (
"448 225 OFFCURVE",
"505 239 OFFCURVE",
"542 266 CURVE",
"580 292 OFFCURVE",
"596 329 OFFCURVE",
"596 380 CURVE SMOOTH",
"596 431 OFFCURVE",
"578 468 OFFCURVE",
"541 493 CURVE",
"504 519 OFFCURVE",
"447 531 OFFCURVE",
"390 531 CURVE SMOOTH",
"332 531 OFFCURVE",
"276 519 OFFCURVE",
"239 493 CURVE",
"201 468 OFFCURVE",
"184 431 OFFCURVE",
"184 380 CURVE SMOOTH",
"184 329 OFFCURVE",
"200 292 OFFCURVE",
"237 266 CURVE",
"275 239 OFFCURVE",
"332 227 OFFCURVE",
"390 226 CURVE SMOOTH"
);
},
{
closed = 1;
nodes = (
"322 0 LINE",
"322 720 LINE",
"457 720 LINE",
"457 0 LINE"
);
}
);
width = 780;
},
{
associatedMasterId = "0DA27741-1AFD-43F2-A947-40AFBF8D6498";
layerId = "A2873047-0ED6-4C67-9B4D-3870B51BD5C6";
width = 600;
},
{
associatedMasterId = "0DA27741-1AFD-43F2-A947-40AFBF8D6498";
layerId = "55314CA7-5524-4D70-B802-98D4FAE25636";
width = 831;
},
{
associatedMasterId = "0DA27741-1AFD-43F2-A947-40AFBF8D6498";
layerId = "13A3DD5D-E91B-4961-8595-F8141D3FA442";
width = 637;
}
);
leftKerningGroup = O;
leftMetricsKey = O;
rightKerningGroup = O;
rightMetricsKey = O;
unicode = 0424;
},
{
glyphname = "Che-cy";
lastChange = "2019-02-12 06:46:48 +0000";
layers = (
{
layerId = "CAA188E2-8C62-414B-93AE-B576BEB044DB";
paths = (
{
closed = 1;
nodes = (
"515 361 LINE",
"479 330 OFFCURVE",
"424 301 OFFCURVE",
"322 301 CURVE SMOOTH",
"265 301 OFFCURVE",
"206 320 OFFCURVE",
"168 367 CURVE SMOOTH",
"116 431 OFFCURVE",
"112 486 OFFCURVE",
"112 586 CURVE",
"112 720 LINE",
"70 720 LINE",
"70 586 LINE",
"70 479 OFFCURVE",
"73 411 OFFCURVE",
"135 339 CURVE SMOOTH",
"181 285 OFFCURVE",
"247 260 OFFCURVE",
"321 260 CURVE SMOOTH",
"414 260 OFFCURVE",
"473 288 OFFCURVE",
"515 315 CURVE",
"515 0 LINE",
"557 0 LINE",
"557 720 LINE",
"515 720 LINE"
);
}
);
width = 627;
},
{
layerId = "0DA27741-1AFD-43F2-A947-40AFBF8D6498";
paths = (
{
closed = 1;
nodes = (
"479 404 LINE",
"452 379 OFFCURVE",
"407 366 OFFCURVE",
"353 366 CURVE SMOOTH",
"311 366 OFFCURVE",
"267 377 OFFCURVE",
"239 414 CURVE SMOOTH",
"212 450 OFFCURVE",
"208 503 OFFCURVE",
"208 554 CURVE SMOOTH",
"208 720 LINE",
"70 720 LINE",
"70 523 LINE SMOOTH",
"70 448 OFFCURVE",
"75 384 OFFCURVE",
"120 325 CURVE SMOOTH",
"170 260 OFFCURVE",
"251 234 OFFCURVE",
"332 234 CURVE SMOOTH",
"391 234 OFFCURVE",
"439 247 OFFCURVE",
"479 279 CURVE",
"479 0 LINE",
"616 0 LINE",
"616 720 LINE",
"479 720 LINE"
);
}
);
width = 686;
},
{
associatedMasterId = "0DA27741-1AFD-43F2-A947-40AFBF8D6498";
layerId = "A2873047-0ED6-4C67-9B4D-3870B51BD5C6";
width = 600;
},
{
associatedMasterId = "0DA27741-1AFD-43F2-A947-40AFBF8D6498";
layerId = "55314CA7-5524-4D70-B802-98D4FAE25636";
width = 651;
},
{
associatedMasterId = "0DA27741-1AFD-43F2-A947-40AFBF8D6498";
layerId = "13A3DD5D-E91B-4961-8595-F8141D3FA442";
width = 608;
}
);
leftKerningGroup = M;
leftMetricsKey = M;
rightKerningGroup = N;
rightMetricsKey = M;
unicode = 0427;
},
{
glyphname = "Tse-cy";
lastChange = "2019-03-12 02:50:24 +0000";
layers = (
{
components = (
{
alignment = -1;
name = "corner-cy";
transform = "{1, 0, 0, 1, 572, 0}";
}
);
layerId = "CAA188E2-8C62-414B-93AE-B576BEB044DB";
paths = (
{
closed = 1;
nodes = (
"112 20 LINE",
"112 720 LINE",
"70 720 LINE",
"70 20 LINE"
);
},
{
closed = 1;
nodes = (
"630 0 LINE",
"630 42 LINE",
"70 42 LINE",
"70 0 LINE"
);
},
{
closed = 1;
nodes = (
"610 720 LINE",
"568 720 LINE",
"568 20 LINE",
"610 20 LINE"
);
}
);
width = 694;
},
{
components = (
{
alignment = -1;
name = "corner-cy";
transform = "{1, 0, 0, 1, 545, 0}";
}
);
layerId = "0DA27741-1AFD-43F2-A947-40AFBF8D6498";
paths = (
{
closed = 1;
nodes = (
"206 20 LINE",
"206 720 LINE",
"70 720 LINE",
"70 20 LINE"
);
},
{
closed = 1;
nodes = (
"590 0 LINE",
"590 120 LINE",
"70 120 LINE",
"70 0 LINE"
);
},
{
closed = 1;
nodes = (
"670 700 LINE",
"534 700 LINE",
"534 0 LINE",
"670 0 LINE"
);
}
);
width = 761;
},
{
associatedMasterId = "0DA27741-1AFD-43F2-A947-40AFBF8D6498";
layerId = "A2873047-0ED6-4C67-9B4D-3870B51BD5C6";
width = 600;
},
{
associatedMasterId = "0DA27741-1AFD-43F2-A947-40AFBF8D6498";
layerId = "55314CA7-5524-4D70-B802-98D4FAE25636";
width = 803;
},
{
associatedMasterId = "0DA27741-1AFD-43F2-A947-40AFBF8D6498";
layerId = "13A3DD5D-E91B-4961-8595-F8141D3FA442";
width = 632;
}
);
leftKerningGroup = H;
leftMetricsKey = H;
rightKerningGroup = "tse-cy";
rightMetricsKey = "tse-cy";
unicode = 0426;
},
{
glyphname = "Sha-cy";
lastChange = "2019-02-12 06:46:48 +0000";
layers = (
{
components = (
{
name = "Ge-cy";
transform = "{1, 0, 0, -1, 0, 720}";
},
{
name = "Ge-cy";
transform = "{-1, 0, 0, -1, 880, 720}";
}
);
layerId = "CAA188E2-8C62-414B-93AE-B576BEB044DB";
paths = (
{
closed = 1;
nodes = (
"419 0 LINE",
"461 0 LINE",
"461 720 LINE",
"419 720 LINE"
);
}
);
width = 880;
},
{
components = (
{
name = "Ge-cy";
transform = "{1, 0, 0, -1, 0, 720}";
},
{
name = "Ge-cy";
transform = "{-1, 0, 0, -1, 960, 720}";
}
);
layerId = "0DA27741-1AFD-43F2-A947-40AFBF8D6498";
paths = (
{
closed = 1;
nodes = (
"412 0 LINE",
"548 0 LINE",
"548 720 LINE",
"412 720 LINE"
);
}
);
width = 960;
},
{
associatedMasterId = "0DA27741-1AFD-43F2-A947-40AFBF8D6498";
layerId = "A2873047-0ED6-4C67-9B4D-3870B51BD5C6";
width = 600;
},
{
associatedMasterId = "0DA27741-1AFD-43F2-A947-40AFBF8D6498";
layerId = "55314CA7-5524-4D70-B802-98D4FAE25636";
width = 950;
},
{
associatedMasterId = "0DA27741-1AFD-43F2-A947-40AFBF8D6498";
layerId = "13A3DD5D-E91B-4961-8595-F8141D3FA442";
width = 656;
}
);
leftKerningGroup = H;
leftMetricsKey = H;
rightKerningGroup = H;
rightMetricsKey = H;
unicode = 0428;
},
{
glyphname = "Dzhe-cy";
lastChange = "2019-02-12 06:47:12 +0000";
layers = (
{
components = (
{
name = "Ge-cy";
transform = "{1, 0, 0, -1, 0, 720}";
},
{
alignment = -1;
name = "Ge-cy";
transform = "{-1, 0, 0, -1, 710, 720}";
}
);
layerId = "CAA188E2-8C62-414B-93AE-B576BEB044DB";
paths = (
{
closed = 1;
nodes = (
"334 -120 LINE",
"376 -120 LINE",
"376 21 LINE",
"334 21 LINE"
);
}
);
width = 710;
},
{
components = (
{
name = "Ge-cy";
transform = "{1, 0, 0, -1, 0, 720}";
},
{
alignment = -1;
name = "Ge-cy";
transform = "{-1, 0, 0, -1, 780, 720}";
}
);
layerId = "0DA27741-1AFD-43F2-A947-40AFBF8D6498";
paths = (
{
closed = 1;
nodes = (
"322 -120 LINE",
"458 -120 LINE",
"458 21 LINE",
"322 21 LINE"
);
}
);
width = 780;
},
{
associatedMasterId = "0DA27741-1AFD-43F2-A947-40AFBF8D6498";
layerId = "A2873047-0ED6-4C67-9B4D-3870B51BD5C6";
width = 600;
},
{
associatedMasterId = "0DA27741-1AFD-43F2-A947-40AFBF8D6498";
layerId = "55314CA7-5524-4D70-B802-98D4FAE25636";
width = 763;
},
{
associatedMasterId = "0DA27741-1AFD-43F2-A947-40AFBF8D6498";
layerId = "13A3DD5D-E91B-4961-8595-F8141D3FA442";
width = 626;
}
);
leftKerningGroup = "Sha-cy";
leftMetricsKey = "Sha-cy";
rightKerningGroup = "Sha-cy";
rightMetricsKey = "Sha-cy";
unicode = 040F;
},
{
glyphname = "Hardsign-cy";
lastChange = "2019-02-12 06:46:48 +0000";
layers = (
{
components = (
{
name = "Softsign-cy";
transform = "{1, 0, 0, 1, 10, 0}";
}
);
layerId = "CAA188E2-8C62-414B-93AE-B576BEB044DB";
paths = (
{
closed = 1;
nodes = (
"-10 678 LINE",
"130 678 LINE",
"130 720 LINE",
"-10 720 LINE"
);
}
);
width = 591;
},
{
components = (
{
name = "Softsign-cy";
transform = "{1, 0, 0, 1, 20, 0}";
}
);
layerId = "0DA27741-1AFD-43F2-A947-40AFBF8D6498";
paths = (
{
closed = 1;
nodes = (
"-10 615 LINE",
"140 615 LINE",
"140 720 LINE",
"-10 720 LINE"
);
}
);
width = 662;
},
{
associatedMasterId = "0DA27741-1AFD-43F2-A947-40AFBF8D6498";
layerId = "A2873047-0ED6-4C67-9B4D-3870B51BD5C6";
width = 600;
},
{
associatedMasterId = "0DA27741-1AFD-43F2-A947-40AFBF8D6498";
layerId = "55314CA7-5524-4D70-B802-98D4FAE25636";
width = 569;
},
{
associatedMasterId = "0DA27741-1AFD-43F2-A947-40AFBF8D6498";
layerId = "13A3DD5D-E91B-4961-8595-F8141D3FA442";
width = 595;
}
);
leftKerningGroup = T;
rightKerningGroup = B;
unicode = 042A;
},
{
glyphname = "Nje-cy";
lastChange = "2019-02-12 06:47:12 +0000";
layers = (
{
components = (
{
alignment = -1;
name = "Softsign-cy";
transform = "{1, 0, 0, 1, 438, 0}";
}
);
layerId = "CAA188E2-8C62-414B-93AE-B576BEB044DB";
paths = (
{
closed = 1;
nodes = (
"70 0 LINE",
"112 0 LINE",
"112 720 LINE",
"70 720 LINE"
);
},
{
closed = 1;
nodes = (
"100 390 LINE",
"536 390 LINE",
"536 432 LINE",
"100 432 LINE"
);
}
);
width = 1019;
},
{
components = (
{
alignment = -1;
name = "Softsign-cy";
transform = "{1, 0, 0, 1, 458, 0}";
}
);
layerId = "0DA27741-1AFD-43F2-A947-40AFBF8D6498";
paths = (
{
closed = 1;
nodes = (
"70 0 LINE",
"206 0 LINE",
"206 720 LINE",
"70 720 LINE"
);
},
{
closed = 1;
nodes = (
"190 348 LINE",
"590 348 LINE",
"590 475 LINE",
"190 475 LINE"
);
}
);
width = 1108;
},
{
associatedMasterId = "0DA27741-1AFD-43F2-A947-40AFBF8D6498";
layerId = "A2873047-0ED6-4C67-9B4D-3870B51BD5C6";
width = 600;
},
{
associatedMasterId = "0DA27741-1AFD-43F2-A947-40AFBF8D6498";
layerId = "55314CA7-5524-4D70-B802-98D4FAE25636";
width = 1138;
},
{
associatedMasterId = "0DA27741-1AFD-43F2-A947-40AFBF8D6498";
layerId = "13A3DD5D-E91B-4961-8595-F8141D3FA442";
width = 686;
}
);
leftKerningGroup = "En-cy";
leftMetricsKey = "En-cy";
rightKerningGroup = "Softsign-cy";
rightMetricsKey = "Softsign-cy";
unicode = 040A;
},
{
glyphname = "Ereversed-cy";
lastChange = "2019-02-12 06:46:48 +0000";
layers = (
{
components = (
{
name = C;
transform = "{-1, 0, 0, 1, 712, 0}";
}
);
layerId = "CAA188E2-8C62-414B-93AE-B576BEB044DB";
paths = (
{
closed = 1;
nodes = (
"357 339 LINE",
"627 339 LINE",
"627 381 LINE",
"357 381 LINE"
);
}
);
width = 712;
},
{
components = (
{
name = C;
transform = "{-1, 0, 0, 1, 761, 0}";
}
);
layerId = "0DA27741-1AFD-43F2-A947-40AFBF8D6498";
paths = (
{
closed = 1;
nodes = (
"321 292 LINE",
"580 292 LINE",
"580 428 LINE",
"321 428 LINE"
);
}
);
width = 761;
},
{
associatedMasterId = "0DA27741-1AFD-43F2-A947-40AFBF8D6498";
layerId = "A2873047-0ED6-4C67-9B4D-3870B51BD5C6";
width = 600;
},
{
associatedMasterId = "0DA27741-1AFD-43F2-A947-40AFBF8D6498";
layerId = "55314CA7-5524-4D70-B802-98D4FAE25636";
width = 683;
},
{
associatedMasterId = "0DA27741-1AFD-43F2-A947-40AFBF8D6498";
layerId = "13A3DD5D-E91B-4961-8595-F8141D3FA442";
width = 613;
}
);
leftKerningGroup = X;
rightKerningGroup = O;
rightMetricsKey = O;
unicode = 042D;
},
{
glyphname = "Tshe-cy";
lastChange = "2019-02-12 06:47:12 +0000";
layers = (
{
components = (
{
name = "Shha-cy";
}
);
layerId = "CAA188E2-8C62-414B-93AE-B576BEB044DB";
paths = (
{
closed = 1;
nodes = (
"0 678 LINE",
"270 678 LINE",
"270 720 LINE",
"0 720 LINE"
);
}
);
width = 627;
},
{
components = (
{
name = "Shha-cy";
}
);
layerId = "0DA27741-1AFD-43F2-A947-40AFBF8D6498";
paths = (
{
closed = 1;
nodes = (
"0 600 LINE",
"360 600 LINE",
"360 720 LINE",
"0 720 LINE"
);
}
);
width = 686;
},
{
associatedMasterId = "0DA27741-1AFD-43F2-A947-40AFBF8D6498";
layerId = "A2873047-0ED6-4C67-9B4D-3870B51BD5C6";
width = 600;
},
{
associatedMasterId = "0DA27741-1AFD-43F2-A947-40AFBF8D6498";
layerId = "55314CA7-5524-4D70-B802-98D4FAE25636";
width = 651;
},
{
associatedMasterId = "0DA27741-1AFD-43F2-A947-40AFBF8D6498";
layerId = "13A3DD5D-E91B-4961-8595-F8141D3FA442";
width = 608;
}
);
leftKerningGroup = V;
rightKerningGroup = B;
rightMetricsKey = "Shha-cy";
unicode = 040B;
},
{
glyphname = "Iu-cy";
lastChange = "2019-02-12 06:46:48 +0000";
layers = (
{
components = (
{
name = O;
transform = "{1, 0, 0, 1, 280, 0}";
}
);
layerId = "CAA188E2-8C62-414B-93AE-B576BEB044DB";
paths = (
{
closed = 1;
nodes = (
"70 0 LINE",
"112 0 LINE",
"112 720 LINE",
"70 720 LINE"
);
},
{
closed = 1;
nodes = (
"106 339 LINE",
"346 339 LINE",
"346 381 LINE",
"106 381 LINE"
);
}
);
width = 1006;
},
{
components = (
{
name = O;
transform = "{1, 0, 0, 1, 280, 0}";
}
);
layerId = "0DA27741-1AFD-43F2-A947-40AFBF8D6498";
paths = (
{
closed = 1;
nodes = (
"70 0 LINE",
"206 0 LINE",
"206 720 LINE",
"70 720 LINE"
);
},
{
closed = 1;
nodes = (
"106 292 LINE",
"346 292 LINE",
"346 428 LINE",
"106 428 LINE"
);
}
);
width = 1058;
},
{
associatedMasterId = "0DA27741-1AFD-43F2-A947-40AFBF8D6498";
layerId = "A2873047-0ED6-4C67-9B4D-3870B51BD5C6";
width = 600;
},
{
associatedMasterId = "0DA27741-1AFD-43F2-A947-40AFBF8D6498";
layerId = "55314CA7-5524-4D70-B802-98D4FAE25636";
width = 1084;
},
{
associatedMasterId = "0DA27741-1AFD-43F2-A947-40AFBF8D6498";
layerId = "13A3DD5D-E91B-4961-8595-F8141D3FA442";
width = 677;
}
);
leftKerningGroup = H;
leftMetricsKey = H;
rightKerningGroup = O;
rightMetricsKey = O;
unicode = 042E;
},
{
glyphname = "Dje-cy";
lastChange = "2019-02-12 06:47:12 +0000";
layers = (
{
components = (
{
name = "line-vertical-de";
transform = "{1, 0, 0, -1, 70, 720}";
}
);
layerId = "CAA188E2-8C62-414B-93AE-B576BEB044DB";
paths = (
{
closed = 1;
nodes = (
"0 678 LINE",
"270 678 LINE",
"270 720 LINE",
"0 720 LINE"
);
},
{
closed = 1;
nodes = (
"343 0 LINE",
"507 0 OFFCURVE",
"586 114 OFFCURVE",
"586 291 CURVE SMOOTH",
"586 466 OFFCURVE",
"493 555 OFFCURVE",
"327 555 CURVE SMOOTH",
"206 555 OFFCURVE",
"109 502 OFFCURVE",
"85 384 CURVE SMOOTH",
"75 334 OFFCURVE",
"73 284 OFFCURVE",
"73 238 CURVE",
"112 238 LINE",
"112 286 OFFCURVE",
"112 333 OFFCURVE",
"125 380 CURVE SMOOTH",
"150 474 OFFCURVE",
"227 513 OFFCURVE",
"329 513 CURVE SMOOTH",
"472 513 OFFCURVE",
"544 445 OFFCURVE",
"544 291 CURVE SMOOTH",
"544 131 OFFCURVE",
"469 42 OFFCURVE",
"343 42 CURVE"
);
}
);
width = 626;
},
{
components = (
{
name = "line-vertical-de";
transform = "{1, 0, 0, -1, 80, 720}";
}
);
layerId = "0DA27741-1AFD-43F2-A947-40AFBF8D6498";
paths = (
{
closed = 1;
nodes = (
"0 600 LINE",
"360 600 LINE",
"360 720 LINE",
"0 720 LINE"
);
},
{
closed = 1;
nodes = (
"373 0 LINE",
"563 0 OFFCURVE",
"646 101 OFFCURVE",
"646 295 CURVE SMOOTH",
"646 454 OFFCURVE",
"553 555 OFFCURVE",
"382 555 CURVE SMOOTH",
"253 555 OFFCURVE",
"146 485 OFFCURVE",
"132 366 CURVE SMOOTH",
"130 348 OFFCURVE",
"119 253 OFFCURVE",
"121 236 CURVE",
"217 236 LINE",
"217 269 OFFCURVE",
"216 304 OFFCURVE",
"227 341 CURVE SMOOTH",
"241 387 OFFCURVE",
"287 424 OFFCURVE",
"367 424 CURVE SMOOTH",
"446 424 OFFCURVE",
"508 384 OFFCURVE",
"508 285 CURVE SMOOTH",
"508 203 OFFCURVE",
"481 138 OFFCURVE",
"373 138 CURVE"
);
}
);
width = 686;
},
{
associatedMasterId = "0DA27741-1AFD-43F2-A947-40AFBF8D6498";
layerId = "A2873047-0ED6-4C67-9B4D-3870B51BD5C6";
width = 600;
},
{
associatedMasterId = "0DA27741-1AFD-43F2-A947-40AFBF8D6498";
layerId = "55314CA7-5524-4D70-B802-98D4FAE25636";
width = 568;
},
{
associatedMasterId = "0DA27741-1AFD-43F2-A947-40AFBF8D6498";
layerId = "13A3DD5D-E91B-4961-8595-F8141D3FA442";
width = 595;
}
);
leftKerningGroup = T;
rightKerningGroup = b;
rightMetricsKey = b;
unicode = 0402;
},
{
glyphname = "Obarred-cy";
lastChange = "2019-02-20 05:53:38 +0000";
layers = (
{
components = (
{
name = O;
}
);
layerId = "CAA188E2-8C62-414B-93AE-B576BEB044DB";
paths = (
{
closed = 1;
nodes = (
"65 339 LINE",
"655 339 LINE",
"655 381 LINE",
"65 381 LINE"
);
}
);
width = 726;
},
{
components = (
{
name = O;
}
);
layerId = "0DA27741-1AFD-43F2-A947-40AFBF8D6498";
paths = (
{
closed = 1;
nodes = (
"145 292 LINE",
"625 292 LINE",
"625 428 LINE",
"145 428 LINE"
);
}
);
width = 778;
},
{
associatedMasterId = "0DA27741-1AFD-43F2-A947-40AFBF8D6498";
layerId = "A2873047-0ED6-4C67-9B4D-3870B51BD5C6";
width = 600;
},
{
associatedMasterId = "0DA27741-1AFD-43F2-A947-40AFBF8D6498";
layerId = "55314CA7-5524-4D70-B802-98D4FAE25636";
width = 738;
},
{
associatedMasterId = "0DA27741-1AFD-43F2-A947-40AFBF8D6498";
layerId = "13A3DD5D-E91B-4961-8595-F8141D3FA442";
width = 622;
}
);
leftKerningGroup = O;
rightKerningGroup = O;
unicode = 04E8;
},
{
glyphname = "De-cy.loclBGR";
lastChange = "2019-02-12 06:46:56 +0000";
layers = (
{
components = (
{
name = V;
transform = "{1, 0, 0, -1, 57, 720}";
}
);
layerId = "0DA27741-1AFD-43F2-A947-40AFBF8D6498";
paths = (
{
closed = 1;
nodes = (
"40 127 LINE",
"40 -90 LINE",
"167 -90 LINE",
"167 0 LINE",
"599 0 LINE",
"599 -90 LINE",
"727 -90 LINE",
"727 127 LINE"
);
}
);
width = 777;
},
{
components = (
{
name = V;
transform = "{1, 0, 0, -1, 64, 720}";
}
);
layerId = "CAA188E2-8C62-414B-93AE-B576BEB044DB";
paths = (
{
closed = 1;
nodes = (
"30 42 LINE",
"30 -80 LINE",
"72 -80 LINE",
"72 0 LINE",
"634 0 LINE",
"634 -80 LINE",
"676 -80 LINE",
"676 42 LINE"
);
}
);
width = 706;
}
);
leftKerningGroup = de;
rightKerningGroup = N;
},
{
glyphname = "be-cy";
lastChange = "2019-02-12 06:46:48 +0000";
layers = (
{
layerId = "CAA188E2-8C62-414B-93AE-B576BEB044DB";
paths = (
{
closed = 1;
nodes = (
"202 522 OFFCURVE",
"139 490 OFFCURVE",
"89 427 CURVE",
"100 517 OFFCURVE",
"124 589 OFFCURVE",
"181 629 CURVE SMOOTH",
"237 669 OFFCURVE",
"311 681 OFFCURVE",
"383 681 CURVE SMOOTH",
"419 681 OFFCURVE",
"456 677 OFFCURVE",
"494 671 CURVE",
"494 711 LINE",
"457 716 OFFCURVE",
"421 720 OFFCURVE",
"383 720 CURVE SMOOTH",
"306 720 OFFCURVE",
"222 712 OFFCURVE",
"156 662 CURVE SMOOTH",
"92 614 OFFCURVE",
"62 549 OFFCURVE",
"50 468 CURVE SMOOTH",
"42 417 OFFCURVE",
"40 373 OFFCURVE",
"40 252 CURVE SMOOTH",
"40 183 OFFCURVE",
"57 113 OFFCURVE",
"101 62 CURVE",
"147 8 OFFCURVE",
"220 -16 OFFCURVE",
"286 -15 CURVE SMOOTH",
"353 -16 OFFCURVE",
"425 8 OFFCURVE",
"471 62 CURVE",
"518 116 OFFCURVE",
"532 187 OFFCURVE",
"533 252 CURVE SMOOTH",
"532 318 OFFCURVE",
"518 389 OFFCURVE",
"471 443 CURVE",
"425 497 OFFCURVE",
"353 521 OFFCURVE",
"286 519 CURVE SMOOTH"
);
},
{
closed = 1;
nodes = (
"345 478 OFFCURVE",
"402 457 OFFCURVE",
"438 414 CURVE",
"475 372 OFFCURVE",
"488 311 OFFCURVE",
"488 252 CURVE SMOOTH",
"488 193 OFFCURVE",
"475 133 OFFCURVE",
"438 90 CURVE",
"402 47 OFFCURVE",
"345 27 OFFCURVE",
"286 27 CURVE SMOOTH",
"228 27 OFFCURVE",
"170 47 OFFCURVE",
"134 91 CURVE",
"99 131 OFFCURVE",
"85 192 OFFCURVE",
"85 255 CURVE SMOOTH",
"85 314 OFFCURVE",
"98 372 OFFCURVE",
"134 414 CURVE",
"170 457 OFFCURVE",
"228 478 OFFCURVE",
"286 477 CURVE SMOOTH"
);
}
);
width = 573;
},
{
layerId = "0DA27741-1AFD-43F2-A947-40AFBF8D6498";
paths = (
{
closed = 1;
nodes = (
"270 501 OFFCURVE",
"219 481 OFFCURVE",
"182 449 CURVE",
"187 490 OFFCURVE",
"197 538 OFFCURVE",
"238 567 CURVE",
"274 593 OFFCURVE",
"337 595 OFFCURVE",
"396 593 CURVE SMOOTH",
"431 592 OFFCURVE",
"477 588 OFFCURVE",
"518 583 CURVE",
"518 708 LINE",
"483 715 OFFCURVE",
"442 720 OFFCURVE",
"396 720 CURVE SMOOTH",
"313 720 OFFCURVE",
"230 710 OFFCURVE",
"166 665 CURVE",
"97 618 OFFCURVE",
"62 539 OFFCURVE",
"50 459 CURVE",
"39 386 OFFCURVE",
"38 315 OFFCURVE",
"42 251 CURVE SMOOTH",
"46 183 OFFCURVE",
"62 122 OFFCURVE",
"108 69 CURVE",
"155 15 OFFCURVE",
"225 -15 OFFCURVE",
"297 -15 CURVE SMOOTH",
"370 -17 OFFCURVE",
"439 6 OFFCURVE",
"491 56 CURVE",
"537 104 OFFCURVE",
"566 169 OFFCURVE",
"563 241 CURVE SMOOTH",
"563 305 OFFCURVE",
"542 372 OFFCURVE",
"502 420 CURVE",
"458 475 OFFCURVE",
"390 503 OFFCURVE",
"318 503 CURVE SMOOTH"
);
},
{
closed = 1;
nodes = (
"338 383 OFFCURVE",
"371 371 OFFCURVE",
"391 346 CURVE",
"412 322 OFFCURVE",
"420 286 OFFCURVE",
"420 251 CURVE SMOOTH",
"420 215 OFFCURVE",
"412 180 OFFCURVE",
"391 156 CURVE",
"371 131 OFFCURVE",
"338 119 OFFCURVE",
"303 119 CURVE SMOOTH",
"268 119 OFFCURVE",
"235 131 OFFCURVE",
"214 156 CURVE",
"193 180 OFFCURVE",
"186 215 OFFCURVE",
"186 251 CURVE SMOOTH",
"186 286 OFFCURVE",
"193 322 OFFCURVE",
"214 346 CURVE",
"235 371 OFFCURVE",
"268 383 OFFCURVE",
"303 383 CURVE SMOOTH"
);
}
);
width = 603;
},
{
associatedMasterId = "0DA27741-1AFD-43F2-A947-40AFBF8D6498";
layerId = "A2873047-0ED6-4C67-9B4D-3870B51BD5C6";
width = 600;
},
{
associatedMasterId = "0DA27741-1AFD-43F2-A947-40AFBF8D6498";
layerId = "55314CA7-5524-4D70-B802-98D4FAE25636";
width = 585;
},
{
associatedMasterId = "0DA27741-1AFD-43F2-A947-40AFBF8D6498";
layerId = "13A3DD5D-E91B-4961-8595-F8141D3FA442";
width = 598;
}
);
leftKerningGroup = "be-cy";
leftMetricsKey = o;
rightKerningGroup = o;
rightMetricsKey = b;
unicode = 0431;
},
{
glyphname = "ve-cy";
lastChange = "2019-03-11 08:45:24 +0000";
layers = (
{
layerId = "CAA188E2-8C62-414B-93AE-B576BEB044DB";
paths = (
{
closed = 1;
nodes = (
"70 0 LINE",
"312 0 LINE SMOOTH",
"336 0 OFFCURVE",
"367 0 OFFCURVE",
"396 8 CURVE SMOOTH",
"452 23 OFFCURVE",
"490 70 OFFCURVE",
"490 146 CURVE SMOOTH",
"490 191 OFFCURVE",
"473 234 OFFCURVE",
"435 259 CURVE SMOOTH",
"423 267 OFFCURVE",
"411 273 OFFCURVE",
"402 275 CURVE",
"413 281 OFFCURVE",
"426 291 OFFCURVE",
"435 303 CURVE SMOOTH",
"456 331 OFFCURVE",
"464 358 OFFCURVE",
"464 395 CURVE SMOOTH",
"464 453 OFFCURVE",
"428 515 OFFCURVE",
"362 531 CURVE SMOOTH",
"329 539 OFFCURVE",
"293 540 OFFCURVE",
"277 540 CURVE SMOOTH",
"70 540 LINE"
);
},
{
closed = 1;
nodes = (
"282 498 LINE SMOOTH",
"305 498 OFFCURVE",
"331 496 OFFCURVE",
"355 488 CURVE SMOOTH",
"397 474 OFFCURVE",
"419 436 OFFCURVE",
"419 395 CURVE SMOOTH",
"419 352 OFFCURVE",
"399 313 OFFCURVE",
"356 299 CURVE SMOOTH",
"338 293 OFFCURVE",
"312 291 OFFCURVE",
"297 291 CURVE SMOOTH",
"112 291 LINE",
"112 498 LINE"
);
},
{
closed = 1;
nodes = (
"296 249 LINE SMOOTH",
"312 249 OFFCURVE",
"329 249 OFFCURVE",
"346 247 CURVE SMOOTH",
"407 240 OFFCURVE",
"445 199 OFFCURVE",
"445 146 CURVE SMOOTH",
"445 98 OFFCURVE",
"423 59 OFFCURVE",
"373 48 CURVE SMOOTH",
"354 44 OFFCURVE",
"326 42 OFFCURVE",
"312 42 CURVE SMOOTH",
"112 42 LINE",
"112 249 LINE"
);
}
);
width = 520;
},
{
layerId = "0DA27741-1AFD-43F2-A947-40AFBF8D6498";
paths = (
{
closed = 1;
nodes = (
"70 0 LINE",
"340 0 LINE SMOOTH",
"375 0 OFFCURVE",
"409 3 OFFCURVE",
"433 10 CURVE SMOOTH",
"503 30 OFFCURVE",
"538 81 OFFCURVE",
"538 161 CURVE SMOOTH",
"538 219 OFFCURVE",
"507 253 OFFCURVE",
"471 269 CURVE SMOOTH",
"460 274 OFFCURVE",
"446 278 OFFCURVE",
"433 280 CURVE",
"445 283 OFFCURVE",
"457 289 OFFCURVE",
"469 298 CURVE SMOOTH",
"494 317 OFFCURVE",
"511 345 OFFCURVE",
"511 394 CURVE SMOOTH",
"511 472 OFFCURVE",
"461 516 OFFCURVE",
"413 529 CURVE SMOOTH",
"391 535 OFFCURVE",
"366 540 OFFCURVE",
"323 540 CURVE SMOOTH",
"70 540 LINE"
);
},
{
closed = 1;
nodes = (
"291 435 LINE SMOOTH",
"308 435 OFFCURVE",
"327 434 OFFCURVE",
"340 430 CURVE SMOOTH",
"362 423 OFFCURVE",
"371 402 OFFCURVE",
"371 379 CURVE SMOOTH",
"371 357 OFFCURVE",
"362 338 OFFCURVE",
"345 330 CURVE SMOOTH",
"332 324 OFFCURVE",
"312 322 OFFCURVE",
"291 322 CURVE SMOOTH",
"208 322 LINE",
"208 435 LINE"
);
},
{
closed = 1;
nodes = (
"330 217 LINE SMOOTH",
"345 217 OFFCURVE",
"358 216 OFFCURVE",
"369 211 CURVE SMOOTH",
"384 204 OFFCURVE",
"399 189 OFFCURVE",
"399 161 CURVE SMOOTH",
"399 141 OFFCURVE",
"391 119 OFFCURVE",
"372 111 CURVE SMOOTH",
"360 106 OFFCURVE",
"344 103 OFFCURVE",
"330 103 CURVE SMOOTH",
"208 103 LINE",
"208 217 LINE"
);
}
);
width = 568;
},
{
associatedMasterId = "0DA27741-1AFD-43F2-A947-40AFBF8D6498";
layerId = "A2873047-0ED6-4C67-9B4D-3870B51BD5C6";
width = 600;
},
{
associatedMasterId = "0DA27741-1AFD-43F2-A947-40AFBF8D6498";
layerId = "55314CA7-5524-4D70-B802-98D4FAE25636";
width = 535;
},
{
associatedMasterId = "0DA27741-1AFD-43F2-A947-40AFBF8D6498";
layerId = "13A3DD5D-E91B-4961-8595-F8141D3FA442";
width = 590;
}
);
leftKerningGroup = n;
leftMetricsKey = n;
rightKerningGroup = ve;
unicode = 0432;
},
{
glyphname = "ge-cy";
lastChange = "2019-03-11 06:37:42 +0000";
layers = (
{
layerId = "CAA188E2-8C62-414B-93AE-B576BEB044DB";
paths = (
{
closed = 1;
nodes = (
"70 540 LINE",
"70 0 LINE",
"112 0 LINE",
"112 498 LINE",
"430 498 LINE",
"430 540 LINE"
);
}
);
width = 455;
},
{
layerId = "0DA27741-1AFD-43F2-A947-40AFBF8D6498";
paths = (
{
closed = 1;
nodes = (
"70 540 LINE",
"70 0 LINE",
"206 0 LINE",
"206 413 LINE",
"460 413 LINE",
"460 540 LINE"
);
}
);
width = 485;
},
{
associatedMasterId = "0DA27741-1AFD-43F2-A947-40AFBF8D6498";
layerId = "A2873047-0ED6-4C67-9B4D-3870B51BD5C6";
width = 600;
},
{
associatedMasterId = "0DA27741-1AFD-43F2-A947-40AFBF8D6498";
layerId = "55314CA7-5524-4D70-B802-98D4FAE25636";
width = 419;
},
{
associatedMasterId = "0DA27741-1AFD-43F2-A947-40AFBF8D6498";
layerId = "13A3DD5D-E91B-4961-8595-F8141D3FA442";
width = 571;
}
);
leftKerningGroup = r;
leftMetricsKey = r;
rightKerningGroup = r;
rightMetricsKey = r;
unicode = 0433;
},
{
glyphname = "de-cy";
lastChange = "2019-03-25 02:10:28 +0000";
layers = (
{
layerId = "CAA188E2-8C62-414B-93AE-B576BEB044DB";
paths = (
{
closed = 1;
nodes = (
"161 540 LINE",
"154 378 OFFCURVE",
"142 239 OFFCURVE",
"113 161 CURVE SMOOTH",
"83 80 OFFCURVE",
"54 51 OFFCURVE",
"30 42 CURVE",
"30 -80 LINE",
"72 -80 LINE",
"72 0 LINE",
"493 0 LINE",
"493 -80 LINE",
"535 -80 LINE",
"535 42 LINE",
"485 42 LINE",
"485 540 LINE"
);
},
{
closed = 1;
nodes = (
"101 42 LINE",
"124 68 OFFCURVE",
"137 96 OFFCURVE",
"151 134 CURVE SMOOTH",
"180 214 OFFCURVE",
"198 382 OFFCURVE",
"203 498 CURVE",
"443 498 LINE",
"443 42 LINE"
);
}
);
width = 565;
},
{
layerId = "0DA27741-1AFD-43F2-A947-40AFBF8D6498";
paths = (
{
closed = 1;
nodes = (
"143 540 LINE",
"139 435 OFFCURVE",
"134 350 OFFCURVE",
"120 272 CURVE SMOOTH",
"104 184 OFFCURVE",
"71 122 OFFCURVE",
"30 105 CURVE",
"30 -90 LINE",
"158 -90 LINE",
"158 0 LINE",
"477 0 LINE",
"477 -90 LINE",
"605 -90 LINE",
"605 105 LINE",
"550 105 LINE",
"550 540 LINE"
);
},
{
closed = 1;
nodes = (
"186 105 LINE",
"209 131 OFFCURVE",
"230 191 OFFCURVE",
"242 255 CURVE SMOOTH",
"253 313 OFFCURVE",
"257 372 OFFCURVE",
"261 435 CURVE",
"414 435 LINE",
"414 105 LINE"
);
}
);
width = 635;
},
{
associatedMasterId = "0DA27741-1AFD-43F2-A947-40AFBF8D6498";
layerId = "A2873047-0ED6-4C67-9B4D-3870B51BD5C6";
width = 600;
},
{
associatedMasterId = "0DA27741-1AFD-43F2-A947-40AFBF8D6498";
layerId = "55314CA7-5524-4D70-B802-98D4FAE25636";
width = 563;
},
{
associatedMasterId = "0DA27741-1AFD-43F2-A947-40AFBF8D6498";
layerId = "13A3DD5D-E91B-4961-8595-F8141D3FA442";
width = 594;
}
);
leftKerningGroup = o;
rightKerningGroup = v;
unicode = 0434;
},
{
glyphname = "zhe-cy";
lastChange = "2019-02-12 06:46:48 +0000";
layers = (
{
layerId = "CAA188E2-8C62-414B-93AE-B576BEB044DB";
paths = (
{
closed = 1;
nodes = (
"59 1 LINE",
"220 249 LINE",
"305 249 LINE",
"305 0 LINE",
"347 0 LINE",
"347 249 LINE",
"432 249 LINE",
"593 1 LINE",
"642 0 LINE",
"466 270 LINE",
"557 445 LINE SMOOTH",
"569 467 OFFCURVE",
"575 479 OFFCURVE",
"586 487 CURVE SMOOTH",
"597 495 OFFCURVE",
"609 499 OFFCURVE",
"631 498 CURVE",
"631 540 LINE",
"603 546 OFFCURVE",
"578 541 OFFCURVE",
"558 523 CURVE SMOOTH",
"540 506 OFFCURVE",
"534 490 OFFCURVE",
"520 464 CURVE SMOOTH",
"430 291 LINE",
"347 291 LINE",
"347 540 LINE",
"305 540 LINE",
"305 291 LINE",
"222 291 LINE",
"132 464 LINE SMOOTH",
"118 490 OFFCURVE",
"112 506 OFFCURVE",
"94 523 CURVE SMOOTH",
"74 541 OFFCURVE",
"49 546 OFFCURVE",
"21 540 CURVE",
"21 498 LINE",
"43 499 OFFCURVE",
"55 495 OFFCURVE",
"66 487 CURVE SMOOTH",
"77 479 OFFCURVE",
"83 467 OFFCURVE",
"95 445 CURVE SMOOTH",
"186 270 LINE",
"10 0 LINE"
);
}
);
width = 652;
},
{
layerId = "0DA27741-1AFD-43F2-A947-40AFBF8D6498";
paths = (
{
closed = 1;
nodes = (
"162 0 LINE",
"294 217 LINE",
"347 217 LINE",
"347 0 LINE",
"467 0 LINE",
"467 217 LINE",
"520 217 LINE",
"652 0 LINE",
"804 0 LINE",
"630 266 LINE",
"687 373 LINE SMOOTH",
"699 395 OFFCURVE",
"714 409 OFFCURVE",
"732 413 CURVE SMOOTH",
"752 418 OFFCURVE",
"773 416 OFFCURVE",
"784 413 CURVE",
"784 540 LINE",
"755 549 OFFCURVE",
"702 553 OFFCURVE",
"662 534 CURVE SMOOTH",
"628 518 OFFCURVE",
"604 487 OFFCURVE",
"582 445 CURVE SMOOTH",
"517 322 LINE",
"467 322 LINE",
"467 540 LINE",
"347 540 LINE",
"347 322 LINE",
"297 322 LINE",
"234 445 LINE SMOOTH",
"213 487 OFFCURVE",
"190 521 OFFCURVE",
"151 538 CURVE SMOOTH",
"108 557 OFFCURVE",
"58 554 OFFCURVE",
"33 540 CURVE",
"33 413 LINE",
"49 416 OFFCURVE",
"69 416 OFFCURVE",
"84 411 CURVE SMOOTH",
"99 406 OFFCURVE",
"113 399 OFFCURVE",
"127 373 CURVE SMOOTH",
"184 266 LINE",
"10 0 LINE"
);
}
);
width = 814;
},
{
associatedMasterId = "0DA27741-1AFD-43F2-A947-40AFBF8D6498";
layerId = "A2873047-0ED6-4C67-9B4D-3870B51BD5C6";
width = 600;
},
{
associatedMasterId = "0DA27741-1AFD-43F2-A947-40AFBF8D6498";
layerId = "55314CA7-5524-4D70-B802-98D4FAE25636";
width = 745;
},
{
associatedMasterId = "0DA27741-1AFD-43F2-A947-40AFBF8D6498";
layerId = "13A3DD5D-E91B-4961-8595-F8141D3FA442";
width = 623;
}
);
leftKerningGroup = x;
leftMetricsKey = x;
rightKerningGroup = x;
rightMetricsKey = x;
unicode = 0436;
},
{
glyphname = "ze-cy";
lastChange = "2019-03-11 08:51:20 +0000";
layers = (
{
layerId = "CAA188E2-8C62-414B-93AE-B576BEB044DB";
paths = (
{
closed = 1;
nodes = (
"88 433 LINE",
"106 456 OFFCURVE",
"125 471 OFFCURVE",
"151 485 CURVE SMOOTH",
"185 503 OFFCURVE",
"215 513 OFFCURVE",
"261 513 CURVE SMOOTH",
"302 513 OFFCURVE",
"328 506 OFFCURVE",
"354 490 CURVE SMOOTH",
"390 468 OFFCURVE",
"402 436 OFFCURVE",
"402 399 CURVE SMOOTH",
"402 359 OFFCURVE",
"376 332 OFFCURVE",
"354 319 CURVE SMOOTH",
"327 303 OFFCURVE",
"297 300 OFFCURVE",
"257 300 CURVE",
"187 300 LINE",
"187 259 LINE",
"257 259 LINE",
"300 259 OFFCURVE",
"345 253 OFFCURVE",
"367 241 CURVE SMOOTH",
"399 223 OFFCURVE",
"414 191 OFFCURVE",
"414 151 CURVE SMOOTH",
"414 111 OFFCURVE",
"397 76 OFFCURVE",
"361 53 CURVE SMOOTH",
"332 34 OFFCURVE",
"304 27 OFFCURVE",
"261 27 CURVE SMOOTH",
"205 27 OFFCURVE",
"162 46 OFFCURVE",
"135 64 CURVE SMOOTH",
"99 88 OFFCURVE",
"77 126 OFFCURVE",
"65 149 CURVE",
"30 129 LINE",
"42 106 OFFCURVE",
"67 59 OFFCURVE",
"111 30 CURVE SMOOTH",
"154 1 OFFCURVE",
"202 -15 OFFCURVE",
"261 -15 CURVE SMOOTH",
"310 -15 OFFCURVE",
"336 -11 OFFCURVE",
"378 13 CURVE SMOOTH",
"428 41 OFFCURVE",
"457 93 OFFCURVE",
"457 149 CURVE SMOOTH",
"457 199 OFFCURVE",
"433 260 OFFCURVE",
"377 281 CURVE",
"419 306 OFFCURVE",
"445 346 OFFCURVE",
"445 403 CURVE SMOOTH",
"445 453 OFFCURVE",
"424 497 OFFCURVE",
"376 527 CURVE SMOOTH",
"339 550 OFFCURVE",
"307 555 OFFCURVE",
"261 555 CURVE SMOOTH",
"206 555 OFFCURVE",
"166 543 OFFCURVE",
"132 525 CURVE SMOOTH",
"98 507 OFFCURVE",
"73 484 OFFCURVE",
"55 461 CURVE"
);
}
);
width = 497;
},
{
layerId = "0DA27741-1AFD-43F2-A947-40AFBF8D6498";
paths = (
{
closed = 1;
nodes = (
"120 377 LINE",
"137 389 OFFCURVE",
"157 401 OFFCURVE",
"173 408 CURVE SMOOTH",
"197 419 OFFCURVE",
"231 429 OFFCURVE",
"261 429 CURVE SMOOTH",
"278 429 OFFCURVE",
"293 426 OFFCURVE",
"304 420 CURVE SMOOTH",
"322 410 OFFCURVE",
"327 395 OFFCURVE",
"327 379 CURVE SMOOTH",
"327 360 OFFCURVE",
"319 339 OFFCURVE",
"281 334 CURVE SMOOTH",
"266 332 OFFCURVE",
"242 331 OFFCURVE",
"226 331 CURVE SMOOTH",
"194 331 LINE",
"194 225 LINE",
"226 225 LINE SMOOTH",
"244 225 OFFCURVE",
"275 226 OFFCURVE",
"291 225 CURVE SMOOTH",
"325 222 OFFCURVE",
"346 202 OFFCURVE",
"346 176 CURVE SMOOTH",
"346 155 OFFCURVE",
"336 136 OFFCURVE",
"315 124 CURVE SMOOTH",
"301 116 OFFCURVE",
"285 112 OFFCURVE",
"267 112 CURVE SMOOTH",
"237 112 OFFCURVE",
"205 117 OFFCURVE",
"175 135 CURVE SMOOTH",
"162 143 OFFCURVE",
"140 161 OFFCURVE",
"127 174 CURVE",
"20 102 LINE",
"38 75 OFFCURVE",
"79 38 OFFCURVE",
"114 19 CURVE SMOOTH",
"151 -1 OFFCURVE",
"203 -15 OFFCURVE",
"256 -15 CURVE SMOOTH",
"302 -15 OFFCURVE",
"363 -7 OFFCURVE",
"406 22 CURVE SMOOTH",
"459 57 OFFCURVE",
"485 99 OFFCURVE",
"485 167 CURVE SMOOTH",
"485 210 OFFCURVE",
"464 257 OFFCURVE",
"429 284 CURVE",
"456 319 OFFCURVE",
"467 355 OFFCURVE",
"467 394 CURVE SMOOTH",
"467 443 OFFCURVE",
"446 487 OFFCURVE",
"402 517 CURVE SMOOTH",
"361 545 OFFCURVE",
"302 555 OFFCURVE",
"256 555 CURVE SMOOTH",
"219 555 OFFCURVE",
"176 544 OFFCURVE",
"141 529 CURVE SMOOTH",
"100 511 OFFCURVE",
"74 494 OFFCURVE",
"45 470 CURVE"
);
}
);
width = 525;
},
{
associatedMasterId = "0DA27741-1AFD-43F2-A947-40AFBF8D6498";
layerId = "A2873047-0ED6-4C67-9B4D-3870B51BD5C6";
width = 600;
},
{
associatedMasterId = "0DA27741-1AFD-43F2-A947-40AFBF8D6498";
layerId = "55314CA7-5524-4D70-B802-98D4FAE25636";
width = 451;
},
{
associatedMasterId = "0DA27741-1AFD-43F2-A947-40AFBF8D6498";
layerId = "13A3DD5D-E91B-4961-8595-F8141D3FA442";
width = 576;
}
);
leftKerningGroup = x;
rightKerningGroup = o;
rightMetricsKey = o;
unicode = 0437;
},
{
glyphname = "ii-cy";
lastChange = "2019-03-11 08:52:26 +0000";
layers = (
{
layerId = "CAA188E2-8C62-414B-93AE-B576BEB044DB";
paths = (
{
closed = 1;
nodes = (
"434 540 LINE",
"112 74 LINE",
"112 540 LINE",
"70 540 LINE",
"70 0 LINE",
"109 0 LINE",
"431 466 LINE",
"431 0 LINE",
"473 0 LINE",
"473 540 LINE"
);
}
);
width = 543;
},
{
layerId = "0DA27741-1AFD-43F2-A947-40AFBF8D6498";
paths = (
{
closed = 1;
nodes = (
"445 540 LINE",
"200 221 LINE",
"200 540 LINE",
"70 540 LINE",
"70 0 LINE",
"178 0 LINE",
"422 330 LINE",
"422 0 LINE",
"552 0 LINE",
"552 540 LINE"
);
}
);
width = 622;
},
{
associatedMasterId = "0DA27741-1AFD-43F2-A947-40AFBF8D6498";
layerId = "A2873047-0ED6-4C67-9B4D-3870B51BD5C6";
width = 600;
},
{
associatedMasterId = "0DA27741-1AFD-43F2-A947-40AFBF8D6498";
layerId = "55314CA7-5524-4D70-B802-98D4FAE25636";
width = 588;
},
{
associatedMasterId = "0DA27741-1AFD-43F2-A947-40AFBF8D6498";
layerId = "13A3DD5D-E91B-4961-8595-F8141D3FA442";
width = 598;
}
);
leftKerningGroup = n;
leftMetricsKey = n;
rightKerningGroup = u;
rightMetricsKey = u;
unicode = 0438;
},
{
glyphname = "ka-cy";
lastChange = "2019-03-04 02:30:49 +0000";
layers = (
{
layerId = "CAA188E2-8C62-414B-93AE-B576BEB044DB";
paths = (
{
closed = 1;
nodes = (
"112 0 LINE",
"112 260 LINE",
"416 0 LINE",
"488 0 LINE",
"163 270 LINE",
"445 540 LINE",
"382 540 LINE",
"112 280 LINE",
"112 540 LINE",
"70 540 LINE",
"70 0 LINE"
);
}
);
width = 468;
},
{
layerId = "0DA27741-1AFD-43F2-A947-40AFBF8D6498";
paths = (
{
closed = 1;
nodes = (
"209 0 LINE",
"209 260 LINE",
"396 0 LINE",
"573 0 LINE",
"365 270 LINE",
"560 540 LINE",
"392 540 LINE",
"209 280 LINE",
"209 540 LINE",
"71 540 LINE",
"70 0 LINE"
);
}
);
width = 553;
},
{
associatedMasterId = "0DA27741-1AFD-43F2-A947-40AFBF8D6498";
layerId = "A2873047-0ED6-4C67-9B4D-3870B51BD5C6";
width = 600;
},
{
associatedMasterId = "0DA27741-1AFD-43F2-A947-40AFBF8D6498";
layerId = "55314CA7-5524-4D70-B802-98D4FAE25636";
width = 423;
},
{
associatedMasterId = "0DA27741-1AFD-43F2-A947-40AFBF8D6498";
layerId = "13A3DD5D-E91B-4961-8595-F8141D3FA442";
width = 572;
}
);
leftKerningGroup = k;
leftMetricsKey = k;
rightKerningGroup = k;
rightMetricsKey = k;
unicode = 043A;
},
{
glyphname = "el-cy";
lastChange = "2019-03-25 02:10:32 +0000";
layers = (
{
layerId = "CAA188E2-8C62-414B-93AE-B576BEB044DB";
paths = (
{
closed = 1;
nodes = (
"127 346 OFFCURVE",
"117 225 OFFCURVE",
"100 122 CURVE SMOOTH",
"90 64 OFFCURVE",
"81 29 OFFCURVE",
"20 40 CURVE",
"20 0 LINE",
"108 -15 OFFCURVE",
"124 16 OFFCURVE",
"138 86 CURVE SMOOTH",
"155 170 OFFCURVE",
"170 321 OFFCURVE",
"182 498 CURVE",
"444 498 LINE",
"444 0 LINE",
"486 0 LINE",
"486 540 LINE",
"139 540 LINE"
);
}
);
width = 556;
},
{
layerId = "0DA27741-1AFD-43F2-A947-40AFBF8D6498";
paths = (
{
closed = 1;
nodes = (
"130 413 OFFCURVE",
"120 276 OFFCURVE",
"104 190 CURVE SMOOTH",
"92 125 OFFCURVE",
"79 102 OFFCURVE",
"20 113 CURVE",
"20 0 LINE",
"143 -29 OFFCURVE",
"203 11 OFFCURVE",
"226 142 CURVE SMOOTH",
"239 215 OFFCURVE",
"246 296 OFFCURVE",
"256 413 CURVE",
"409 413 LINE",
"409 0 LINE",
"545 0 LINE",
"545 540 LINE",
"137 540 LINE"
);
}
);
width = 615;
},
{
associatedMasterId = "0DA27741-1AFD-43F2-A947-40AFBF8D6498";
layerId = "A2873047-0ED6-4C67-9B4D-3870B51BD5C6";
width = 600;
},
{
associatedMasterId = "0DA27741-1AFD-43F2-A947-40AFBF8D6498";
layerId = "55314CA7-5524-4D70-B802-98D4FAE25636";
width = 550;
},
{
associatedMasterId = "0DA27741-1AFD-43F2-A947-40AFBF8D6498";
layerId = "13A3DD5D-E91B-4961-8595-F8141D3FA442";
width = 592;
}
);
leftKerningGroup = o;
rightKerningGroup = u;
rightMetricsKey = u;
unicode = 043B;
},
{
glyphname = "em-cy";
lastChange = "2019-03-11 08:25:36 +0000";
layers = (
{
layerId = "CAA188E2-8C62-414B-93AE-B576BEB044DB";
paths = (
{
closed = 1;
nodes = (
"335 52 LINE",
"113 540 LINE",
"70 540 LINE",
"70 0 LINE",
"112 0 LINE",
"112 440 LINE",
"312 0 LINE",
"358 0 LINE",
"558 440 LINE",
"558 0 LINE",
"600 0 LINE",
"600 540 LINE",
"557 540 LINE"
);
}
);
width = 670;
},
{
layerId = "0DA27741-1AFD-43F2-A947-40AFBF8D6498";
paths = (
{
closed = 1;
nodes = (
"368 190 LINE",
"180 540 LINE",
"70 540 LINE",
"70 0 LINE",
"200 0 LINE",
"200 269 LINE",
"344 0 LINE",
"392 0 LINE",
"536 269 LINE",
"536 0 LINE",
"666 0 LINE",
"666 540 LINE",
"556 540 LINE"
);
}
);
width = 736;
},
{
associatedMasterId = "0DA27741-1AFD-43F2-A947-40AFBF8D6498";
layerId = "A2873047-0ED6-4C67-9B4D-3870B51BD5C6";
width = 600;
},
{
associatedMasterId = "0DA27741-1AFD-43F2-A947-40AFBF8D6498";
layerId = "55314CA7-5524-4D70-B802-98D4FAE25636";
width = 691;
},
{
associatedMasterId = "0DA27741-1AFD-43F2-A947-40AFBF8D6498";
layerId = "13A3DD5D-E91B-4961-8595-F8141D3FA442";
width = 615;
}
);
leftKerningGroup = m;
leftMetricsKey = m;
rightKerningGroup = u;
rightMetricsKey = u;
unicode = 043C;
},
{
glyphname = "en-cy";
lastChange = "2019-02-12 06:46:48 +0000";
layers = (
{
layerId = "CAA188E2-8C62-414B-93AE-B576BEB044DB";
paths = (
{
closed = 1;
nodes = (
"112 0 LINE",
"112 540 LINE",
"70 540 LINE",
"70 0 LINE"
);
},
{
closed = 1;
nodes = (
"458 0 LINE",
"500 0 LINE",
"500 540 LINE",
"458 540 LINE"
);
},
{
closed = 1;
nodes = (
"87 249 LINE",
"483 249 LINE",
"483 291 LINE",
"87 291 LINE"
);
}
);
width = 570;
},
{
layerId = "0DA27741-1AFD-43F2-A947-40AFBF8D6498";
paths = (
{
closed = 1;
nodes = (
"206 0 LINE",
"206 540 LINE",
"70 540 LINE",
"70 0 LINE"
);
},
{
closed = 1;
nodes = (
"428 0 LINE",
"564 0 LINE",
"564 540 LINE",
"428 540 LINE"
);
},
{
closed = 1;
nodes = (
"147 207 LINE",
"453 207 LINE",
"453 334 LINE",
"147 334 LINE"
);
}
);
width = 634;
},
{
associatedMasterId = "0DA27741-1AFD-43F2-A947-40AFBF8D6498";
layerId = "A2873047-0ED6-4C67-9B4D-3870B51BD5C6";
width = 600;
},
{
associatedMasterId = "0DA27741-1AFD-43F2-A947-40AFBF8D6498";
layerId = "55314CA7-5524-4D70-B802-98D4FAE25636";
width = 588;
},
{
associatedMasterId = "0DA27741-1AFD-43F2-A947-40AFBF8D6498";
layerId = "13A3DD5D-E91B-4961-8595-F8141D3FA442";
width = 598;
}
);
leftKerningGroup = n;
leftMetricsKey = m;
rightKerningGroup = u;
rightMetricsKey = u;
unicode = 043D;
},
{
glyphname = "pe-cy";
lastChange = "2019-03-11 06:37:52 +0000";
layers = (
{
layerId = "CAA188E2-8C62-414B-93AE-B576BEB044DB";
paths = (
{
closed = 1;
nodes = (
"112 0 LINE",
"112 540 LINE",
"70 540 LINE",
"70 0 LINE"
);
},
{
closed = 1;
nodes = (
"431 0 LINE",
"473 0 LINE",
"473 540 LINE",
"431 540 LINE"
);
},
{
closed = 1;
nodes = (
"87 498 LINE",
"456 498 LINE",
"456 540 LINE",
"87 540 LINE"
);
}
);
width = 543;
},
{
layerId = "0DA27741-1AFD-43F2-A947-40AFBF8D6498";
paths = (
{
closed = 1;
nodes = (
"206 0 LINE",
"206 540 LINE",
"70 540 LINE",
"70 0 LINE"
);
},
{
closed = 1;
nodes = (
"416 0 LINE",
"552 0 LINE",
"552 540 LINE",
"416 540 LINE"
);
},
{
closed = 1;
nodes = (
"167 413 LINE",
"441 413 LINE",
"441 540 LINE",
"167 540 LINE"
);
}
);
width = 622;
},
{
associatedMasterId = "0DA27741-1AFD-43F2-A947-40AFBF8D6498";
layerId = "A2873047-0ED6-4C67-9B4D-3870B51BD5C6";
width = 600;
},
{
associatedMasterId = "0DA27741-1AFD-43F2-A947-40AFBF8D6498";
layerId = "55314CA7-5524-4D70-B802-98D4FAE25636";
width = 588;
},
{
associatedMasterId = "0DA27741-1AFD-43F2-A947-40AFBF8D6498";
layerId = "13A3DD5D-E91B-4961-8595-F8141D3FA442";
width = 598;
}
);
leftKerningGroup = n;
leftMetricsKey = n;
rightKerningGroup = u;
rightMetricsKey = u;
unicode = 043F;
},
{
glyphname = "te-cy";
lastChange = "2019-03-08 00:59:38 +0000";
layers = (
{
layerId = "CAA188E2-8C62-414B-93AE-B576BEB044DB";
paths = (
{
closed = 1;
nodes = (
"266 0 LINE",
"266 520 LINE",
"224 520 LINE",
"224 0 LINE"
);
},
{
closed = 1;
nodes = (
"25 498 LINE",
"465 498 LINE",
"465 540 LINE",
"25 540 LINE"
);
}
);
width = 490;
},
{
layerId = "0DA27741-1AFD-43F2-A947-40AFBF8D6498";
paths = (
{
closed = 1;
nodes = (
"338 0 LINE",
"338 520 LINE",
"202 520 LINE",
"202 0 LINE"
);
},
{
closed = 1;
nodes = (
"25 420 LINE",
"515 420 LINE",
"515 540 LINE",
"25 540 LINE"
);
}
);
width = 540;
},
{
associatedMasterId = "0DA27741-1AFD-43F2-A947-40AFBF8D6498";
layerId = "A2873047-0ED6-4C67-9B4D-3870B51BD5C6";
width = 600;
},
{
associatedMasterId = "0DA27741-1AFD-43F2-A947-40AFBF8D6498";
layerId = "55314CA7-5524-4D70-B802-98D4FAE25636";
width = 438;
},
{
associatedMasterId = "0DA27741-1AFD-43F2-A947-40AFBF8D6498";
layerId = "13A3DD5D-E91B-4961-8595-F8141D3FA442";
width = 574;
}
);
leftKerningGroup = te;
rightKerningGroup = r;
rightMetricsKey = r;
unicode = 0442;
},
{
glyphname = "ef-cy";
lastChange = "2019-03-11 08:50:20 +0000";
layers = (
{
layerId = "CAA188E2-8C62-414B-93AE-B576BEB044DB";
paths = (
{
closed = 1;
nodes = (
"166 -15 OFFCURVE",
"40 82 OFFCURVE",
"40 269 CURVE SMOOTH",
"40 456 OFFCURVE",
"166 555 OFFCURVE",
"338 555 CURVE SMOOTH",
"380 555 LINE SMOOTH",
"553 555 OFFCURVE",
"678 456 OFFCURVE",
"678 269 CURVE SMOOTH",
"678 82 OFFCURVE",
"553 -15 OFFCURVE",
"380 -15 CURVE SMOOTH",
"338 -15 LINE SMOOTH"
);
},
{
closed = 1;
nodes = (
"523 24 OFFCURVE",
"633 104 OFFCURVE",
"633 269 CURVE SMOOTH",
"633 434 OFFCURVE",
"523 513 OFFCURVE",
"380 513 CURVE SMOOTH",
"338 513 LINE SMOOTH",
"192 513 OFFCURVE",
"85 434 OFFCURVE",
"85 269 CURVE SMOOTH",
"85 104 OFFCURVE",
"192 24 OFFCURVE",
"338 24 CURVE SMOOTH",
"380 24 LINE SMOOTH"
);
},
{
closed = 1;
nodes = (
"338 -225 LINE",
"338 719 LINE",
"380 719 LINE",
"380 -225 LINE"
);
}
);
width = 718;
},
{
layerId = "0DA27741-1AFD-43F2-A947-40AFBF8D6498";
paths = (
{
closed = 1;
nodes = (
"164 -34 OFFCURVE",
"40 70 OFFCURVE",
"40 270 CURVE SMOOTH",
"40 470 OFFCURVE",
"164 574 OFFCURVE",
"322 549 CURVE",
"442 549 LINE",
"600 574 OFFCURVE",
"724 470 OFFCURVE",
"724 270 CURVE SMOOTH",
"724 70 OFFCURVE",
"600 -34 OFFCURVE",
"442 -9 CURVE",
"322 -9 LINE"
);
},
{
closed = 1;
nodes = (
"545 95 OFFCURVE",
"586 164 OFFCURVE",
"586 270 CURVE SMOOTH",
"586 376 OFFCURVE",
"550 445 OFFCURVE",
"442 427 CURVE",
"322 427 LINE",
"214 445 OFFCURVE",
"178 373 OFFCURVE",
"178 270 CURVE SMOOTH",
"178 167 OFFCURVE",
"219 95 OFFCURVE",
"322 112 CURVE",
"442 112 LINE"
);
},
{
closed = 1;
nodes = (
"322 -225 LINE",
"322 710 LINE",
"442 710 LINE",
"442 -225 LINE"
);
}
);
width = 764;
},
{
associatedMasterId = "0DA27741-1AFD-43F2-A947-40AFBF8D6498";
layerId = "A2873047-0ED6-4C67-9B4D-3870B51BD5C6";
width = 600;
},
{
associatedMasterId = "0DA27741-1AFD-43F2-A947-40AFBF8D6498";
layerId = "55314CA7-5524-4D70-B802-98D4FAE25636";
width = 694;
},
{
associatedMasterId = "0DA27741-1AFD-43F2-A947-40AFBF8D6498";
layerId = "13A3DD5D-E91B-4961-8595-F8141D3FA442";
width = 615;
}
);
leftKerningGroup = o;
leftMetricsKey = o;
rightKerningGroup = o;
rightMetricsKey = o;
unicode = 0444;
},
{
glyphname = "che-cy";
lastChange = "2019-03-11 09:59:19 +0000";
layers = (
{
layerId = "CAA188E2-8C62-414B-93AE-B576BEB044DB";
paths = (
{
closed = 1;
nodes = (
"40 540 LINE",
"40 429 LINE SMOOTH",
"40 390 OFFCURVE",
"41 353 OFFCURVE",
"49 317 CURVE SMOOTH",
"69 232 OFFCURVE",
"136 179 OFFCURVE",
"229 179 CURVE SMOOTH",
"317 179 OFFCURVE",
"386 218 OFFCURVE",
"434 265 CURVE",
"434 326 LINE",
"403 273 OFFCURVE",
"319 221 OFFCURVE",
"234 221 CURVE SMOOTH",
"145 221 OFFCURVE",
"98 269 OFFCURVE",
"86 353 CURVE SMOOTH",
"83 377 OFFCURVE",
"82 402 OFFCURVE",
"82 429 CURVE SMOOTH",
"82 540 LINE"
);
},
{
closed = 1;
nodes = (
"473 540 LINE",
"431 540 LINE",
"431 0 LINE",
"473 0 LINE"
);
}
);
width = 543;
},
{
layerId = "0DA27741-1AFD-43F2-A947-40AFBF8D6498";
paths = (
{
closed = 1;
nodes = (
"40 540 LINE",
"40 405 LINE SMOOTH",
"40 371 OFFCURVE",
"41 330 OFFCURVE",
"48 294 CURVE SMOOTH",
"67 198 OFFCURVE",
"138 136 OFFCURVE",
"234 136 CURVE SMOOTH",
"300 136 OFFCURVE",
"358 159 OFFCURVE",
"403 207 CURVE",
"403 316 LINE",
"382 281 OFFCURVE",
"329 252 OFFCURVE",
"273 252 CURVE SMOOTH",
"225 252 OFFCURVE",
"197 278 OFFCURVE",
"185 325 CURVE SMOOTH",
"179 349 OFFCURVE",
"178 382 OFFCURVE",
"178 405 CURVE SMOOTH",
"178 540 LINE"
);
},
{
closed = 1;
nodes = (
"536 540 LINE",
"399 540 LINE",
"399 0 LINE",
"536 0 LINE"
);
}
);
width = 606;
},
{
associatedMasterId = "0DA27741-1AFD-43F2-A947-40AFBF8D6498";
layerId = "A2873047-0ED6-4C67-9B4D-3870B51BD5C6";
width = 600;
},
{
associatedMasterId = "0DA27741-1AFD-43F2-A947-40AFBF8D6498";
layerId = "55314CA7-5524-4D70-B802-98D4FAE25636";
width = 513;
},
{
associatedMasterId = "0DA27741-1AFD-43F2-A947-40AFBF8D6498";
layerId = "13A3DD5D-E91B-4961-8595-F8141D3FA442";
width = 586;
}
);
leftKerningGroup = n;
leftMetricsKey = d;
rightKerningGroup = u;
rightMetricsKey = u;
unicode = 0447;
},
{
glyphname = "sha-cy";
lastChange = "2019-03-25 02:12:42 +0000";
layers = (
{
layerId = "CAA188E2-8C62-414B-93AE-B576BEB044DB";
paths = (
{
closed = 1;
nodes = (
"667 0 LINE",
"667 540 LINE",
"625 540 LINE",
"625 42 LINE",
"390 42 LINE",
"390 540 LINE",
"348 540 LINE",
"348 42 LINE",
"112 42 LINE",
"112 540 LINE",
"70 540 LINE",
"70 0 LINE"
);
}
);
width = 737;
},
{
layerId = "0DA27741-1AFD-43F2-A947-40AFBF8D6498";
paths = (
{
closed = 1;
nodes = (
"732 0 LINE",
"732 540 LINE",
"602 540 LINE",
"602 120 LINE",
"466 120 LINE",
"466 540 LINE",
"336 540 LINE",
"336 120 LINE",
"200 120 LINE",
"200 540 LINE",
"70 540 LINE",
"70 0 LINE"
);
}
);
width = 802;
},
{
associatedMasterId = "0DA27741-1AFD-43F2-A947-40AFBF8D6498";
layerId = "A2873047-0ED6-4C67-9B4D-3870B51BD5C6";
width = 600;
},
{
associatedMasterId = "0DA27741-1AFD-43F2-A947-40AFBF8D6498";
layerId = "55314CA7-5524-4D70-B802-98D4FAE25636";
width = 850;
},
{
associatedMasterId = "0DA27741-1AFD-43F2-A947-40AFBF8D6498";
layerId = "13A3DD5D-E91B-4961-8595-F8141D3FA442";
width = 640;
}
);
leftKerningGroup = n;
leftMetricsKey = m;
rightKerningGroup = u;
rightMetricsKey = u;
unicode = 0448;
},
{
glyphname = "dzhe-cy";
lastChange = "2019-02-12 06:47:12 +0000";
layers = (
{
components = (
{
name = "pe-cy";
transform = "{1, 0, 0, -1, 0, 540}";
}
);
layerId = "CAA188E2-8C62-414B-93AE-B576BEB044DB";
paths = (
{
closed = 1;
nodes = (
"264 -120 LINE",
"306 -120 LINE",
"306 20 LINE",
"264 20 LINE"
);
}
);
width = 543;
},
{
components = (
{
name = "pe-cy";
transform = "{1, 0, 0, -1, 0, 540}";
}
);
layerId = "0DA27741-1AFD-43F2-A947-40AFBF8D6498";
paths = (
{
closed = 1;
nodes = (
"249 -120 LINE",
"385 -120 LINE",
"385 60 LINE",
"249 60 LINE"
);
}
);
width = 622;
},
{
associatedMasterId = "0DA27741-1AFD-43F2-A947-40AFBF8D6498";
layerId = "A2873047-0ED6-4C67-9B4D-3870B51BD5C6";
width = 600;
},
{
associatedMasterId = "0DA27741-1AFD-43F2-A947-40AFBF8D6498";
layerId = "55314CA7-5524-4D70-B802-98D4FAE25636";
width = 588;
},
{
associatedMasterId = "0DA27741-1AFD-43F2-A947-40AFBF8D6498";
layerId = "13A3DD5D-E91B-4961-8595-F8141D3FA442";
width = 598;
}
);
leftKerningGroup = "sha-cy";
leftMetricsKey = "sha-cy";
rightKerningGroup = "sha-cy";
rightMetricsKey = "sha-cy";
unicode = 045F;
},
{
glyphname = "softsign-cy";
lastChange = "2019-03-08 01:25:00 +0000";
layers = (
{
layerId = "CAA188E2-8C62-414B-93AE-B576BEB044DB";
paths = (
{
closed = 1;
nodes = (
"71 0 LINE",
"269 0 LINE SMOOTH",
"300 0 OFFCURVE",
"327 1 OFFCURVE",
"355 7 CURVE SMOOTH",
"417 20 OFFCURVE",
"472 70 OFFCURVE",
"472 161 CURVE SMOOTH",
"472 263 OFFCURVE",
"410 304 OFFCURVE",
"338 316 CURVE SMOOTH",
"315 320 OFFCURVE",
"291 321 OFFCURVE",
"259 321 CURVE SMOOTH",
"113 321 LINE",
"113 540 LINE",
"70 540 LINE"
);
},
{
closed = 1;
nodes = (
"257 279 LINE SMOOTH",
"284 279 OFFCURVE",
"314 278 OFFCURVE",
"339 273 CURVE SMOOTH",
"394 262 OFFCURVE",
"427 233 OFFCURVE",
"427 161 CURVE SMOOTH",
"427 86 OFFCURVE",
"387 60 OFFCURVE",
"348 49 CURVE SMOOTH",
"323 42 OFFCURVE",
"284 42 OFFCURVE",
"257 42 CURVE SMOOTH",
"113 42 LINE",
"113 279 LINE"
);
}
);
width = 512;
},
{
layerId = "0DA27741-1AFD-43F2-A947-40AFBF8D6498";
paths = (
{
closed = 1;
nodes = (
"70 0 LINE",
"293 0 LINE SMOOTH",
"323 0 OFFCURVE",
"370 1 OFFCURVE",
"396 7 CURVE SMOOTH",
"490 29 OFFCURVE",
"541 87 OFFCURVE",
"541 183 CURVE SMOOTH",
"541 283 OFFCURVE",
"490 341 OFFCURVE",
"395 362 CURVE SMOOTH",
"369 367 OFFCURVE",
"323 368 OFFCURVE",
"293 368 CURVE SMOOTH",
"206 368 LINE",
"206 540 LINE",
"70 540 LINE"
);
},
{
closed = 1;
nodes = (
"308 263 LINE SMOOTH",
"319 263 OFFCURVE",
"334 262 OFFCURVE",
"348 258 CURVE SMOOTH",
"377 250 OFFCURVE",
"403 221 OFFCURVE",
"403 183 CURVE SMOOTH",
"403 148 OFFCURVE",
"378 118 OFFCURVE",
"350 110 CURVE SMOOTH",
"335 106 OFFCURVE",
"320 105 OFFCURVE",
"308 105 CURVE SMOOTH",
"206 105 LINE",
"206 263 LINE"
);
}
);
width = 581;
},
{
associatedMasterId = "0DA27741-1AFD-43F2-A947-40AFBF8D6498";
layerId = "A2873047-0ED6-4C67-9B4D-3870B51BD5C6";
width = 600;
},
{
associatedMasterId = "0DA27741-1AFD-43F2-A947-40AFBF8D6498";
layerId = "55314CA7-5524-4D70-B802-98D4FAE25636";
width = 501;
},
{
associatedMasterId = "0DA27741-1AFD-43F2-A947-40AFBF8D6498";
layerId = "13A3DD5D-E91B-4961-8595-F8141D3FA442";
width = 584;
}
);
leftKerningGroup = n;
leftMetricsKey = n;
rightKerningGroup = b;
rightMetricsKey = b;
unicode = 044C;
},
{
glyphname = "hardsign-cy";
lastChange = "2019-03-11 08:59:49 +0000";
layers = (
{
components = (
{
name = "softsign-cy";
transform = "{1, 0, 0, 1, 20, 0}";
}
);
layerId = "CAA188E2-8C62-414B-93AE-B576BEB044DB";
paths = (
{
closed = 1;
nodes = (
"20 498 LINE",
"100 498 LINE",
"100 540 LINE",
"20 540 LINE"
);
}
);
width = 532;
},
{
components = (
{
name = "softsign-cy";
transform = "{1, 0, 0, 1, 30, 0}";
}
);
layerId = "0DA27741-1AFD-43F2-A947-40AFBF8D6498";
paths = (
{
closed = 1;
nodes = (
"20 435 LINE",
"170 435 LINE",
"170 540 LINE",
"20 540 LINE"
);
}
);
width = 611;
},
{
associatedMasterId = "0DA27741-1AFD-43F2-A947-40AFBF8D6498";
layerId = "A2873047-0ED6-4C67-9B4D-3870B51BD5C6";
width = 600;
},
{
associatedMasterId = "0DA27741-1AFD-43F2-A947-40AFBF8D6498";
layerId = "55314CA7-5524-4D70-B802-98D4FAE25636";
width = 551;
},
{
associatedMasterId = "0DA27741-1AFD-43F2-A947-40AFBF8D6498";
layerId = "13A3DD5D-E91B-4961-8595-F8141D3FA442";
width = 592;
}
);
rightKerningGroup = b;
rightMetricsKey = b;
unicode = 044A;
},
{
glyphname = "yeru-cy";
lastChange = "2019-03-11 06:42:32 +0000";
layers = (
{
components = (
{
alignment = -1;
name = idotless;
transform = "{1, 0, 0, 1, 432, 0}";
}
);
layerId = "CAA188E2-8C62-414B-93AE-B576BEB044DB";
paths = (
{
closed = 1;
nodes = (
"71 0 LINE",
"239 0 LINE SMOOTH",
"270 0 OFFCURVE",
"297 1 OFFCURVE",
"325 7 CURVE SMOOTH",
"387 20 OFFCURVE",
"442 70 OFFCURVE",
"442 161 CURVE SMOOTH",
"442 263 OFFCURVE",
"380 303 OFFCURVE",
"308 316 CURVE SMOOTH",
"285 320 OFFCURVE",
"261 321 OFFCURVE",
"229 321 CURVE SMOOTH",
"113 321 LINE",
"113 540 LINE",
"70 540 LINE"
);
},
{
closed = 1;
nodes = (
"227 279 LINE SMOOTH",
"254 279 OFFCURVE",
"284 278 OFFCURVE",
"309 273 CURVE SMOOTH",
"364 262 OFFCURVE",
"397 233 OFFCURVE",
"397 161 CURVE SMOOTH",
"397 86 OFFCURVE",
"357 60 OFFCURVE",
"318 49 CURVE SMOOTH",
"293 42 OFFCURVE",
"254 42 OFFCURVE",
"227 42 CURVE SMOOTH",
"113 42 LINE",
"113 279 LINE"
);
}
);
width = 624;
},
{
components = (
{
alignment = -1;
name = idotless;
transform = "{1, 0, 0, 1, 477, 0}";
}
);
layerId = "0DA27741-1AFD-43F2-A947-40AFBF8D6498";
paths = (
{
closed = 1;
nodes = (
"70 0 LINE",
"255 0 LINE SMOOTH",
"285 0 OFFCURVE",
"332 1 OFFCURVE",
"358 7 CURVE SMOOTH",
"452 29 OFFCURVE",
"503 87 OFFCURVE",
"503 183 CURVE SMOOTH",
"503 283 OFFCURVE",
"452 341 OFFCURVE",
"357 362 CURVE SMOOTH",
"331 367 OFFCURVE",
"285 368 OFFCURVE",
"255 368 CURVE SMOOTH",
"206 368 LINE",
"206 540 LINE",
"70 540 LINE"
);
},
{
closed = 1;
nodes = (
"270 263 LINE SMOOTH",
"281 263 OFFCURVE",
"296 262 OFFCURVE",
"310 258 CURVE SMOOTH",
"339 250 OFFCURVE",
"365 221 OFFCURVE",
"365 183 CURVE SMOOTH",
"365 148 OFFCURVE",
"340 118 OFFCURVE",
"312 110 CURVE SMOOTH",
"297 106 OFFCURVE",
"282 105 OFFCURVE",
"270 105 CURVE SMOOTH",
"206 105 LINE",
"206 263 LINE"
);
}
);
width = 763;
},
{
associatedMasterId = "0DA27741-1AFD-43F2-A947-40AFBF8D6498";
layerId = "A2873047-0ED6-4C67-9B4D-3870B51BD5C6";
width = 600;
},
{
associatedMasterId = "0DA27741-1AFD-43F2-A947-40AFBF8D6498";
layerId = "55314CA7-5524-4D70-B802-98D4FAE25636";
width = 708;
},
{
associatedMasterId = "0DA27741-1AFD-43F2-A947-40AFBF8D6498";
layerId = "13A3DD5D-E91B-4961-8595-F8141D3FA442";
width = 617;
}
);
leftKerningGroup = n;
leftMetricsKey = n;
rightKerningGroup = u;
rightMetricsKey = u;
unicode = 044B;
},
{
glyphname = "lje-cy";
lastChange = "2019-03-11 10:05:45 +0000";
layers = (
{
layerId = "CAA188E2-8C62-414B-93AE-B576BEB044DB";
paths = (
{
closed = 1;
nodes = (
"414 0 LINE",
"582 0 LINE SMOOTH",
"613 0 OFFCURVE",
"640 1 OFFCURVE",
"668 7 CURVE SMOOTH",
"730 20 OFFCURVE",
"785 70 OFFCURVE",
"785 161 CURVE SMOOTH",
"785 263 OFFCURVE",
"723 303 OFFCURVE",
"651 316 CURVE SMOOTH",
"628 320 OFFCURVE",
"604 321 OFFCURVE",
"572 321 CURVE SMOOTH",
"456 321 LINE",
"456 540 LINE",
"413 540 LINE"
);
},
{
closed = 1;
nodes = (
"570 279 LINE SMOOTH",
"597 279 OFFCURVE",
"627 278 OFFCURVE",
"652 273 CURVE SMOOTH",
"707 262 OFFCURVE",
"740 233 OFFCURVE",
"740 161 CURVE SMOOTH",
"740 86 OFFCURVE",
"700 60 OFFCURVE",
"661 49 CURVE SMOOTH",
"636 42 OFFCURVE",
"597 42 OFFCURVE",
"570 42 CURVE SMOOTH",
"456 42 LINE",
"456 279 LINE"
);
},
{
closed = 1;
nodes = (
"127 346 OFFCURVE",
"118 225 OFFCURVE",
"100 122 CURVE SMOOTH",
"90 64 OFFCURVE",
"81 29 OFFCURVE",
"20 40 CURVE",
"20 0 LINE",
"108 -15 OFFCURVE",
"124 16 OFFCURVE",
"138 86 CURVE SMOOTH",
"155 170 OFFCURVE",
"170 321 OFFCURVE",
"182 498 CURVE",
"414 498 LINE",
"426 540 LINE",
"139 540 LINE"
);
}
);
width = 825;
},
{
layerId = "0DA27741-1AFD-43F2-A947-40AFBF8D6498";
paths = (
{
closed = 1;
nodes = (
"389 0 LINE",
"574 0 LINE SMOOTH",
"604 0 OFFCURVE",
"651 1 OFFCURVE",
"677 7 CURVE SMOOTH",
"771 29 OFFCURVE",
"822 87 OFFCURVE",
"822 183 CURVE SMOOTH",
"822 283 OFFCURVE",
"771 340 OFFCURVE",
"676 362 CURVE SMOOTH",
"650 368 OFFCURVE",
"604 368 OFFCURVE",
"574 368 CURVE SMOOTH",
"525 368 LINE",
"525 540 LINE",
"389 540 LINE"
);
},
{
closed = 1;
nodes = (
"589 263 LINE SMOOTH",
"600 263 OFFCURVE",
"615 262 OFFCURVE",
"629 258 CURVE SMOOTH",
"658 250 OFFCURVE",
"684 221 OFFCURVE",
"684 183 CURVE SMOOTH",
"684 148 OFFCURVE",
"659 118 OFFCURVE",
"631 110 CURVE SMOOTH",
"616 106 OFFCURVE",
"601 105 OFFCURVE",
"589 105 CURVE SMOOTH",
"525 105 LINE",
"525 263 LINE"
);
},
{
closed = 1;
nodes = (
"130 413 OFFCURVE",
"120 276 OFFCURVE",
"104 190 CURVE SMOOTH",
"92 125 OFFCURVE",
"79 102 OFFCURVE",
"20 113 CURVE",
"20 0 LINE",
"143 -29 OFFCURVE",
"203 11 OFFCURVE",
"226 142 CURVE SMOOTH",
"239 215 OFFCURVE",
"246 296 OFFCURVE",
"256 413 CURVE",
"389 413 LINE",
"415 540 LINE",
"137 540 LINE"
);
}
);
width = 862;
},
{
associatedMasterId = "0DA27741-1AFD-43F2-A947-40AFBF8D6498";
layerId = "A2873047-0ED6-4C67-9B4D-3870B51BD5C6";
width = 600;
},
{
associatedMasterId = "0DA27741-1AFD-43F2-A947-40AFBF8D6498";
layerId = "55314CA7-5524-4D70-B802-98D4FAE25636";
width = 914;
},
{
associatedMasterId = "0DA27741-1AFD-43F2-A947-40AFBF8D6498";
layerId = "13A3DD5D-E91B-4961-8595-F8141D3FA442";
width = 650;
}
);
leftKerningGroup = n;
leftMetricsKey = "el-cy";
rightKerningGroup = b;
rightMetricsKey = "softsign-cy";
unicode = 0459;
},
{
glyphname = "nje-cy";
lastChange = "2019-03-25 03:39:02 +0000";
layers = (
{
layerId = "CAA188E2-8C62-414B-93AE-B576BEB044DB";
paths = (
{
closed = 1;
nodes = (
"112 0 LINE",
"112 540 LINE",
"70 540 LINE",
"70 0 LINE"
);
},
{
closed = 1;
nodes = (
"99 279 LINE",
"395 279 LINE",
"395 321 LINE",
"99 321 LINE"
);
},
{
closed = 1;
nodes = (
"373 0 LINE",
"541 0 LINE SMOOTH",
"572 0 OFFCURVE",
"599 1 OFFCURVE",
"627 7 CURVE SMOOTH",
"689 20 OFFCURVE",
"744 70 OFFCURVE",
"744 161 CURVE SMOOTH",
"744 263 OFFCURVE",
"682 303 OFFCURVE",
"610 316 CURVE SMOOTH",
"587 320 OFFCURVE",
"563 321 OFFCURVE",
"531 321 CURVE SMOOTH",
"415 321 LINE",
"415 540 LINE",
"372 540 LINE"
);
},
{
closed = 1;
nodes = (
"529 279 LINE SMOOTH",
"556 279 OFFCURVE",
"586 278 OFFCURVE",
"611 273 CURVE SMOOTH",
"666 262 OFFCURVE",
"699 233 OFFCURVE",
"699 161 CURVE SMOOTH",
"699 86 OFFCURVE",
"659 60 OFFCURVE",
"620 49 CURVE SMOOTH",
"595 42 OFFCURVE",
"556 42 OFFCURVE",
"529 42 CURVE SMOOTH",
"415 42 LINE",
"415 279 LINE"
);
}
);
width = 784;
},
{
layerId = "0DA27741-1AFD-43F2-A947-40AFBF8D6498";
paths = (
{
closed = 1;
nodes = (
"206 0 LINE",
"206 540 LINE",
"70 540 LINE",
"70 0 LINE"
);
},
{
closed = 1;
nodes = (
"153 263 LINE",
"439 263 LINE",
"439 368 LINE",
"153 368 LINE"
);
},
{
closed = 1;
nodes = (
"373 0 LINE",
"558 0 LINE SMOOTH",
"588 0 OFFCURVE",
"635 1 OFFCURVE",
"661 7 CURVE SMOOTH",
"755 29 OFFCURVE",
"806 87 OFFCURVE",
"806 183 CURVE SMOOTH",
"806 283 OFFCURVE",
"755 340 OFFCURVE",
"660 362 CURVE SMOOTH",
"634 368 OFFCURVE",
"588 368 OFFCURVE",
"558 368 CURVE SMOOTH",
"509 368 LINE",
"509 540 LINE",
"373 540 LINE"
);
},
{
closed = 1;
nodes = (
"573 263 LINE SMOOTH",
"584 263 OFFCURVE",
"599 262 OFFCURVE",
"613 258 CURVE SMOOTH",
"642 250 OFFCURVE",
"668 221 OFFCURVE",
"668 183 CURVE SMOOTH",
"668 148 OFFCURVE",
"643 118 OFFCURVE",
"615 110 CURVE SMOOTH",
"600 106 OFFCURVE",
"585 105 OFFCURVE",
"573 105 CURVE SMOOTH",
"509 105 LINE",
"509 263 LINE"
);
}
);
width = 846;
},
{
associatedMasterId = "0DA27741-1AFD-43F2-A947-40AFBF8D6498";
layerId = "A2873047-0ED6-4C67-9B4D-3870B51BD5C6";
width = 600;
},
{
associatedMasterId = "0DA27741-1AFD-43F2-A947-40AFBF8D6498";
layerId = "55314CA7-5524-4D70-B802-98D4FAE25636";
width = 914;
},
{
associatedMasterId = "0DA27741-1AFD-43F2-A947-40AFBF8D6498";
layerId = "13A3DD5D-E91B-4961-8595-F8141D3FA442";
width = 650;
}
);
leftKerningGroup = n;
leftMetricsKey = "en-cy";
rightKerningGroup = b;
rightMetricsKey = "softsign-cy";
unicode = 045A;
},
{
glyphname = "ereversed-cy";
lastChange = "2019-02-12 06:46:48 +0000";
layers = (
{
components = (
{
name = c;
transform = "{-1, 0, 0, 1, 539, 0}";
}
);
layerId = "CAA188E2-8C62-414B-93AE-B576BEB044DB";
paths = (
{
closed = 1;
nodes = (
"170 249 LINE",
"461 249 LINE",
"461 291 LINE",
"170 291 LINE"
);
}
);
width = 539;
},
{
components = (
{
name = c;
transform = "{-1, 0, 0, 1, 584, 0}";
}
);
layerId = "0DA27741-1AFD-43F2-A947-40AFBF8D6498";
paths = (
{
closed = 1;
nodes = (
"236 218 LINE",
"417 218 LINE",
"417 323 LINE",
"236 323 LINE"
);
}
);
width = 584;
},
{
associatedMasterId = "0DA27741-1AFD-43F2-A947-40AFBF8D6498";
layerId = "A2873047-0ED6-4C67-9B4D-3870B51BD5C6";
width = 600;
},
{
associatedMasterId = "0DA27741-1AFD-43F2-A947-40AFBF8D6498";
layerId = "55314CA7-5524-4D70-B802-98D4FAE25636";
width = 573;
},
{
associatedMasterId = "0DA27741-1AFD-43F2-A947-40AFBF8D6498";
layerId = "13A3DD5D-E91B-4961-8595-F8141D3FA442";
width = 596;
}
);
leftKerningGroup = o;
rightKerningGroup = o;
unicode = 044D;
},
{
glyphname = "iu-cy";
lastChange = "2019-02-12 06:46:48 +0000";
layers = (
{
layerId = "CAA188E2-8C62-414B-93AE-B576BEB044DB";
paths = (
{
closed = 1;
nodes = (
"70 0 LINE",
"112 0 LINE",
"112 540 LINE",
"70 540 LINE"
);
},
{
closed = 1;
nodes = (
"106 249 LINE",
"241 249 LINE",
"241 291 LINE",
"106 291 LINE"
);
},
{
closed = 1;
nodes = (
"541 -15 OFFCURVE",
"608 12 OFFCURVE",
"653 72 CURVE",
"698 130 OFFCURVE",
"711 202 OFFCURVE",
"711 271 CURVE SMOOTH",
"711 338 OFFCURVE",
"698 411 OFFCURVE",
"653 469 CURVE",
"609 527 OFFCURVE",
"539 555 OFFCURVE",
"464 555 CURVE SMOOTH",
"307 555 OFFCURVE",
"217 441 OFFCURVE",
"217 271 CURVE SMOOTH",
"217 103 OFFCURVE",
"304 -15 OFFCURVE",
"464 -15 CURVE SMOOTH"
);
},
{
closed = 1;
nodes = (
"584 51 OFFCURVE",
"525 27 OFFCURVE",
"464 27 CURVE SMOOTH",
"331 27 OFFCURVE",
"262 124 OFFCURVE",
"262 271 CURVE SMOOTH",
"262 413 OFFCURVE",
"327 513 OFFCURVE",
"464 513 CURVE SMOOTH",
"525 513 OFFCURVE",
"584 490 OFFCURVE",
"619 443 CURVE",
"655 396 OFFCURVE",
"666 332 OFFCURVE",
"666 271 CURVE SMOOTH",
"666 208 OFFCURVE",
"655 145 OFFCURVE",
"619 98 CURVE"
);
}
);
width = 751;
},
{
layerId = "0DA27741-1AFD-43F2-A947-40AFBF8D6498";
paths = (
{
closed = 1;
nodes = (
"70 0 LINE",
"206 0 LINE",
"206 540 LINE",
"70 540 LINE"
);
},
{
closed = 1;
nodes = (
"151 202 LINE",
"336 202 LINE",
"336 338 LINE",
"151 338 LINE"
);
},
{
closed = 1;
nodes = (
"639 -15 OFFCURVE",
"714 15 OFFCURVE",
"765 75 CURVE",
"811 132 OFFCURVE",
"832 193 OFFCURVE",
"832 270 CURVE SMOOTH",
"832 343 OFFCURVE",
"813 408 OFFCURVE",
"765 465 CURVE",
"715 525 OFFCURVE",
"638 555 OFFCURVE",
"558 555 CURVE SMOOTH",
"418 555 OFFCURVE",
"305 454 OFFCURVE",
"305 270 CURVE SMOOTH",
"305 88 OFFCURVE",
"415 -15 OFFCURVE",
"558 -15 CURVE SMOOTH"
);
},
{
closed = 1;
nodes = (
"635 128 OFFCURVE",
"598 112 OFFCURVE",
"558 112 CURVE SMOOTH",
"473 112 OFFCURVE",
"429 173 OFFCURVE",
"429 270 CURVE SMOOTH",
"429 364 OFFCURVE",
"469 428 OFFCURVE",
"558 428 CURVE SMOOTH",
"598 428 OFFCURVE",
"635 413 OFFCURVE",
"657 383 CURVE",
"680 353 OFFCURVE",
"688 311 OFFCURVE",
"688 270 CURVE SMOOTH",
"688 229 OFFCURVE",
"680 188 OFFCURVE",
"657 158 CURVE"
);
}
);
width = 872;
},
{
associatedMasterId = "0DA27741-1AFD-43F2-A947-40AFBF8D6498";
layerId = "A2873047-0ED6-4C67-9B4D-3870B51BD5C6";
width = 600;
},
{
associatedMasterId = "0DA27741-1AFD-43F2-A947-40AFBF8D6498";
layerId = "55314CA7-5524-4D70-B802-98D4FAE25636";
width = 898;
},
{
associatedMasterId = "0DA27741-1AFD-43F2-A947-40AFBF8D6498";
layerId = "13A3DD5D-E91B-4961-8595-F8141D3FA442";
width = 648;
}
);
leftKerningGroup = n;
leftMetricsKey = n;
rightKerningGroup = o;
rightMetricsKey = o;
unicode = 044E;
},
{
glyphname = "ia-cy";
lastChange = "2019-03-08 01:29:53 +0000";
layers = (
{
layerId = "CAA188E2-8C62-414B-93AE-B576BEB044DB";
paths = (
{
closed = 1;
nodes = (
"90 0 LINE",
"257 240 LINE",
"205 240 LINE",
"40 0 LINE"
);
},
{
closed = 1;
nodes = (
"461 540 LINE",
"263 540 LINE SMOOTH",
"232 540 OFFCURVE",
"201 539 OFFCURVE",
"177 532 CURVE SMOOTH",
"116 515 OFFCURVE",
"60 463 OFFCURVE",
"60 379 CURVE SMOOTH",
"60 290 OFFCURVE",
"119 240 OFFCURVE",
"191 227 CURVE SMOOTH",
"214 223 OFFCURVE",
"241 219 OFFCURVE",
"273 219 CURVE SMOOTH",
"419 219 LINE",
"419 0 LINE",
"462 0 LINE"
);
},
{
closed = 1;
nodes = (
"275 261 LINE SMOOTH",
"248 261 OFFCURVE",
"216 262 OFFCURVE",
"194 268 CURVE SMOOTH",
"139 283 OFFCURVE",
"105 315 OFFCURVE",
"105 379 CURVE SMOOTH",
"105 446 OFFCURVE",
"148 477 OFFCURVE",
"185 489 CURVE SMOOTH",
"210 497 OFFCURVE",
"248 498 OFFCURVE",
"275 498 CURVE SMOOTH",
"419 498 LINE",
"419 261 LINE"
);
}
);
width = 532;
},
{
layerId = "0DA27741-1AFD-43F2-A947-40AFBF8D6498";
paths = (
{
closed = 1;
nodes = (
"182 0 LINE",
"302 200 LINE",
"162 200 LINE",
"40 0 LINE"
);
},
{
closed = 1;
nodes = (
"524 540 LINE",
"301 540 LINE SMOOTH",
"271 540 OFFCURVE",
"224 539 OFFCURVE",
"198 533 CURVE SMOOTH",
"104 511 OFFCURVE",
"53 453 OFFCURVE",
"53 357 CURVE SMOOTH",
"53 257 OFFCURVE",
"104 199 OFFCURVE",
"199 178 CURVE SMOOTH",
"225 173 OFFCURVE",
"271 172 OFFCURVE",
"301 172 CURVE SMOOTH",
"388 172 LINE",
"388 0 LINE",
"524 0 LINE"
);
},
{
closed = 1;
nodes = (
"286 277 LINE SMOOTH",
"275 277 OFFCURVE",
"260 278 OFFCURVE",
"246 282 CURVE SMOOTH",
"217 290 OFFCURVE",
"191 319 OFFCURVE",
"191 357 CURVE SMOOTH",
"191 392 OFFCURVE",
"216 422 OFFCURVE",
"244 430 CURVE SMOOTH",
"259 434 OFFCURVE",
"274 435 OFFCURVE",
"286 435 CURVE SMOOTH",
"388 435 LINE",
"388 277 LINE"
);
}
);
width = 594;
},
{
associatedMasterId = "0DA27741-1AFD-43F2-A947-40AFBF8D6498";
layerId = "A2873047-0ED6-4C67-9B4D-3870B51BD5C6";
width = 600;
},
{
associatedMasterId = "0DA27741-1AFD-43F2-A947-40AFBF8D6498";
layerId = "55314CA7-5524-4D70-B802-98D4FAE25636";
width = 499;
},
{
associatedMasterId = "0DA27741-1AFD-43F2-A947-40AFBF8D6498";
layerId = "13A3DD5D-E91B-4961-8595-F8141D3FA442";
width = 584;
}
);
leftKerningGroup = a;
leftMetricsKey = a;
rightKerningGroup = u;
rightMetricsKey = u;
unicode = 044F;
},
{
glyphname = "dje-cy";
lastChange = "2019-02-12 06:47:12 +0000";
layers = (
{
components = (
{
name = hbar;
}
);
layerId = "CAA188E2-8C62-414B-93AE-B576BEB044DB";
paths = (
{
closed = 1;
nodes = (
"416 -179 OFFCURVE",
"433 -181 OFFCURVE",
"461 -178 CURVE",
"491 -172 OFFCURVE",
"513 -152 OFFCURVE",
"513 -95 CURVE SMOOTH",
"513 1 LINE",
"471 1 LINE",
"471 -55 LINE",
"471 -126 OFFCURVE",
"461 -143 OFFCURVE",
"396 -133 CURVE",
"396 -174 LINE"
);
}
);
width = 573;
},
{
components = (
{
name = hbar;
}
);
layerId = "0DA27741-1AFD-43F2-A947-40AFBF8D6498";
paths = (
{
closed = 1;
nodes = (
"382 -238 OFFCURVE",
"422 -244 OFFCURVE",
"471 -234 CURVE SMOOTH",
"537 -221 OFFCURVE",
"576 -167 OFFCURVE",
"576 -88 CURVE SMOOTH",
"576 2 LINE",
"438 2 LINE",
"438 -66 LINE",
"438 -147 OFFCURVE",
"377 -136 OFFCURVE",
"346 -134 CURVE",
"346 -229 LINE"
);
}
);
width = 636;
},
{
associatedMasterId = "0DA27741-1AFD-43F2-A947-40AFBF8D6498";
layerId = "A2873047-0ED6-4C67-9B4D-3870B51BD5C6";
width = 600;
},
{
associatedMasterId = "0DA27741-1AFD-43F2-A947-40AFBF8D6498";
layerId = "55314CA7-5524-4D70-B802-98D4FAE25636";
width = 564;
},
{
associatedMasterId = "0DA27741-1AFD-43F2-A947-40AFBF8D6498";
layerId = "13A3DD5D-E91B-4961-8595-F8141D3FA442";
width = 594;
}
);
leftKerningGroup = h;
rightKerningGroup = h;
rightMetricsKey = h;
unicode = 0452;
},
{
glyphname = "ustrait-cy";
lastChange = "2019-03-25 03:38:47 +0000";
layers = (
{
components = (
{
name = v;
transform = "{-1, 0, 0, 1, 478, 0}";
}
);
layerId = "CAA188E2-8C62-414B-93AE-B576BEB044DB";
paths = (
{
closed = 1;
nodes = (
"216 -180 LINE",
"262 -180 LINE",
"262 10 LINE",
"216 10 LINE"
);
}
);
width = 478;
},
{
components = (
{
name = v;
transform = "{-1, 0, 0, 1, 568, 0}";
}
);
layerId = "0DA27741-1AFD-43F2-A947-40AFBF8D6498";
paths = (
{
closed = 1;
nodes = (
"216 -180 LINE",
"352 -180 LINE",
"352 10 LINE",
"216 10 LINE"
);
}
);
width = 568;
},
{
associatedMasterId = "0DA27741-1AFD-43F2-A947-40AFBF8D6498";
layerId = "A2873047-0ED6-4C67-9B4D-3870B51BD5C6";
width = 600;
},
{
associatedMasterId = "0DA27741-1AFD-43F2-A947-40AFBF8D6498";
layerId = "55314CA7-5524-4D70-B802-98D4FAE25636";
width = 476;
},
{
associatedMasterId = "0DA27741-1AFD-43F2-A947-40AFBF8D6498";
layerId = "13A3DD5D-E91B-4961-8595-F8141D3FA442";
width = 580;
}
);
leftKerningGroup = v;
leftMetricsKey = v;
rightKerningGroup = v;
rightMetricsKey = v;
unicode = 04AF;
},
{
glyphname = "obarred-cy";
lastChange = "2019-02-20 05:53:43 +0000";
layers = (
{
components = (
{
name = o;
}
);
layerId = "CAA188E2-8C62-414B-93AE-B576BEB044DB";
paths = (
{
closed = 1;
nodes = (
"78 249 LINE",
"504 249 LINE",
"504 291 LINE",
"78 291 LINE"
);
}
);
width = 574;
},
{
components = (
{
name = o;
}
);
layerId = "0DA27741-1AFD-43F2-A947-40AFBF8D6498";
paths = (
{
closed = 1;
nodes = (
"101 218 LINE",
"527 218 LINE",
"527 323 LINE",
"101 323 LINE"
);
}
);
width = 627;
},
{
associatedMasterId = "0DA27741-1AFD-43F2-A947-40AFBF8D6498";
layerId = "A2873047-0ED6-4C67-9B4D-3870B51BD5C6";
width = 600;
},
{
associatedMasterId = "0DA27741-1AFD-43F2-A947-40AFBF8D6498";
layerId = "55314CA7-5524-4D70-B802-98D4FAE25636";
width = 588;
},
{
associatedMasterId = "0DA27741-1AFD-43F2-A947-40AFBF8D6498";
layerId = "13A3DD5D-E91B-4961-8595-F8141D3FA442";
width = 598;
}
);
leftKerningGroup = o;
rightKerningGroup = o;
unicode = 04E9;
},
{
glyphname = "ve-cy.loclBGR";
lastChange = "2019-03-25 05:25:01 +0000";
layers = (
{
layerId = "0DA27741-1AFD-43F2-A947-40AFBF8D6498";
paths = (
{
closed = 1;
nodes = (
"202 735 OFFCURVE",
"109 695 OFFCURVE",
"78 594 CURVE SMOOTH",
"72 574 OFFCURVE",
"70 555 OFFCURVE",
"70 530 CURVE SMOOTH",
"70 235 LINE SMOOTH",
"70 199 OFFCURVE",
"71 168 OFFCURVE",
"80 137 CURVE SMOOTH",
"113 25 OFFCURVE",
"205 -15 OFFCURVE",
"323 -15 CURVE SMOOTH",
"480 -15 OFFCURVE",
"587 67 OFFCURVE",
"587 214 CURVE SMOOTH",
"587 298 OFFCURVE",
"548 370 OFFCURVE",
"478 399 CURVE",
"514 433 OFFCURVE",
"530 478 OFFCURVE",
"530 529 CURVE SMOOTH",
"530 646 OFFCURVE",
"427 735 OFFCURVE",
"299 735 CURVE SMOOTH"
);
},
{
closed = 1;
nodes = (
"347 608 OFFCURVE",
"393 578 OFFCURVE",
"393 526 CURVE SMOOTH",
"393 475 OFFCURVE",
"361 444 OFFCURVE",
"300 440 CURVE",
"300 322 LINE",
"389 322 OFFCURVE",
"451 292 OFFCURVE",
"451 216 CURVE SMOOTH",
"451 153 OFFCURVE",
"400 111 OFFCURVE",
"326 111 CURVE SMOOTH",
"279 111 OFFCURVE",
"234 124 OFFCURVE",
"214 167 CURVE SMOOTH",
"209 180 OFFCURVE",
"207 201 OFFCURVE",
"207 225 CURVE SMOOTH",
"207 493 LINE SMOOTH",
"207 522 OFFCURVE",
"211 550 OFFCURVE",
"220 566 CURVE SMOOTH",
"238 598 OFFCURVE",
"267 608 OFFCURVE",
"299 608 CURVE SMOOTH"
);
}
);
width = 627;
},
{
layerId = "CAA188E2-8C62-414B-93AE-B576BEB044DB";
paths = (
{
closed = 1;
nodes = (
"170 735 OFFCURVE",
"113 697 OFFCURVE",
"85 628 CURVE SMOOTH",
"75 603 OFFCURVE",
"70 569 OFFCURVE",
"70 532 CURVE SMOOTH",
"70 204 LINE SMOOTH",
"70 175 OFFCURVE",
"73 148 OFFCURVE",
"78 127 CURVE SMOOTH",
"100 42 OFFCURVE",
"177 -15 OFFCURVE",
"291 -15 CURVE SMOOTH",
"437 -15 OFFCURVE",
"515 72 OFFCURVE",
"515 201 CURVE SMOOTH",
"515 327 OFFCURVE",
"405 389 OFFCURVE",
"345 392 CURVE",
"412 409 OFFCURVE",
"449 472 OFFCURVE",
"449 549 CURVE SMOOTH",
"449 671 OFFCURVE",
"374 735 OFFCURVE",
"260 735 CURVE SMOOTH"
);
},
{
closed = 1;
nodes = (
"350 693 OFFCURVE",
"404 640 OFFCURVE",
"404 550 CURVE SMOOTH",
"404 457 OFFCURVE",
"333 415 OFFCURVE",
"260 406 CURVE",
"260 364 LINE",
"386 361 OFFCURVE",
"470 298 OFFCURVE",
"470 201 CURVE SMOOTH",
"470 92 OFFCURVE",
"397 28 OFFCURVE",
"291 28 CURVE SMOOTH",
"213 28 OFFCURVE",
"143 70 OFFCURVE",
"124 132 CURVE SMOOTH",
"119 150 OFFCURVE",
"116 175 OFFCURVE",
"116 204 CURVE SMOOTH",
"116 521 LINE SMOOTH",
"116 550 OFFCURVE",
"118 580 OFFCURVE",
"126 606 CURVE SMOOTH",
"144 665 OFFCURVE",
"199 693 OFFCURVE",
"261 693 CURVE SMOOTH"
);
}
);
width = 545;
}
);
leftKerningGroup = b;
leftMetricsKey = b;
rightKerningGroup = B;
rightMetricsKey = B;
},
{
glyphname = "zhe-cy.loclBGR";
lastChange = "2019-02-12 06:46:56 +0000";
layers = (
{
components = (
{
name = "zhe-cy";
}
);
layerId = "0DA27741-1AFD-43F2-A947-40AFBF8D6498";
paths = (
{
closed = 1;
nodes = (
"467 322 LINE",
"467 720 LINE",
"347 720 LINE",
"347 322 LINE"
);
}
);
width = 814;
},
{
components = (
{
name = "zhe-cy";
}
);
layerId = "CAA188E2-8C62-414B-93AE-B576BEB044DB";
paths = (
{
closed = 1;
nodes = (
"348 291 LINE",
"348 720 LINE",
"306 720 LINE",
"306 291 LINE"
);
}
);
width = 652;
}
);
leftKerningGroup = x;
rightKerningGroup = x;
},
{
glyphname = "tse-cy.loclBGR";
lastChange = "2019-03-12 02:49:43 +0000";
layers = (
{
components = (
{
name = u;
}
);
layerId = "0DA27741-1AFD-43F2-A947-40AFBF8D6498";
paths = (
{
closed = 1;
nodes = (
"566 0 LINE",
"566 -90 LINE",
"652 -90 LINE",
"652 120 LINE",
"446 120 LINE",
"446 0 LINE"
);
}
);
width = 662;
},
{
components = (
{
name = u;
}
);
layerId = "CAA188E2-8C62-414B-93AE-B576BEB044DB";
paths = (
{
closed = 1;
nodes = (
"534 0 LINE",
"534 -80 LINE",
"576 -80 LINE",
"576 42 LINE",
"464 42 LINE",
"464 0 LINE"
);
}
);
width = 586;
}
);
leftKerningGroup = u;
rightKerningGroup = "tse-cy";
rightMetricsKey = "tse-cy";
},
{
glyphname = "shcha-cy.loclBGR";
lastChange = "2019-03-12 02:49:19 +0000";
layers = (
{
components = (
{
name = m;
transform = "{-1, 0, 0, -1, 921, 540}";
}
);
layerId = "0DA27741-1AFD-43F2-A947-40AFBF8D6498";
paths = (
{
closed = 1;
nodes = (
"851 0 LINE",
"851 -90 LINE",
"937 -90 LINE",
"937 120 LINE",
"731 120 LINE",
"731 0 LINE"
);
}
);
width = 947;
},
{
components = (
{
name = m;
transform = "{-1, 0, 0, -1, 810, 540}";
}
);
layerId = "CAA188E2-8C62-414B-93AE-B576BEB044DB";
paths = (
{
closed = 1;
nodes = (
"771 0 LINE",
"771 -80 LINE",
"813 -80 LINE",
"813 42 LINE",
"701 42 LINE",
"701 0 LINE"
);
}
);
width = 823;
}
);
leftKerningGroup = u;
leftMetricsKey = u;
rightKerningGroup = "tse-cy";
rightMetricsKey = "tse-cy";
},
{
glyphname = "iu-cy.loclBGR";
lastChange = "2019-02-12 06:46:56 +0000";
layers = (
{
components = (
{
name = "iu-cy";
}
);
layerId = "0DA27741-1AFD-43F2-A947-40AFBF8D6498";
paths = (
{
closed = 1;
nodes = (
"70 0 LINE",
"206 0 LINE",
"206 720 LINE",
"70 720 LINE"
);
}
);
width = 867;
},
{
components = (
{
name = "iu-cy";
}
);
layerId = "CAA188E2-8C62-414B-93AE-B576BEB044DB";
paths = (
{
closed = 1;
nodes = (
"70 0 LINE",
"112 0 LINE",
"112 720 LINE",
"70 720 LINE"
);
}
);
width = 751;
}
);
leftKerningGroup = n;
rightKerningGroup = u;
},
{
glyphname = alpha;
lastChange = "2019-03-25 05:36:09 +0000";
layers = (
{
components = (
{
name = o;
}
);
layerId = "CAA188E2-8C62-414B-93AE-B576BEB044DB";
paths = (
{
closed = 1;
nodes = (
"587 42 LINE",
"548 34 OFFCURVE",
"534 69 OFFCURVE",
"533 126 CURVE",
"533 540 LINE",
"494 540 LINE",
"494 368 LINE",
"491 368 LINE",
"491 105 LINE",
"491 43 OFFCURVE",
"515 -17 OFFCURVE",
"587 0 CURVE"
);
}
);
width = 597;
},
{
components = (
{
name = o;
}
);
layerId = "0DA27741-1AFD-43F2-A947-40AFBF8D6498";
paths = (
{
closed = 1;
nodes = (
"642 129 LINE",
"587 129 OFFCURVE",
"587 182 OFFCURVE",
"587 219 CURVE",
"587 540 LINE",
"467 540 LINE",
"467 439 LINE",
"449 439 LINE",
"449 179 LINE",
"449 62 OFFCURVE",
"492 -46 OFFCURVE",
"642 0 CURVE"
);
}
);
width = 652;
},
{
associatedMasterId = "0DA27741-1AFD-43F2-A947-40AFBF8D6498";
layerId = "A2873047-0ED6-4C67-9B4D-3870B51BD5C6";
width = 600;
},
{
associatedMasterId = "0DA27741-1AFD-43F2-A947-40AFBF8D6498";
layerId = "55314CA7-5524-4D70-B802-98D4FAE25636";
width = 638;
},
{
associatedMasterId = "0DA27741-1AFD-43F2-A947-40AFBF8D6498";
layerId = "13A3DD5D-E91B-4961-8595-F8141D3FA442";
width = 606;
}
);
leftKerningGroup = o;
rightKerningGroup = k;
rightMetricsKey = x;
unicode = 03B1;
},
{
glyphname = mu;
lastChange = "2019-03-25 05:31:30 +0000";
layers = (
{
components = (
{
name = h;
transform = "{1, 0, 0, -1, 0, 540}";
}
);
layerId = "CAA188E2-8C62-414B-93AE-B576BEB044DB";
paths = (
{
closed = 1;
nodes = (
"567 42 LINE",
"528 30 OFFCURVE",
"514 66 OFFCURVE",
"513 126 CURVE",
"513 270 LINE",
"473 101 LINE",
"473 56 OFFCURVE",
"486 -20 OFFCURVE",
"567 0 CURVE"
);
}
);
width = 577;
},
{
components = (
{
name = h;
transform = "{1, 0, 0, -1, 0, 540}";
}
);
layerId = "0DA27741-1AFD-43F2-A947-40AFBF8D6498";
paths = (
{
closed = 1;
nodes = (
"631 129 LINE",
"576 129 OFFCURVE",
"576 172 OFFCURVE",
"576 229 CURVE",
"576 360 LINE",
"468 169 LINE",
"468 52 OFFCURVE",
"518 -53 OFFCURVE",
"631 0 CURVE"
);
}
);
width = 641;
},
{
associatedMasterId = "0DA27741-1AFD-43F2-A947-40AFBF8D6498";
layerId = "A2873047-0ED6-4C67-9B4D-3870B51BD5C6";
width = 600;
},
{
associatedMasterId = "0DA27741-1AFD-43F2-A947-40AFBF8D6498";
layerId = "55314CA7-5524-4D70-B802-98D4FAE25636";
width = 659;
},
{
associatedMasterId = "0DA27741-1AFD-43F2-A947-40AFBF8D6498";
layerId = "13A3DD5D-E91B-4961-8595-F8141D3FA442";
width = 609;
}
);
leftKerningGroup = p;
leftMetricsKey = p;
rightKerningGroup = k;
rightMetricsKey = x;
unicode = 03BC;
},
{
glyphname = zero;
lastChange = "2019-01-11 11:32:15 +0000";
layers = (
{
layerId = "0DA27741-1AFD-43F2-A947-40AFBF8D6498";
paths = (
{
closed = 1;
nodes = (
"261 -14 OFFCURVE",
"182 13 OFFCURVE",
"131 73 CURVE SMOOTH",
"80 137 OFFCURVE",
"70 190 OFFCURVE",
"70 272 CURVE SMOOTH",
"70 449 LINE SMOOTH",
"70 529 OFFCURVE",
"78 582 OFFCURVE",
"131 648 CURVE SMOOTH",
"178 704 OFFCURVE",
"256 737 OFFCURVE",
"337 735 CURVE SMOOTH",
"413 737 OFFCURVE",
"491 709 OFFCURVE",
"543 648 CURVE SMOOTH",
"595 587 OFFCURVE",
"604 531 OFFCURVE",
"604 449 CURVE SMOOTH",
"604 272 LINE SMOOTH",
"604 194 OFFCURVE",
"595 135 OFFCURVE",
"543 73 CURVE SMOOTH",
"492 14 OFFCURVE",
"418 -14 OFFCURVE",
"337 -14 CURVE SMOOTH"
);
},
{
closed = 1;
nodes = (
"292 608 OFFCURVE",
"248 581 OFFCURVE",
"226 542 CURVE SMOOTH",
"210 515 OFFCURVE",
"209 487 OFFCURVE",
"209 449 CURVE SMOOTH",
"209 272 LINE SMOOTH",
"209 238 OFFCURVE",
"208 204 OFFCURVE",
"229 173 CURVE SMOOTH",
"253 137 OFFCURVE",
"294 113 OFFCURVE",
"337 114 CURVE SMOOTH",
"381 113 OFFCURVE",
"423 137 OFFCURVE",
"446 174 CURVE SMOOTH",
"466 203 OFFCURVE",
"465 229 OFFCURVE",
"465 272 CURVE SMOOTH",
"465 449 LINE SMOOTH",
"465 485 OFFCURVE",
"467 507 OFFCURVE",
"450 541 CURVE SMOOTH",
"428 581 OFFCURVE",
"383 608 OFFCURVE",
"337 607 CURVE SMOOTH"
);
}
);
width = 674;
},
{
layerId = "CAA188E2-8C62-414B-93AE-B576BEB044DB";
paths = (
{
closed = 1;
nodes = (
"226 -15 OFFCURVE",
"168 12 OFFCURVE",
"128 56 CURVE SMOOTH",
"92 95 OFFCURVE",
"70 147 OFFCURVE",
"70 204 CURVE SMOOTH",
"70 517 LINE SMOOTH",
"70 576 OFFCURVE",
"94 630 OFFCURVE",
"133 669 CURVE SMOOTH",
"174 710 OFFCURVE",
"228 735 OFFCURVE",
"289 735 CURVE SMOOTH",
"350 735 OFFCURVE",
"406 710 OFFCURVE",
"446 669 CURVE SMOOTH",
"484 630 OFFCURVE",
"508 576 OFFCURVE",
"508 517 CURVE SMOOTH",
"508 204 LINE SMOOTH",
"508 146 OFFCURVE",
"486 94 OFFCURVE",
"449 55 CURVE SMOOTH",
"409 13 OFFCURVE",
"352 -15 OFFCURVE",
"289 -15 CURVE SMOOTH"
);
},
{
closed = 1;
nodes = (
"230 693 OFFCURVE",
"176 663 OFFCURVE",
"144 618 CURVE SMOOTH",
"124 590 OFFCURVE",
"112 555 OFFCURVE",
"112 517 CURVE SMOOTH",
"112 204 LINE SMOOTH",
"112 168 OFFCURVE",
"123 134 OFFCURVE",
"142 106 CURVE SMOOTH",
"174 58 OFFCURVE",
"228 27 OFFCURVE",
"289 27 CURVE SMOOTH",
"350 27 OFFCURVE",
"404 58 OFFCURVE",
"436 106 CURVE SMOOTH",
"455 134 OFFCURVE",
"466 168 OFFCURVE",
"466 204 CURVE SMOOTH",
"466 517 LINE SMOOTH",
"466 554 OFFCURVE",
"454 589 OFFCURVE",
"434 617 CURVE SMOOTH",
"401 663 OFFCURVE",
"349 693 OFFCURVE",
"289 693 CURVE SMOOTH"
);
}
);
width = 578;
}
);
unicode = 0030;
},
{
glyphname = one;
lastChange = "2018-11-27 09:43:13 +0000";
layers = (
{
layerId = "CAA188E2-8C62-414B-93AE-B576BEB044DB";
paths = (
{
closed = 1;
nodes = (
"60 639 LINE",
"60 590 LINE",
"196 671 LINE",
"196 0 LINE",
"238 0 LINE",
"238 720 LINE",
"196 720 LINE"
);
}
);
width = 358;
},
{
layerId = "0DA27741-1AFD-43F2-A947-40AFBF8D6498";
paths = (
{
closed = 1;
nodes = (
"60 639 LINE",
"60 489 LINE",
"195 572 LINE",
"195 0 LINE",
"334 0 LINE",
"334 720 LINE",
"195 720 LINE"
);
}
);
width = 454;
},
{
associatedMasterId = "0DA27741-1AFD-43F2-A947-40AFBF8D6498";
layerId = "A2873047-0ED6-4C67-9B4D-3870B51BD5C6";
width = 600;
},
{
associatedMasterId = "0DA27741-1AFD-43F2-A947-40AFBF8D6498";
layerId = "55314CA7-5524-4D70-B802-98D4FAE25636";
width = 341;
},
{
associatedMasterId = "0DA27741-1AFD-43F2-A947-40AFBF8D6498";
layerId = "13A3DD5D-E91B-4961-8595-F8141D3FA442";
width = 559;
}
);
note = one;
unicode = 0031;
},
